{"glyphs":{"0":{"ha":1031,"x_min":47,"x_max":968,"o":"m 717 21 q 591 -4 657 -1 q 460 -1 525 -7 q 363 15 411 3 q 274 51 314 28 q 220 91 246 69 q 175 139 194 113 q 128 220 147 178 q 96 307 110 263 q 72 642 47 472 q 73 647 72 644 q 74 651 74 649 q 86 751 75 701 q 119 847 97 801 q 201 962 147 910 q 325 1038 256 1014 q 433 1063 378 1056 q 543 1072 488 1069 q 673 1060 610 1076 q 790 1010 736 1044 q 869 925 842 975 q 938 757 915 844 q 965 579 961 669 q 954 399 968 489 q 914 226 940 310 q 864 125 896 169 q 799 63 838 89 q 717 21 760 38 m 147 599 q 167 597 154 590 q 176 615 179 604 q 176 627 175 619 q 177 644 176 635 q 179 661 178 653 q 182 674 181 669 q 187 715 186 693 q 194 756 188 736 q 202 781 196 761 q 211 806 208 800 q 219 817 213 808 q 232 835 225 825 q 245 853 239 844 q 253 865 251 863 q 280 897 264 883 q 313 924 296 910 q 325 931 317 926 q 344 942 333 936 q 364 951 354 947 q 379 956 374 954 q 392 960 382 956 q 404 964 401 964 q 423 971 417 964 q 429 986 429 978 q 424 1000 429 994 q 406 1004 418 1006 q 394 1001 403 1004 q 377 995 386 999 q 360 989 368 992 q 350 985 353 986 q 334 978 344 983 q 313 967 324 974 q 292 955 301 961 q 279 946 283 949 q 252 922 265 933 q 228 897 239 911 q 215 881 224 893 q 197 854 206 868 q 179 828 188 840 q 168 810 171 815 q 160 783 165 804 q 154 757 156 763 q 149 713 149 736 q 146 668 149 690 q 143 653 144 663 q 142 633 142 643 q 142 613 142 622 q 147 599 143 603 m 513 314 q 564 322 540 310 q 598 349 583 332 q 621 386 613 367 q 638 451 635 418 q 642 517 640 483 q 640 584 642 550 q 633 651 639 618 q 624 697 631 672 q 606 744 617 722 q 578 782 594 767 q 538 799 561 797 q 480 785 503 801 q 443 742 457 768 q 423 683 429 715 q 415 619 417 650 q 426 465 411 543 q 436 421 431 446 q 452 373 442 396 q 477 333 463 350 q 513 314 492 317 z "},"1":{"ha":811,"x_min":25,"x_max":732,"o":"m 671 -10 q 624 -15 658 -12 q 551 -21 590 -18 q 478 -25 513 -24 q 432 -26 444 -26 q 406 -23 419 -25 q 383 -12 393 -21 q 360 29 368 0 q 346 92 351 58 q 338 159 340 126 q 335 211 336 192 q 326 422 328 317 q 328 633 324 528 q 285 593 307 613 q 240 556 264 574 q 219 543 231 549 q 196 540 207 538 q 168 554 181 543 q 144 576 156 565 q 124 601 139 582 q 94 642 110 621 q 64 683 78 664 q 46 710 50 703 q 31 738 35 724 q 36 774 25 756 q 65 811 47 793 q 102 846 82 829 q 136 875 122 863 q 206 949 174 910 q 271 1026 238 988 q 289 1044 279 1036 q 310 1058 299 1053 q 378 1078 343 1074 q 450 1079 414 1082 q 509 1078 471 1078 q 587 1075 547 1078 q 661 1065 626 1072 q 711 1043 696 1058 q 722 1025 718 1036 q 726 1003 726 1014 q 727 952 728 989 q 725 867 726 915 q 722 767 724 819 q 719 666 721 714 q 717 581 718 618 q 718 531 717 544 q 726 348 725 439 q 729 165 726 257 q 730 141 729 158 q 731 103 731 124 q 732 65 732 83 q 732 42 732 47 q 717 8 729 19 q 694 -3 707 0 q 671 -10 682 -7 m 135 750 q 142 738 133 740 q 158 742 151 735 q 167 751 161 743 q 181 767 174 758 q 194 782 188 775 q 203 792 200 789 q 234 821 218 807 q 264 851 250 835 q 303 910 286 879 q 347 963 319 940 q 354 967 350 965 q 361 968 358 968 q 381 967 365 967 q 400 967 396 967 q 431 974 414 969 q 451 993 449 979 q 447 1008 454 1003 q 431 1013 439 1014 q 415 1009 428 1013 q 400 1006 403 1006 q 383 1006 397 1006 q 365 1004 368 1006 q 344 999 354 1003 q 325 990 335 996 q 314 981 321 988 q 299 967 307 975 q 285 953 292 960 q 275 942 278 946 q 242 890 257 917 q 204 840 226 863 q 188 822 199 833 q 165 797 176 811 q 145 771 154 783 q 135 750 136 758 z "},"2":{"ha":929,"x_min":68,"x_max":864,"o":"m 379 -36 q 294 -36 336 -36 q 207 -31 251 -36 q 165 -24 186 -28 q 124 -10 143 -21 q 102 9 111 -3 q 89 33 93 21 q 78 101 79 67 q 78 171 78 136 q 83 225 78 199 q 103 275 88 251 q 136 306 115 293 q 178 331 157 319 q 204 345 183 335 q 248 368 225 356 q 292 392 271 381 q 319 407 313 403 q 406 462 364 432 q 478 532 449 492 q 513 591 499 560 q 531 656 528 622 q 522 739 535 707 q 487 784 508 771 q 441 792 465 797 q 400 767 417 788 q 379 711 383 747 q 393 625 375 675 q 402 601 397 614 q 401 576 407 588 q 373 556 396 564 q 335 544 350 547 q 278 534 307 538 q 222 525 250 531 q 192 516 210 522 q 156 505 174 510 q 125 501 139 500 q 106 515 111 503 q 91 550 97 528 q 79 596 85 572 q 71 643 74 619 q 68 682 68 667 q 99 833 68 765 q 182 951 129 901 q 307 1026 235 1000 q 463 1053 379 1053 q 601 1035 536 1053 q 717 981 667 1017 q 801 892 768 946 q 846 769 835 839 q 841 639 857 704 q 801 511 825 574 q 719 374 771 436 q 665 321 694 346 q 608 269 636 296 q 635 273 615 271 q 678 277 656 275 q 720 281 700 279 q 747 283 740 282 q 803 283 776 285 q 833 265 824 279 q 844 238 843 251 q 849 203 846 228 q 856 149 853 178 q 861 94 858 119 q 864 60 864 69 q 854 19 864 38 q 829 -3 846 4 q 780 -15 814 -10 q 707 -22 746 -19 q 633 -27 668 -25 q 581 -29 597 -29 q 481 -33 531 -32 q 379 -36 431 -35 m 126 624 q 145 620 133 615 q 153 635 157 625 q 153 646 153 638 q 154 657 154 654 q 152 703 153 681 q 157 749 151 725 q 166 777 158 758 q 183 815 174 796 q 203 852 193 835 q 219 876 213 869 q 231 889 222 881 q 250 907 240 897 q 269 925 260 917 q 282 936 278 933 q 297 945 289 942 q 314 953 306 949 q 335 971 326 960 q 332 989 344 982 q 312 988 325 993 q 292 978 299 983 q 272 967 282 972 q 254 956 263 963 q 242 944 251 953 q 221 926 232 936 q 200 908 210 917 q 188 897 190 900 q 149 837 164 871 q 122 769 135 803 q 117 750 118 760 q 115 729 115 740 q 115 715 115 725 q 116 694 115 706 q 117 672 117 682 q 119 658 118 663 q 122 641 121 654 q 126 624 124 628 z "},"3":{"ha":893,"x_min":53,"x_max":832,"o":"m 528 -36 q 445 -50 488 -47 q 361 -51 403 -53 q 263 -46 313 -51 q 167 -25 213 -40 q 117 -7 142 -18 q 75 24 92 4 q 60 72 60 40 q 69 140 61 104 q 91 210 78 176 q 115 263 104 243 q 128 282 122 272 q 146 299 135 292 q 158 303 149 301 q 172 304 168 304 q 178 301 175 304 q 219 292 199 299 q 258 283 239 286 q 338 269 293 276 q 424 262 382 261 q 497 275 465 263 q 538 321 529 288 q 533 358 543 344 q 503 378 522 372 q 462 385 485 385 q 421 383 439 386 q 388 378 410 382 q 340 372 365 375 q 293 367 315 368 q 261 368 271 365 q 247 381 251 371 q 238 403 242 390 q 234 428 235 415 q 232 449 233 440 q 230 469 232 456 q 227 499 228 483 q 226 528 226 514 q 231 549 226 542 q 247 560 235 556 q 274 568 260 565 q 303 572 289 571 q 328 575 318 574 q 383 585 356 579 q 436 600 410 590 q 492 642 482 618 q 487 683 501 665 q 440 706 472 700 q 368 693 407 711 q 292 644 325 674 q 267 624 281 633 q 239 615 254 615 q 205 632 226 615 q 161 670 183 649 q 120 712 139 692 q 93 740 101 732 q 71 761 81 753 q 57 780 61 769 q 57 804 53 790 q 76 839 61 818 q 150 917 110 882 q 238 981 190 953 q 393 1033 308 1024 q 557 1015 478 1042 q 652 970 607 999 q 729 904 697 942 q 784 808 765 863 q 801 699 803 754 q 775 593 799 643 q 701 510 751 543 q 711 506 707 507 q 721 501 715 504 q 806 422 781 472 q 831 314 832 371 q 808 199 831 257 q 747 97 785 142 q 649 14 707 49 q 528 -36 592 -21 m 115 794 q 129 790 119 789 q 142 799 139 792 q 153 816 144 804 q 174 840 163 828 q 194 862 185 851 q 210 876 204 872 q 229 889 219 883 q 247 903 239 894 q 260 910 250 906 q 280 922 269 915 q 300 933 290 928 q 313 940 310 938 q 324 943 315 942 q 336 946 333 944 q 348 949 343 947 q 360 953 353 951 q 378 968 374 956 q 369 985 382 981 q 352 985 361 988 q 335 979 343 982 q 310 974 322 976 q 286 964 297 971 q 253 948 271 954 q 222 929 236 942 q 216 924 219 926 q 210 919 213 922 q 171 888 188 907 q 139 849 154 869 q 131 835 138 846 q 124 822 125 825 q 115 808 119 817 q 115 794 111 800 z "},"4":{"ha":1165,"x_min":65,"x_max":1110,"o":"m 938 -14 q 891 -19 925 -17 q 819 -25 857 -22 q 747 -29 781 -28 q 699 -29 713 -31 q 673 -26 686 -29 q 650 -15 660 -24 q 626 26 635 -3 q 613 89 618 56 q 605 155 607 122 q 601 207 603 188 q 599 263 600 235 q 596 318 597 290 q 518 317 557 319 q 440 311 479 314 q 325 301 382 306 q 210 303 268 296 q 153 317 182 306 q 108 353 124 329 q 77 442 83 393 q 69 538 71 490 l 69 650 q 69 700 69 671 q 67 757 68 729 q 67 808 67 785 q 67 839 67 831 q 66 872 67 847 q 65 925 65 897 q 65 978 65 953 q 67 1011 65 1003 q 83 1046 69 1033 q 117 1063 99 1057 q 154 1071 135 1068 q 253 1085 203 1082 q 353 1086 303 1088 q 389 1083 371 1086 q 422 1074 407 1081 q 458 1036 447 1063 q 467 1010 465 1024 q 469 982 469 996 q 469 908 471 961 q 465 797 467 856 q 463 685 463 738 q 469 613 464 632 q 485 602 472 601 q 510 604 499 603 q 551 608 531 606 q 594 610 572 610 q 611 875 597 744 q 621 956 615 915 q 639 1036 626 996 q 653 1060 643 1050 q 683 1072 661 1067 q 717 1075 706 1076 q 776 1074 738 1074 q 853 1071 814 1074 q 928 1061 893 1068 q 978 1039 963 1054 q 993 999 993 1024 q 994 944 994 983 q 992 855 993 906 q 989 748 990 804 q 986 644 988 692 q 1024 650 1006 647 q 1051 653 1043 653 q 1073 649 1063 653 q 1090 636 1083 644 q 1099 617 1097 628 q 1103 596 1101 607 q 1105 560 1104 586 q 1107 503 1106 533 q 1109 447 1108 474 q 1110 411 1110 421 q 1106 379 1110 396 q 1092 354 1103 363 q 1072 347 1085 350 q 1045 342 1060 344 q 1016 340 1031 340 q 993 339 1001 339 q 994 250 994 294 q 996 161 994 206 q 997 137 996 154 q 998 99 997 119 q 999 61 999 79 q 999 38 999 43 q 983 4 996 15 q 961 -8 974 -4 q 938 -14 949 -11 m 149 622 q 166 626 157 618 q 168 642 175 635 q 165 685 167 653 q 163 752 164 717 q 162 819 163 788 q 161 863 161 851 q 161 888 161 871 q 161 926 161 906 q 163 963 161 946 q 167 988 164 981 q 172 994 168 990 q 179 1000 176 999 q 187 1001 182 1001 q 194 1001 192 1001 q 205 1002 200 1001 q 215 1003 210 1003 q 225 1004 218 1003 q 235 1004 232 1006 q 253 1008 243 1001 q 268 1024 264 1014 q 258 1044 276 1039 q 241 1046 250 1049 q 222 1042 232 1043 q 197 1039 210 1039 q 171 1035 183 1039 q 147 1017 161 1031 q 131 992 133 1003 q 126 973 128 988 q 122 954 124 958 q 122 918 122 943 q 122 865 122 893 q 124 810 122 836 q 126 775 125 785 q 131 719 131 747 q 138 663 131 690 q 140 641 139 656 q 149 622 142 626 z "},"5":{"ha":900,"x_min":54,"x_max":843,"o":"m 469 8 q 387 3 429 1 q 304 10 344 4 q 210 33 256 17 q 125 78 164 50 q 94 104 108 89 q 72 139 81 119 q 63 221 54 176 q 89 303 71 265 q 97 322 92 310 q 108 347 101 335 q 122 371 114 360 q 136 385 129 382 q 167 389 146 389 q 211 386 188 389 q 256 380 235 383 q 289 375 278 376 q 346 373 317 372 q 399 386 375 374 q 430 417 418 397 q 433 456 442 436 q 419 468 429 464 q 395 474 408 472 q 368 476 382 476 q 344 476 354 476 q 323 476 339 476 q 290 476 307 476 q 256 475 272 475 q 235 475 240 475 q 205 476 219 475 q 176 485 190 478 q 145 519 157 494 q 127 576 133 544 q 118 638 121 607 q 114 690 115 669 q 113 721 113 699 q 113 768 113 743 q 113 816 113 793 q 114 847 114 839 q 119 888 115 863 q 128 941 122 914 q 142 992 133 968 q 163 1026 151 1015 q 208 1044 181 1042 q 276 1049 226 1047 q 383 1050 326 1050 q 490 1050 440 1050 q 558 1050 540 1050 q 647 1052 603 1051 q 733 1043 690 1053 q 765 1030 750 1039 q 792 1007 781 1021 q 805 976 801 993 q 810 943 808 960 q 806 861 813 901 q 802 831 804 850 q 797 794 800 813 q 786 758 793 775 q 769 736 779 742 q 722 724 754 728 q 653 718 690 719 q 583 717 617 717 q 532 718 549 718 q 506 719 525 718 q 466 720 488 719 q 426 721 444 721 q 400 719 407 721 q 397 707 399 715 q 394 690 396 699 q 392 674 393 682 q 393 663 392 667 q 419 662 400 661 q 458 664 438 663 q 497 667 478 665 q 522 669 515 669 q 601 670 561 672 q 678 653 642 668 q 735 621 708 640 q 781 575 761 601 q 835 444 826 514 q 823 306 843 374 q 758 178 803 238 q 654 78 714 118 q 566 33 614 50 q 469 8 518 17 z "},"6":{"ha":929,"x_min":58,"x_max":882,"o":"m 550 7 q 382 15 467 -7 q 231 89 297 36 q 185 130 207 108 q 143 176 163 151 q 106 237 122 204 q 82 304 90 269 q 60 458 63 379 q 74 615 58 538 q 124 762 89 692 q 211 888 158 832 q 222 897 214 890 q 238 913 229 904 q 255 928 247 921 q 265 939 263 936 q 362 1003 313 972 q 465 1051 411 1033 q 489 1057 476 1056 q 513 1054 501 1058 q 543 1032 526 1050 q 576 992 560 1014 q 606 948 592 969 q 626 914 619 926 q 645 878 636 897 q 650 840 654 860 q 639 821 647 829 q 617 802 629 810 q 590 788 604 794 q 525 748 557 768 q 465 703 493 728 q 478 704 472 704 q 492 704 485 704 q 565 703 528 707 q 639 690 603 699 q 687 674 663 683 q 733 653 711 665 q 800 599 769 631 q 850 528 831 567 q 881 401 878 467 q 875 312 882 357 q 851 224 868 267 q 806 145 833 182 q 742 82 779 108 q 651 34 700 51 q 550 7 601 17 m 140 631 q 152 619 140 619 q 168 628 164 618 q 172 638 169 631 q 176 655 174 646 q 180 672 178 664 q 183 682 182 679 q 190 697 185 685 q 197 711 196 708 q 213 740 200 721 q 240 781 225 760 q 267 820 254 801 q 286 847 281 839 q 302 862 293 856 q 319 876 311 868 q 333 890 326 883 q 350 901 340 897 q 358 907 351 903 q 371 916 364 911 q 383 925 378 921 q 392 931 389 929 q 409 932 401 928 q 419 947 417 936 q 420 963 424 956 q 407 971 417 969 q 393 969 400 972 q 379 963 386 965 q 354 944 365 954 q 329 928 343 935 q 311 913 318 922 q 294 897 304 904 q 272 881 283 889 q 253 863 261 874 q 214 811 233 835 q 201 793 210 806 q 185 766 193 781 q 169 738 176 751 q 161 719 163 725 q 156 701 160 714 q 149 675 153 689 q 143 649 146 661 q 140 631 140 636 m 447 283 q 485 274 465 276 q 522 278 504 272 q 554 300 540 285 q 578 335 568 315 q 591 377 588 356 q 592 418 594 399 q 551 484 585 463 q 467 494 517 506 q 424 458 440 488 q 403 394 407 429 q 409 326 399 358 q 447 283 419 294 z "},"7":{"ha":889,"x_min":39,"x_max":850,"o":"m 513 -10 q 471 -15 494 -18 q 423 -10 457 -15 q 351 1 389 -6 q 281 15 314 8 q 233 26 247 22 q 196 79 197 40 q 201 124 194 101 q 215 167 208 146 q 323 443 263 308 q 454 708 383 578 q 457 714 456 711 q 461 721 458 717 q 362 699 413 706 q 261 689 311 692 q 197 686 229 686 q 133 693 165 686 q 95 706 114 696 q 65 732 76 717 q 50 767 54 747 q 41 836 43 801 q 39 906 39 871 q 41 943 39 922 q 49 983 43 964 q 64 1015 54 1001 q 90 1033 74 1029 q 113 1033 97 1035 q 136 1029 129 1032 q 140 1028 139 1028 q 144 1026 142 1028 q 360 1019 253 1021 q 575 1024 467 1017 q 592 1024 579 1024 q 619 1026 604 1025 q 647 1027 633 1026 q 664 1028 660 1028 q 728 1034 696 1031 q 790 1029 760 1038 q 817 1011 804 1025 q 831 974 825 1000 q 842 920 838 949 q 848 865 846 892 q 850 824 850 838 q 850 801 850 813 q 844 778 850 789 q 831 758 842 772 q 809 729 821 744 q 787 700 797 714 q 774 681 776 686 q 749 631 758 657 q 728 578 739 604 q 643 333 681 456 q 569 85 606 211 q 558 49 564 67 q 543 17 551 32 q 513 -10 532 -3 m 115 756 q 133 749 122 747 q 149 763 144 751 q 149 774 151 768 q 144 785 146 779 q 142 808 144 790 q 139 831 140 825 q 135 852 135 842 q 133 874 135 863 q 129 912 132 893 q 135 949 126 931 q 149 953 138 956 q 168 950 160 951 q 188 951 172 950 q 207 950 203 951 q 220 953 214 949 q 229 962 226 957 q 231 973 232 967 q 224 982 231 979 q 197 985 217 985 q 171 985 178 985 q 147 985 164 986 q 122 981 129 985 q 104 961 111 974 q 94 935 97 949 q 94 910 93 928 q 97 885 96 892 q 100 875 99 879 q 100 865 101 871 q 97 821 100 843 q 101 778 94 799 q 108 767 103 775 q 115 756 113 758 z "},"8":{"ha":1075,"x_min":54,"x_max":1019,"o":"m 742 4 q 671 -6 710 -1 q 591 -11 632 -10 q 510 -12 550 -12 q 436 -8 469 -11 q 347 2 386 -4 q 265 25 307 8 q 156 83 200 50 q 83 169 111 115 q 59 254 64 208 q 62 346 54 300 q 89 435 69 392 q 139 511 108 478 q 238 579 172 549 q 217 594 226 586 q 199 611 207 603 q 156 676 172 640 q 134 751 140 713 q 132 828 128 789 q 153 900 136 867 q 213 974 175 946 q 306 1022 251 1001 q 375 1042 342 1036 q 451 1050 408 1047 q 513 1053 479 1053 q 581 1051 547 1053 q 649 1047 615 1050 q 708 1040 682 1044 q 783 1022 747 1033 q 842 993 818 1010 q 889 944 871 974 q 928 860 914 904 q 942 772 943 817 q 923 683 940 726 q 867 597 906 639 q 858 589 863 593 q 847 581 853 585 q 894 556 874 569 q 929 528 914 543 q 996 426 975 479 q 1018 321 1017 374 q 1003 216 1019 268 q 956 117 986 164 q 900 58 933 85 q 829 25 871 39 q 742 4 788 11 m 242 654 q 253 654 247 651 q 264 661 260 657 q 267 671 268 665 q 261 681 267 676 q 246 701 254 683 q 235 726 238 719 q 224 760 228 740 q 221 801 221 781 q 225 842 221 822 q 238 872 229 861 q 285 914 256 896 q 300 926 292 919 q 319 931 308 932 q 337 935 329 929 q 347 947 344 940 q 349 961 350 954 q 338 971 347 968 q 298 965 322 976 q 261 943 274 953 q 231 917 246 931 q 204 886 215 903 q 181 776 176 836 q 184 746 182 761 q 193 717 186 731 q 201 701 196 711 q 214 682 207 692 q 228 664 221 672 q 242 654 236 656 m 453 694 q 486 648 458 664 q 547 630 514 632 q 609 642 579 628 q 647 686 639 656 q 650 753 656 719 q 617 803 644 785 q 558 824 590 821 q 497 813 526 826 q 458 771 468 800 q 453 694 446 735 m 446 322 q 492 272 457 288 q 565 260 526 257 q 634 285 603 264 q 672 343 665 306 q 668 422 681 383 q 624 474 658 457 q 550 489 589 490 q 478 468 511 488 q 439 413 446 449 q 446 322 431 368 z "},"9":{"ha":933,"x_min":51,"x_max":876,"o":"m 307 -22 q 292 -25 301 -22 q 274 -28 283 -28 q 256 -23 265 -28 q 240 -6 247 -18 q 226 28 233 7 q 210 75 218 50 q 195 126 203 100 q 182 171 188 151 q 173 207 175 193 q 175 231 171 221 q 191 246 179 240 q 226 256 203 251 q 289 264 249 260 q 369 278 329 268 q 440 307 410 289 q 469 357 469 325 q 456 355 463 356 q 442 354 449 354 q 296 369 369 350 q 247 385 271 376 q 201 407 224 393 q 135 461 165 429 q 85 532 104 493 q 63 593 69 561 q 53 657 56 625 q 59 747 51 701 q 84 835 67 793 q 128 913 101 876 q 192 976 156 950 q 283 1025 233 1007 q 383 1051 333 1043 q 552 1044 467 1067 q 704 969 638 1022 q 750 928 728 950 q 790 883 772 907 q 827 822 811 854 q 853 754 843 790 q 874 600 872 679 q 860 444 876 521 q 810 298 844 368 q 722 172 776 228 q 640 97 682 129 q 549 42 599 65 q 441 3 500 18 q 307 -22 382 -12 m 136 618 q 154 621 146 615 q 160 635 163 626 q 155 660 157 643 q 153 697 153 678 q 154 733 153 715 q 158 758 156 750 q 162 769 158 761 q 169 785 165 776 q 175 803 172 794 q 179 814 178 811 q 192 838 185 826 q 207 861 199 850 q 213 867 208 863 q 219 872 218 871 q 229 884 222 875 q 239 896 236 893 q 256 907 246 903 q 274 918 265 911 q 298 933 285 926 q 326 943 311 940 q 349 958 342 946 q 346 978 357 969 q 320 981 338 985 q 292 972 303 976 q 274 963 286 969 q 250 949 263 957 q 226 934 238 942 q 210 924 214 926 q 198 912 203 918 q 189 899 193 906 q 177 886 183 892 q 167 874 171 881 q 151 849 157 863 q 139 822 144 836 q 133 807 136 818 q 126 784 129 796 q 119 761 122 772 q 117 744 117 750 q 115 693 114 719 q 125 643 115 667 q 128 628 128 636 q 136 618 129 621 m 343 640 q 384 574 350 596 q 467 565 418 553 q 510 601 493 571 q 531 665 526 631 q 524 732 535 700 q 486 776 514 764 q 450 785 469 783 q 413 781 431 788 q 379 758 393 774 q 356 724 365 743 q 344 682 347 704 q 343 640 340 660 z "},"\u0000":{"ha":0,"x_min":0,"x_max":0,"o":""},"\r":{"ha":347,"x_min":0,"x_max":0,"o":""}," ":{"ha":347,"x_min":0,"x_max":0,"o":""},"!":{"ha":547,"x_min":71,"x_max":479,"o":"m 379 272 q 338 269 367 271 q 279 268 310 268 q 220 268 249 268 q 179 268 192 268 q 153 269 167 268 q 131 278 140 271 q 107 309 115 288 q 93 356 99 331 q 85 404 88 381 q 82 442 83 428 q 72 688 71 565 q 92 932 74 810 q 101 992 96 963 q 118 1050 106 1022 q 133 1067 125 1061 q 164 1076 142 1072 q 197 1079 186 1079 q 256 1078 218 1078 q 334 1076 294 1078 q 408 1069 374 1074 q 458 1053 443 1064 q 474 1024 471 1042 q 474 868 479 946 q 460 713 468 790 q 443 557 451 635 q 438 401 435 479 q 438 384 438 397 q 440 356 439 371 q 440 327 440 340 q 440 310 440 314 q 435 297 439 303 q 425 286 432 290 q 403 276 415 279 q 379 272 392 274 m 115 729 q 131 722 119 718 q 143 738 143 726 q 147 801 142 769 q 156 864 151 832 q 156 880 157 872 q 158 896 156 888 q 161 911 158 900 q 167 935 164 922 q 172 958 169 947 q 175 974 174 969 q 178 992 178 983 q 183 1010 179 1001 q 200 1014 188 1011 q 217 1015 213 1017 q 233 1017 228 1015 q 250 1035 250 1021 q 233 1050 250 1050 q 217 1049 228 1050 q 197 1044 207 1047 q 176 1039 186 1042 q 163 1032 167 1036 q 147 1008 151 1022 q 138 979 142 993 q 122 923 128 951 q 118 865 117 894 q 117 827 119 846 q 114 789 114 808 q 113 776 114 785 q 113 758 113 768 q 113 740 113 749 q 115 729 114 732 m 308 -24 q 272 -23 294 -24 q 227 -19 250 -22 q 184 -8 204 -15 q 154 10 164 -1 q 143 35 147 18 q 136 70 139 51 q 133 106 133 89 q 133 135 132 124 q 141 165 135 150 q 160 190 147 179 q 188 201 167 196 q 217 208 208 207 q 278 217 247 214 q 340 217 308 219 q 372 213 356 215 q 403 204 389 211 q 424 176 417 196 q 435 134 432 157 q 438 88 439 111 q 435 49 436 65 q 431 27 433 38 q 421 8 428 17 q 401 -7 413 -1 q 379 -15 390 -12 q 344 -21 361 -19 q 308 -24 326 -22 m 165 54 q 172 48 167 49 q 183 49 178 47 q 192 56 189 51 q 192 67 194 61 q 190 77 189 69 q 192 88 192 85 q 191 99 192 92 q 190 115 190 107 q 191 131 190 124 q 194 142 192 139 q 208 146 197 146 q 222 147 218 146 q 236 161 233 151 q 229 178 239 171 q 208 178 222 182 q 186 171 193 174 q 163 140 169 163 q 160 122 161 133 q 160 97 160 110 q 162 72 161 85 q 165 54 163 60 z "},"\"":{"ha":617,"x_min":44,"x_max":574,"o":"m 450 675 q 436 674 446 675 q 417 673 426 674 q 398 672 407 672 q 385 675 389 672 q 374 695 378 679 q 367 718 369 711 q 353 778 358 749 q 343 839 347 808 q 331 981 332 907 q 345 1013 331 1004 q 379 1024 360 1021 q 428 1029 401 1026 q 481 1032 456 1032 q 529 1029 507 1032 q 564 1018 551 1026 q 573 997 574 1011 q 569 971 572 982 q 555 858 560 914 q 551 743 550 801 q 552 721 551 738 q 550 700 553 704 q 535 683 546 689 q 508 676 524 678 q 478 675 493 675 q 450 675 463 675 m 164 675 q 149 674 158 675 q 130 673 140 674 q 110 672 119 672 q 97 675 101 672 q 87 695 90 679 q 81 718 83 711 q 66 777 71 747 q 57 838 61 807 q 48 909 51 874 q 44 981 44 944 q 59 1013 44 1004 q 93 1024 74 1021 q 142 1028 115 1026 q 195 1031 169 1031 q 242 1029 221 1032 q 276 1018 264 1026 q 287 997 288 1011 q 283 969 286 982 q 269 856 274 913 q 265 743 264 800 q 265 721 265 738 q 264 699 265 704 q 248 683 260 688 q 222 676 236 678 q 191 675 207 675 q 164 675 175 675 m 389 799 q 402 797 394 794 q 413 806 410 799 q 412 829 414 813 q 410 853 410 846 q 409 874 410 858 q 408 907 408 890 q 408 939 408 924 q 410 961 408 954 q 422 970 418 964 q 424 982 425 976 q 418 991 424 988 q 404 992 413 994 q 386 984 394 989 q 375 969 378 979 q 372 961 374 968 q 369 951 369 954 q 369 935 369 947 q 368 911 368 924 q 368 887 368 899 q 369 871 368 875 q 373 855 371 865 q 377 833 375 844 q 382 813 379 822 q 389 799 385 803 m 108 807 q 115 800 110 800 q 126 803 121 800 q 133 810 131 806 q 132 821 136 815 q 130 849 131 829 q 128 889 129 868 q 128 928 128 910 q 131 956 129 947 q 143 971 142 961 q 140 983 144 979 q 126 986 135 988 q 110 980 118 985 q 97 967 101 975 q 94 952 94 963 q 94 931 94 942 q 95 909 94 919 q 96 893 96 899 q 97 876 96 889 q 101 850 99 864 q 105 824 103 836 q 108 807 107 811 z "},"«":{"ha":617,"x_min":44,"x_max":574,"o":"m 450 675 q 436 674 446 675 q 417 673 426 674 q 398 672 407 672 q 385 675 389 672 q 374 695 378 679 q 367 718 369 711 q 353 778 358 749 q 343 839 347 808 q 331 981 332 907 q 345 1013 331 1004 q 379 1024 360 1021 q 428 1029 401 1026 q 481 1032 456 1032 q 529 1029 507 1032 q 564 1018 551 1026 q 573 997 574 1011 q 569 971 572 982 q 555 858 560 914 q 551 743 550 801 q 552 721 551 738 q 550 700 553 704 q 535 683 546 689 q 508 676 524 678 q 478 675 493 675 q 450 675 463 675 m 164 675 q 149 674 158 675 q 130 673 140 674 q 110 672 119 672 q 97 675 101 672 q 87 695 90 679 q 81 718 83 711 q 66 777 71 747 q 57 838 61 807 q 48 909 51 874 q 44 981 44 944 q 59 1013 44 1004 q 93 1024 74 1021 q 142 1028 115 1026 q 195 1031 169 1031 q 242 1029 221 1032 q 276 1018 264 1026 q 287 997 288 1011 q 283 969 286 982 q 269 856 274 913 q 265 743 264 800 q 265 721 265 738 q 264 699 265 704 q 248 683 260 688 q 222 676 236 678 q 191 675 207 675 q 164 675 175 675 m 389 799 q 402 797 394 794 q 413 806 410 799 q 412 829 414 813 q 410 853 410 846 q 409 874 410 858 q 408 907 408 890 q 408 939 408 924 q 410 961 408 954 q 422 970 418 964 q 424 982 425 976 q 418 991 424 988 q 404 992 413 994 q 386 984 394 989 q 375 969 378 979 q 372 961 374 968 q 369 951 369 954 q 369 935 369 947 q 368 911 368 924 q 368 887 368 899 q 369 871 368 875 q 373 855 371 865 q 377 833 375 844 q 382 813 379 822 q 389 799 385 803 m 108 807 q 115 800 110 800 q 126 803 121 800 q 133 810 131 806 q 132 821 136 815 q 130 849 131 829 q 128 889 129 868 q 128 928 128 910 q 131 956 129 947 q 143 971 142 961 q 140 983 144 979 q 126 986 135 988 q 110 980 118 985 q 97 967 101 975 q 94 952 94 963 q 94 931 94 942 q 95 909 94 919 q 96 893 96 899 q 97 876 96 889 q 101 850 99 864 q 105 824 103 836 q 108 807 107 811 z "},"»":{"ha":617,"x_min":44,"x_max":574,"o":"m 450 675 q 436 674 446 675 q 417 673 426 674 q 398 672 407 672 q 385 675 389 672 q 374 695 378 679 q 367 718 369 711 q 353 778 358 749 q 343 839 347 808 q 331 981 332 907 q 345 1013 331 1004 q 379 1024 360 1021 q 428 1029 401 1026 q 481 1032 456 1032 q 529 1029 507 1032 q 564 1018 551 1026 q 573 997 574 1011 q 569 971 572 982 q 555 858 560 914 q 551 743 550 801 q 552 721 551 738 q 550 700 553 704 q 535 683 546 689 q 508 676 524 678 q 478 675 493 675 q 450 675 463 675 m 164 675 q 149 674 158 675 q 130 673 140 674 q 110 672 119 672 q 97 675 101 672 q 87 695 90 679 q 81 718 83 711 q 66 777 71 747 q 57 838 61 807 q 48 909 51 874 q 44 981 44 944 q 59 1013 44 1004 q 93 1024 74 1021 q 142 1028 115 1026 q 195 1031 169 1031 q 242 1029 221 1032 q 276 1018 264 1026 q 287 997 288 1011 q 283 969 286 982 q 269 856 274 913 q 265 743 264 800 q 265 721 265 738 q 264 699 265 704 q 248 683 260 688 q 222 676 236 678 q 191 675 207 675 q 164 675 175 675 m 389 799 q 402 797 394 794 q 413 806 410 799 q 412 829 414 813 q 410 853 410 846 q 409 874 410 858 q 408 907 408 890 q 408 939 408 924 q 410 961 408 954 q 422 970 418 964 q 424 982 425 976 q 418 991 424 988 q 404 992 413 994 q 386 984 394 989 q 375 969 378 979 q 372 961 374 968 q 369 951 369 954 q 369 935 369 947 q 368 911 368 924 q 368 887 368 899 q 369 871 368 875 q 373 855 371 865 q 377 833 375 844 q 382 813 379 822 q 389 799 385 803 m 108 807 q 115 800 110 800 q 126 803 121 800 q 133 810 131 806 q 132 821 136 815 q 130 849 131 829 q 128 889 129 868 q 128 928 128 910 q 131 956 129 947 q 143 971 142 961 q 140 983 144 979 q 126 986 135 988 q 110 980 118 985 q 97 967 101 975 q 94 952 94 963 q 94 931 94 942 q 95 909 94 919 q 96 893 96 899 q 97 876 96 889 q 101 850 99 864 q 105 824 103 836 q 108 807 107 811 z "},"„":{"ha":617,"x_min":44,"x_max":574,"o":"m 450 675 q 436 674 446 675 q 417 673 426 674 q 398 672 407 672 q 385 675 389 672 q 374 695 378 679 q 367 718 369 711 q 353 778 358 749 q 343 839 347 808 q 331 981 332 907 q 345 1013 331 1004 q 379 1024 360 1021 q 428 1029 401 1026 q 481 1032 456 1032 q 529 1029 507 1032 q 564 1018 551 1026 q 573 997 574 1011 q 569 971 572 982 q 555 858 560 914 q 551 743 550 801 q 552 721 551 738 q 550 700 553 704 q 535 683 546 689 q 508 676 524 678 q 478 675 493 675 q 450 675 463 675 m 164 675 q 149 674 158 675 q 130 673 140 674 q 110 672 119 672 q 97 675 101 672 q 87 695 90 679 q 81 718 83 711 q 66 777 71 747 q 57 838 61 807 q 48 909 51 874 q 44 981 44 944 q 59 1013 44 1004 q 93 1024 74 1021 q 142 1028 115 1026 q 195 1031 169 1031 q 242 1029 221 1032 q 276 1018 264 1026 q 287 997 288 1011 q 283 969 286 982 q 269 856 274 913 q 265 743 264 800 q 265 721 265 738 q 264 699 265 704 q 248 683 260 688 q 222 676 236 678 q 191 675 207 675 q 164 675 175 675 m 389 799 q 402 797 394 794 q 413 806 410 799 q 412 829 414 813 q 410 853 410 846 q 409 874 410 858 q 408 907 408 890 q 408 939 408 924 q 410 961 408 954 q 422 970 418 964 q 424 982 425 976 q 418 991 424 988 q 404 992 413 994 q 386 984 394 989 q 375 969 378 979 q 372 961 374 968 q 369 951 369 954 q 369 935 369 947 q 368 911 368 924 q 368 887 368 899 q 369 871 368 875 q 373 855 371 865 q 377 833 375 844 q 382 813 379 822 q 389 799 385 803 m 108 807 q 115 800 110 800 q 126 803 121 800 q 133 810 131 806 q 132 821 136 815 q 130 849 131 829 q 128 889 129 868 q 128 928 128 910 q 131 956 129 947 q 143 971 142 961 q 140 983 144 979 q 126 986 135 988 q 110 980 118 985 q 97 967 101 975 q 94 952 94 963 q 94 931 94 942 q 95 909 94 919 q 96 893 96 899 q 97 876 96 889 q 101 850 99 864 q 105 824 103 836 q 108 807 107 811 z "},"‟":{"ha":617,"x_min":44,"x_max":574,"o":"m 450 675 q 436 674 446 675 q 417 673 426 674 q 398 672 407 672 q 385 675 389 672 q 374 695 378 679 q 367 718 369 711 q 353 778 358 749 q 343 839 347 808 q 331 981 332 907 q 345 1013 331 1004 q 379 1024 360 1021 q 428 1029 401 1026 q 481 1032 456 1032 q 529 1029 507 1032 q 564 1018 551 1026 q 573 997 574 1011 q 569 971 572 982 q 555 858 560 914 q 551 743 550 801 q 552 721 551 738 q 550 700 553 704 q 535 683 546 689 q 508 676 524 678 q 478 675 493 675 q 450 675 463 675 m 164 675 q 149 674 158 675 q 130 673 140 674 q 110 672 119 672 q 97 675 101 672 q 87 695 90 679 q 81 718 83 711 q 66 777 71 747 q 57 838 61 807 q 48 909 51 874 q 44 981 44 944 q 59 1013 44 1004 q 93 1024 74 1021 q 142 1028 115 1026 q 195 1031 169 1031 q 242 1029 221 1032 q 276 1018 264 1026 q 287 997 288 1011 q 283 969 286 982 q 269 856 274 913 q 265 743 264 800 q 265 721 265 738 q 264 699 265 704 q 248 683 260 688 q 222 676 236 678 q 191 675 207 675 q 164 675 175 675 m 389 799 q 402 797 394 794 q 413 806 410 799 q 412 829 414 813 q 410 853 410 846 q 409 874 410 858 q 408 907 408 890 q 408 939 408 924 q 410 961 408 954 q 422 970 418 964 q 424 982 425 976 q 418 991 424 988 q 404 992 413 994 q 386 984 394 989 q 375 969 378 979 q 372 961 374 968 q 369 951 369 954 q 369 935 369 947 q 368 911 368 924 q 368 887 368 899 q 369 871 368 875 q 373 855 371 865 q 377 833 375 844 q 382 813 379 822 q 389 799 385 803 m 108 807 q 115 800 110 800 q 126 803 121 800 q 133 810 131 806 q 132 821 136 815 q 130 849 131 829 q 128 889 129 868 q 128 928 128 910 q 131 956 129 947 q 143 971 142 961 q 140 983 144 979 q 126 986 135 988 q 110 980 118 985 q 97 967 101 975 q 94 952 94 963 q 94 931 94 942 q 95 909 94 919 q 96 893 96 899 q 97 876 96 889 q 101 850 99 864 q 105 824 103 836 q 108 807 107 811 z "},"#":{"ha":1269,"x_min":53,"x_max":1217,"o":"m 876 -39 q 858 -47 868 -46 q 836 -47 847 -47 q 797 -44 825 -47 q 738 -35 769 -40 q 679 -26 707 -31 q 642 -18 651 -21 q 622 -10 632 -15 q 606 4 613 -6 q 596 47 597 18 q 598 106 594 75 q 606 167 601 138 q 614 215 611 197 q 616 228 615 222 q 618 242 617 235 q 561 240 590 240 q 503 239 532 239 q 490 181 496 210 q 479 125 485 153 q 474 103 478 119 q 467 69 471 88 q 460 34 464 50 q 456 13 457 18 q 448 -3 453 4 q 436 -15 443 -11 q 417 -23 428 -22 q 396 -24 407 -24 q 357 -19 385 -24 q 298 -11 329 -15 q 239 -2 267 -7 q 201 6 211 3 q 182 13 192 8 q 165 28 172 18 q 156 68 157 42 q 156 124 154 94 q 163 183 158 154 q 172 232 168 213 q 146 231 157 231 q 131 231 135 231 q 112 233 121 232 q 96 239 103 235 q 83 249 86 243 q 76 263 79 256 q 69 288 74 269 q 61 326 65 306 q 55 364 57 346 q 53 389 53 382 q 55 403 53 396 q 65 415 57 410 q 89 424 74 421 q 124 431 104 428 q 167 435 144 433 q 211 439 189 438 q 224 493 218 467 q 236 547 229 519 q 195 546 214 546 q 169 546 176 546 q 135 553 149 546 q 122 565 126 558 q 115 578 118 571 q 108 603 113 585 q 101 641 104 621 q 95 679 97 661 q 93 704 93 697 q 95 718 93 711 q 106 731 97 725 q 137 741 115 736 q 185 749 158 746 q 240 753 211 751 q 292 756 268 754 q 306 801 299 779 q 319 844 313 822 q 344 916 331 881 q 375 985 357 951 q 392 1003 382 997 q 419 1008 400 1008 q 446 1006 438 1008 q 493 993 463 1000 q 555 976 524 986 q 613 954 586 967 q 647 925 639 942 q 651 886 656 908 q 641 840 649 872 q 622 765 633 808 l 742 765 q 751 793 746 779 q 760 821 756 807 q 783 892 771 857 q 815 961 796 928 q 832 979 822 974 q 859 985 840 985 q 886 982 878 985 q 933 969 903 976 q 995 953 964 963 q 1053 931 1026 943 q 1088 901 1079 918 q 1092 863 1096 883 q 1083 822 1089 850 q 1067 756 1076 793 q 1121 752 1094 754 q 1174 746 1147 750 q 1199 739 1186 743 q 1211 723 1206 735 q 1215 704 1217 711 q 1216 673 1215 693 q 1216 632 1217 653 q 1209 593 1215 611 q 1188 567 1203 575 q 1169 560 1181 563 q 1147 557 1158 558 l 1015 557 q 999 490 1006 519 q 989 443 992 460 q 1062 440 1025 442 q 1133 431 1099 438 q 1147 428 1140 429 q 1158 424 1154 426 q 1171 408 1165 419 q 1176 390 1176 396 q 1176 359 1175 379 q 1176 317 1178 339 q 1169 278 1175 296 q 1147 251 1163 260 q 1107 243 1132 243 q 1049 242 1092 242 q 950 242 1006 242 q 934 172 942 207 q 919 101 926 138 q 915 79 918 96 q 908 44 911 63 q 901 10 904 26 q 896 -11 897 -6 q 888 -27 893 -19 q 876 -39 883 -35 m 343 757 q 353 742 340 744 q 372 750 365 739 q 380 765 375 754 q 389 788 385 775 q 397 811 393 800 q 401 828 400 822 q 404 853 404 840 q 407 878 404 865 q 417 908 411 893 q 429 938 422 924 q 436 938 431 939 q 444 935 442 938 q 458 928 449 928 q 475 934 467 929 q 488 947 483 939 q 486 963 492 956 q 465 972 481 969 q 439 975 449 975 q 413 965 422 975 q 389 927 396 950 q 375 882 382 904 q 370 863 372 872 q 361 846 368 853 q 346 815 350 833 q 346 781 342 796 q 346 768 347 776 q 343 757 344 760 m 546 450 q 602 451 574 451 q 660 451 631 451 q 685 558 671 506 q 674 557 678 557 q 667 557 669 557 q 618 555 643 556 q 569 554 593 554 q 556 496 561 521 q 547 460 550 471 l 546 450 z "},"$":{"ha":1000,"x_min":60,"x_max":950,"o":"m 578 -187 q 551 -189 571 -187 q 508 -191 531 -190 q 467 -192 486 -192 q 439 -192 447 -192 q 424 -191 432 -192 q 411 -187 417 -190 q 397 -174 403 -183 q 389 -155 392 -165 q 385 -135 386 -144 q 383 -118 383 -125 q 378 -46 378 -86 q 242 -17 306 -37 q 206 -3 231 -14 q 154 19 181 7 q 105 45 128 32 q 76 67 82 58 q 69 83 71 74 q 67 100 68 92 q 72 144 64 117 q 94 201 81 172 q 121 258 107 231 q 144 299 135 285 q 163 326 154 313 q 186 350 172 340 q 219 360 203 361 q 253 353 236 360 q 285 335 269 346 q 315 318 301 325 q 400 278 368 290 q 467 257 432 267 q 515 253 493 249 q 546 269 538 257 q 546 300 554 282 q 504 336 538 318 q 373 402 439 372 q 240 464 307 432 q 133 547 174 497 q 76 656 92 597 q 68 776 60 715 q 109 892 76 838 q 197 991 142 947 q 332 1058 253 1035 q 351 1063 342 1061 q 372 1068 361 1065 q 374 1115 372 1092 q 378 1161 375 1138 q 379 1176 378 1167 q 384 1197 381 1186 q 392 1216 388 1207 q 406 1229 397 1225 q 419 1233 411 1232 q 435 1235 426 1233 q 462 1234 442 1235 q 504 1233 482 1233 q 546 1231 526 1232 q 574 1229 565 1229 q 588 1227 581 1228 q 600 1224 594 1226 q 608 1214 608 1219 q 608 1194 610 1210 q 607 1175 607 1179 q 606 1121 606 1147 q 601 1067 606 1094 q 752 1024 678 1054 q 893 943 826 993 q 927 918 914 928 q 945 901 940 908 q 947 885 950 893 q 931 864 943 876 q 893 822 915 849 q 846 765 871 794 q 797 708 821 735 q 757 668 774 682 q 715 656 735 649 q 681 675 696 663 q 592 742 640 711 q 490 790 543 772 q 460 798 475 794 q 429 797 444 801 q 399 772 406 792 q 407 736 393 753 q 438 712 419 721 q 476 694 457 703 q 607 639 542 665 q 733 576 672 613 q 844 480 799 538 q 907 357 889 422 q 913 224 925 292 q 850 99 900 157 q 742 11 804 44 q 608 -37 679 -22 q 611 -85 611 -61 q 613 -133 611 -110 q 614 -152 613 -136 q 614 -171 615 -168 q 606 -182 611 -179 q 592 -185 600 -185 q 578 -187 585 -186 m 144 635 q 157 635 150 632 q 167 644 164 638 q 166 663 169 649 q 163 682 163 676 q 161 704 163 686 q 160 726 160 722 q 162 771 160 749 q 174 813 164 793 q 186 838 181 825 q 200 861 192 850 q 208 871 201 863 q 220 888 214 879 q 232 903 226 896 q 240 914 238 911 q 258 933 244 919 q 278 949 272 946 l 290 953 q 333 976 310 960 q 340 982 338 981 q 356 992 351 985 q 358 1006 360 999 q 349 1016 356 1013 q 331 1017 342 1019 q 315 1008 322 1014 q 300 997 308 1003 q 271 984 286 989 q 242 968 256 979 q 224 951 238 965 q 206 933 210 938 q 196 922 203 931 q 181 902 189 913 q 165 883 172 892 q 156 869 158 874 q 148 856 153 865 q 138 836 143 847 q 129 815 133 825 q 124 800 125 804 q 117 747 117 774 q 122 692 118 719 q 130 660 125 681 q 144 635 135 640 z "},"%":{"ha":1703,"x_min":49,"x_max":1653,"o":"m 814 -60 q 790 -62 803 -64 q 767 -58 778 -61 q 724 -44 754 -56 q 660 -21 694 -33 q 597 3 626 -8 q 556 21 567 15 q 535 35 544 28 q 519 54 525 43 q 517 101 513 71 q 531 163 521 131 q 553 226 542 196 q 572 275 565 257 q 588 317 579 296 q 604 357 596 338 q 463 301 540 314 q 310 303 385 288 q 174 363 236 318 q 82 481 113 407 q 52 613 56 543 q 64 747 49 682 q 192 954 92 874 q 345 1026 260 1010 q 510 1021 431 1042 q 654 945 590 1000 q 743 806 718 890 q 754 750 751 778 q 758 694 757 722 q 807 788 782 742 q 858 879 832 833 q 900 949 879 914 q 949 1014 921 983 q 971 1029 960 1025 q 1003 1028 982 1032 q 1032 1018 1024 1024 q 1083 994 1050 1008 q 1149 961 1115 979 q 1208 923 1182 943 q 1242 883 1235 903 q 1243 862 1244 872 q 1238 840 1242 851 q 1214 787 1232 825 q 1172 700 1196 749 q 1312 727 1239 728 q 1449 701 1385 726 q 1565 624 1514 675 q 1636 501 1615 574 q 1648 443 1644 472 q 1651 383 1651 414 q 1638 266 1653 325 q 1594 157 1624 207 q 1510 62 1561 100 q 1398 6 1458 24 q 1274 -10 1338 -11 q 1152 13 1210 -8 q 1047 76 1094 35 q 975 176 1000 117 q 965 202 969 189 q 957 231 960 215 q 924 154 940 192 q 890 78 907 117 q 881 56 888 72 q 866 21 874 39 q 851 -13 858 3 q 840 -35 843 -29 q 814 -60 831 -53 m 114 660 q 114 635 113 647 q 126 622 115 622 q 140 630 136 622 q 146 648 144 638 q 147 670 147 658 q 150 690 147 682 q 154 720 153 706 q 161 750 156 735 q 181 794 168 774 q 204 835 193 814 q 208 843 206 836 q 213 853 211 850 q 223 862 215 856 q 233 871 231 868 q 252 890 243 881 q 271 907 261 899 q 283 914 276 911 q 294 921 289 917 q 317 935 301 926 q 342 940 332 943 q 363 942 350 938 q 383 954 376 947 q 389 976 393 965 q 371 990 385 988 q 348 990 365 992 q 325 986 331 988 q 290 970 306 982 q 257 947 274 958 q 227 924 240 938 q 200 897 214 910 q 181 878 190 888 q 167 857 172 869 q 154 832 161 844 q 140 807 147 819 q 119 735 122 774 q 114 660 115 697 m 363 581 q 410 566 382 565 q 456 586 439 567 q 476 617 468 599 q 486 657 483 636 q 486 698 489 678 q 475 733 483 718 q 449 758 464 750 q 417 765 433 765 q 384 756 400 764 q 357 733 368 747 q 333 682 340 710 q 333 626 326 654 q 363 581 340 599 m 1256 276 q 1303 262 1275 261 q 1349 281 1332 263 q 1369 313 1361 293 q 1379 353 1376 332 q 1379 394 1382 374 q 1368 429 1376 414 q 1342 453 1357 446 q 1310 460 1326 461 q 1277 451 1293 460 q 1250 428 1261 442 q 1226 376 1233 404 q 1226 321 1219 349 q 1256 276 1232 294 z "},"&":{"ha":992,"x_min":53,"x_max":960,"o":"m 593 36 q 467 -18 535 -1 q 329 -28 400 -35 q 187 22 250 -21 q 89 126 124 64 q 53 262 54 188 q 99 408 53 336 q 118 433 107 422 q 140 454 129 443 q 181 486 158 472 q 222 515 203 500 q 167 640 190 572 q 146 757 147 696 q 161 874 144 818 q 214 977 178 931 q 307 1051 250 1024 q 417 1087 358 1075 q 533 1089 475 1099 q 624 1061 579 1082 q 701 1008 668 1040 q 744 947 728 982 q 767 876 761 913 q 764 801 772 840 q 736 731 756 763 q 696 676 719 701 q 644 632 672 651 q 578 589 613 608 q 513 547 544 569 q 506 542 510 544 q 499 538 501 540 q 538 493 518 514 q 581 453 558 472 q 589 446 586 447 l 590 446 q 603 465 596 451 q 617 492 611 478 q 626 519 622 507 q 631 535 631 531 q 651 564 631 560 q 698 562 671 568 q 753 544 725 556 q 800 524 782 532 q 833 505 814 517 q 864 482 853 493 q 872 447 875 471 q 857 396 868 424 q 829 340 846 368 q 796 292 813 313 q 851 262 824 276 q 907 236 879 247 q 931 225 914 233 q 953 211 949 217 q 958 190 960 203 q 951 168 957 178 q 910 110 933 138 q 863 60 888 83 q 831 31 847 44 q 794 6 814 17 q 754 3 775 -3 q 738 10 746 6 q 724 18 731 14 q 646 76 679 47 q 617 53 635 67 q 593 36 600 40 m 215 643 q 232 646 224 640 q 238 660 240 651 q 235 678 236 664 q 235 699 235 693 q 231 733 233 715 q 232 767 229 750 q 239 819 236 793 q 251 871 242 846 q 260 886 254 874 q 269 901 267 899 q 285 923 274 907 q 301 942 296 939 q 314 953 304 944 q 326 964 324 961 q 333 972 328 967 q 340 981 338 978 q 356 990 344 985 q 379 1000 367 994 q 403 1010 392 1006 q 419 1017 415 1014 q 433 1030 431 1022 q 432 1044 436 1038 q 419 1052 428 1050 q 400 1047 411 1054 q 385 1041 397 1044 q 371 1036 374 1038 q 343 1023 357 1029 q 317 1007 329 1017 q 296 986 306 997 q 275 965 286 975 q 261 951 269 961 q 243 927 253 940 q 226 902 233 914 q 214 885 218 890 q 210 872 213 881 q 204 853 207 863 q 199 834 201 843 q 196 821 196 825 q 193 808 194 817 q 190 788 192 799 q 188 769 189 778 q 188 756 188 760 q 192 716 188 736 q 200 676 197 696 q 204 656 201 667 q 215 643 207 646 m 392 721 q 417 660 403 688 q 483 716 457 689 q 519 783 510 743 q 510 818 524 803 q 475 835 496 833 q 420 816 446 836 q 388 768 394 796 q 387 744 385 757 q 392 721 389 732 m 288 414 q 256 323 253 365 q 287 255 260 281 q 358 226 314 229 q 450 250 401 222 q 365 329 407 289 q 288 414 324 369 z "},"'":{"ha":331,"x_min":44,"x_max":288,"o":"m 164 675 q 149 674 158 675 q 130 673 140 674 q 110 672 119 672 q 97 675 101 672 q 87 695 90 679 q 81 718 83 711 q 66 777 71 747 q 57 838 61 807 q 48 909 51 874 q 44 981 44 944 q 59 1013 44 1004 q 93 1024 74 1021 q 142 1028 115 1026 q 195 1031 169 1031 q 242 1029 221 1032 q 276 1018 264 1026 q 287 997 288 1011 q 283 969 286 982 q 269 856 274 913 q 265 743 264 800 q 265 721 265 738 q 264 699 265 704 q 248 683 260 688 q 222 676 236 678 q 191 675 207 675 q 164 675 175 675 m 106 813 q 114 808 108 808 q 124 810 119 808 q 133 817 129 813 q 135 825 136 821 q 131 864 129 844 q 126 903 132 883 q 124 929 125 910 q 124 956 124 949 q 139 957 132 953 q 147 969 146 961 q 145 987 150 979 q 131 994 140 994 q 101 984 115 994 q 83 958 86 974 q 85 940 83 953 q 88 912 86 926 q 92 884 90 897 q 96 865 94 871 q 97 853 96 861 q 99 838 99 846 q 101 822 100 829 q 106 813 103 815 z "},"‚":{"ha":331,"x_min":44,"x_max":288,"o":"m 164 675 q 149 674 158 675 q 130 673 140 674 q 110 672 119 672 q 97 675 101 672 q 87 695 90 679 q 81 718 83 711 q 66 777 71 747 q 57 838 61 807 q 48 909 51 874 q 44 981 44 944 q 59 1013 44 1004 q 93 1024 74 1021 q 142 1028 115 1026 q 195 1031 169 1031 q 242 1029 221 1032 q 276 1018 264 1026 q 287 997 288 1011 q 283 969 286 982 q 269 856 274 913 q 265 743 264 800 q 265 721 265 738 q 264 699 265 704 q 248 683 260 688 q 222 676 236 678 q 191 675 207 675 q 164 675 175 675 m 106 813 q 114 808 108 808 q 124 810 119 808 q 133 817 129 813 q 135 825 136 821 q 131 864 129 844 q 126 903 132 883 q 124 929 125 910 q 124 956 124 949 q 139 957 132 953 q 147 969 146 961 q 145 987 150 979 q 131 994 140 994 q 101 984 115 994 q 83 958 86 974 q 85 940 83 953 q 88 912 86 926 q 92 884 90 897 q 96 865 94 871 q 97 853 96 861 q 99 838 99 846 q 101 822 100 829 q 106 813 103 815 z "},"‛":{"ha":331,"x_min":44,"x_max":288,"o":"m 164 675 q 149 674 158 675 q 130 673 140 674 q 110 672 119 672 q 97 675 101 672 q 87 695 90 679 q 81 718 83 711 q 66 777 71 747 q 57 838 61 807 q 48 909 51 874 q 44 981 44 944 q 59 1013 44 1004 q 93 1024 74 1021 q 142 1028 115 1026 q 195 1031 169 1031 q 242 1029 221 1032 q 276 1018 264 1026 q 287 997 288 1011 q 283 969 286 982 q 269 856 274 913 q 265 743 264 800 q 265 721 265 738 q 264 699 265 704 q 248 683 260 688 q 222 676 236 678 q 191 675 207 675 q 164 675 175 675 m 106 813 q 114 808 108 808 q 124 810 119 808 q 133 817 129 813 q 135 825 136 821 q 131 864 129 844 q 126 903 132 883 q 124 929 125 910 q 124 956 124 949 q 139 957 132 953 q 147 969 146 961 q 145 987 150 979 q 131 994 140 994 q 101 984 115 994 q 83 958 86 974 q 85 940 83 953 q 88 912 86 926 q 92 884 90 897 q 96 865 94 871 q 97 853 96 861 q 99 838 99 846 q 101 822 100 829 q 106 813 103 815 z "},"‹":{"ha":331,"x_min":44,"x_max":288,"o":"m 164 675 q 149 674 158 675 q 130 673 140 674 q 110 672 119 672 q 97 675 101 672 q 87 695 90 679 q 81 718 83 711 q 66 777 71 747 q 57 838 61 807 q 48 909 51 874 q 44 981 44 944 q 59 1013 44 1004 q 93 1024 74 1021 q 142 1028 115 1026 q 195 1031 169 1031 q 242 1029 221 1032 q 276 1018 264 1026 q 287 997 288 1011 q 283 969 286 982 q 269 856 274 913 q 265 743 264 800 q 265 721 265 738 q 264 699 265 704 q 248 683 260 688 q 222 676 236 678 q 191 675 207 675 q 164 675 175 675 m 106 813 q 114 808 108 808 q 124 810 119 808 q 133 817 129 813 q 135 825 136 821 q 131 864 129 844 q 126 903 132 883 q 124 929 125 910 q 124 956 124 949 q 139 957 132 953 q 147 969 146 961 q 145 987 150 979 q 131 994 140 994 q 101 984 115 994 q 83 958 86 974 q 85 940 83 953 q 88 912 86 926 q 92 884 90 897 q 96 865 94 871 q 97 853 96 861 q 99 838 99 846 q 101 822 100 829 q 106 813 103 815 z "},"›":{"ha":331,"x_min":44,"x_max":288,"o":"m 164 675 q 149 674 158 675 q 130 673 140 674 q 110 672 119 672 q 97 675 101 672 q 87 695 90 679 q 81 718 83 711 q 66 777 71 747 q 57 838 61 807 q 48 909 51 874 q 44 981 44 944 q 59 1013 44 1004 q 93 1024 74 1021 q 142 1028 115 1026 q 195 1031 169 1031 q 242 1029 221 1032 q 276 1018 264 1026 q 287 997 288 1011 q 283 969 286 982 q 269 856 274 913 q 265 743 264 800 q 265 721 265 738 q 264 699 265 704 q 248 683 260 688 q 222 676 236 678 q 191 675 207 675 q 164 675 175 675 m 106 813 q 114 808 108 808 q 124 810 119 808 q 133 817 129 813 q 135 825 136 821 q 131 864 129 844 q 126 903 132 883 q 124 929 125 910 q 124 956 124 949 q 139 957 132 953 q 147 969 146 961 q 145 987 150 979 q 131 994 140 994 q 101 984 115 994 q 83 958 86 974 q 85 940 83 953 q 88 912 86 926 q 92 884 90 897 q 96 865 94 871 q 97 853 96 861 q 99 838 99 846 q 101 822 100 829 q 106 813 103 815 z "},"(":{"ha":750,"x_min":54,"x_max":721,"o":"m 619 -146 q 592 -151 610 -151 q 553 -147 574 -150 q 515 -140 533 -144 q 485 -133 496 -136 q 335 -72 401 -114 q 220 29 269 -29 q 137 156 171 88 q 85 296 103 225 q 65 542 54 415 q 124 788 75 669 q 263 1005 174 906 q 481 1168 353 1104 q 525 1189 508 1182 q 553 1194 542 1196 q 575 1181 565 1192 q 600 1150 585 1171 q 621 1121 604 1144 q 656 1069 638 1097 q 692 1017 675 1042 q 711 988 708 993 q 715 954 721 969 q 700 938 713 947 q 673 919 688 928 q 644 902 658 910 q 624 890 631 894 q 540 829 579 863 q 469 756 500 796 q 397 599 417 683 q 388 483 386 540 q 403 368 389 425 q 429 294 413 331 q 472 228 446 258 q 556 155 507 186 q 658 108 604 124 q 688 99 674 104 q 710 81 703 93 q 712 63 713 74 q 709 40 711 53 q 703 17 707 28 q 699 -1 700 6 q 686 -35 694 -14 q 667 -79 678 -57 q 644 -121 657 -101 q 619 -146 632 -140 m 215 799 q 233 797 224 790 q 243 814 242 803 q 255 844 246 829 q 272 872 264 858 q 281 889 275 875 q 290 906 288 903 q 308 928 297 918 q 328 950 318 939 q 337 963 331 953 q 346 975 343 972 q 366 990 356 983 q 388 1004 376 996 q 394 1010 389 1006 q 403 1021 399 1015 q 413 1031 408 1026 q 421 1038 418 1036 q 461 1066 440 1053 q 504 1090 482 1079 q 522 1106 518 1096 q 521 1122 525 1115 q 506 1132 517 1129 q 483 1126 496 1135 q 456 1111 469 1117 q 445 1104 453 1110 q 429 1092 438 1099 q 413 1080 421 1086 q 403 1072 406 1074 q 379 1051 390 1063 q 357 1029 368 1040 q 350 1022 356 1026 q 338 1014 344 1018 q 325 1006 331 1010 q 318 1000 319 1001 q 302 983 308 993 q 288 965 296 974 q 249 914 263 940 q 243 899 246 907 q 236 885 240 892 q 225 867 231 875 q 217 849 219 858 q 212 822 215 839 q 215 799 208 806 z "},")":{"ha":750,"x_min":29,"x_max":696,"o":"m 267 -133 q 236 -140 256 -136 q 197 -147 217 -144 q 158 -151 176 -150 q 131 -146 140 -151 q 106 -121 118 -140 q 83 -79 93 -101 q 65 -35 72 -57 q 53 -1 57 -14 q 47 17 50 6 q 41 40 43 28 q 38 63 39 53 q 40 81 38 74 q 62 99 47 93 q 92 108 76 104 q 196 155 147 124 q 279 228 244 186 q 322 294 306 258 q 347 368 338 331 q 353 599 376 481 q 281 756 336 683 q 211 829 251 796 q 126 890 171 863 q 106 902 119 894 q 77 919 92 910 q 51 938 63 928 q 36 954 39 947 q 39 988 29 969 q 58 1017 42 993 q 94 1069 75 1042 q 131 1121 114 1097 q 151 1150 147 1144 q 176 1181 165 1171 q 197 1194 186 1192 q 225 1189 208 1196 q 269 1168 242 1182 q 487 1005 397 1104 q 626 788 576 906 q 685 542 675 669 q 665 296 696 415 q 613 156 647 225 q 530 29 579 88 q 415 -72 481 -29 q 267 -133 349 -114 m 111 978 q 110 963 101 969 q 129 964 118 956 q 135 971 131 965 q 143 983 139 976 q 151 996 147 990 q 156 1004 154 1001 q 177 1038 168 1019 q 197 1071 186 1056 q 208 1083 200 1074 q 219 1094 217 1092 q 228 1096 222 1097 q 238 1092 233 1094 q 252 1084 244 1089 q 267 1075 260 1079 q 278 1064 269 1064 q 299 1067 288 1064 q 313 1081 310 1071 q 308 1097 317 1090 q 281 1113 301 1101 q 253 1126 260 1124 q 235 1129 244 1129 q 217 1126 225 1129 q 190 1108 206 1124 q 168 1082 175 1092 q 149 1047 157 1065 q 131 1014 142 1029 q 121 995 128 1010 q 111 978 114 981 z "},"*":{"ha":588,"x_min":46,"x_max":543,"o":"m 346 547 q 320 546 336 547 q 287 544 304 544 q 254 547 269 544 q 232 556 239 549 q 224 574 226 561 q 223 597 224 581 q 221 638 222 614 q 214 632 217 633 q 182 613 199 622 q 147 597 165 604 q 133 594 143 594 q 122 601 129 596 q 111 610 114 607 q 95 628 106 617 q 74 653 85 640 q 57 680 64 667 q 51 701 50 693 q 56 710 53 706 q 63 717 60 714 q 100 744 71 724 q 161 788 129 765 q 134 805 147 796 q 107 822 121 814 q 97 828 104 824 q 82 838 90 832 q 67 847 74 843 q 57 853 60 851 q 47 867 49 861 q 51 886 46 875 q 61 903 54 892 q 76 928 68 915 q 92 953 85 942 q 103 969 100 965 q 110 978 107 974 q 121 983 114 982 q 157 975 133 986 q 200 953 181 964 q 197 981 199 964 q 196 1003 196 997 q 201 1018 196 1013 q 221 1026 210 1024 q 241 1031 226 1028 q 272 1035 256 1033 q 303 1039 289 1038 q 324 1040 318 1040 q 344 1036 336 1043 q 354 1021 350 1032 q 362 997 358 1010 q 367 970 365 983 q 371 947 369 957 q 376 951 374 950 q 385 958 378 953 q 399 969 392 963 q 413 980 406 975 q 422 986 419 985 q 439 992 428 992 q 458 982 447 990 q 473 968 463 978 q 494 947 483 958 q 516 926 506 936 q 529 913 526 917 q 538 893 538 901 q 528 874 538 885 q 508 852 519 864 q 485 831 497 840 q 467 815 474 821 q 454 806 460 811 q 442 796 449 801 q 462 782 453 789 q 479 768 471 775 q 509 744 494 756 q 536 717 524 732 q 540 712 539 714 q 542 707 540 710 q 539 693 543 701 q 532 681 535 685 q 517 661 526 674 q 498 636 508 649 q 476 614 488 624 q 456 603 465 604 q 436 608 443 603 q 416 620 429 611 q 386 642 403 629 l 386 639 q 383 603 385 621 q 378 567 382 585 q 372 556 378 564 q 360 550 369 553 q 346 547 350 547 z "},"+":{"ha":707,"x_min":44,"x_max":663,"o":"m 421 185 q 386 183 408 185 q 341 182 364 182 q 298 184 318 182 q 269 194 278 186 q 260 217 260 204 q 258 241 258 224 q 256 281 257 258 q 255 330 256 304 q 254 381 254 356 q 205 379 229 379 q 156 378 181 379 q 142 377 151 378 q 121 376 132 376 q 100 375 110 375 q 88 375 90 375 q 68 383 74 375 q 57 410 60 392 q 53 436 56 417 q 49 478 51 456 q 46 519 47 500 q 44 547 44 539 q 46 562 44 554 q 51 575 47 569 q 74 589 58 583 q 109 598 90 594 q 146 603 128 601 q 175 606 164 604 l 238 610 q 235 647 236 629 q 232 683 235 665 q 231 697 232 688 q 229 718 231 707 q 227 739 228 729 q 226 753 226 749 q 235 772 229 767 q 247 780 240 778 q 260 783 253 782 q 288 788 268 785 q 328 794 307 792 q 369 799 350 797 q 397 801 389 801 q 412 801 404 801 q 426 796 419 800 q 440 773 435 789 q 450 738 446 757 q 456 701 454 719 q 460 672 458 683 q 464 642 463 657 q 467 613 465 628 q 508 610 488 611 q 549 607 529 610 q 594 602 572 604 q 639 593 617 600 q 653 585 647 590 q 660 567 657 579 q 663 547 663 554 q 663 513 663 535 q 662 469 663 492 q 658 426 661 446 q 646 397 654 406 q 624 388 638 388 q 568 387 611 386 q 478 388 525 388 q 478 344 478 365 q 476 300 478 322 q 473 254 474 276 q 465 210 472 232 q 457 196 463 200 q 440 188 453 192 q 421 185 428 185 m 283 621 q 290 613 285 614 q 302 614 296 611 q 311 622 308 617 q 310 632 314 626 q 307 644 307 638 q 306 670 307 650 q 303 696 306 690 q 301 735 299 713 q 309 740 301 740 q 321 740 317 739 q 337 756 335 744 q 325 771 339 768 q 306 769 319 772 q 286 764 292 767 q 274 751 279 760 q 268 735 269 743 q 269 709 267 722 q 275 683 272 696 q 276 672 275 681 q 279 652 278 663 q 282 633 281 642 q 283 621 283 624 z "},",":{"ha":353,"x_min":33,"x_max":318,"o":"m 149 -154 q 136 -147 139 -156 q 140 -132 133 -137 q 144 -126 143 -129 q 147 -119 144 -122 q 161 -90 156 -104 q 169 -58 167 -75 q 172 -44 171 -53 q 169 -31 174 -35 q 147 -22 164 -25 q 122 -15 129 -18 q 78 6 99 -8 q 47 42 58 21 q 37 106 33 71 q 56 169 40 142 q 101 213 72 197 q 160 231 129 226 q 222 229 192 236 q 256 217 239 226 q 283 194 272 208 q 302 163 294 181 q 313 126 310 146 q 313 49 318 89 q 290 -24 307 10 q 254 -76 275 -51 q 210 -121 233 -101 q 190 -135 206 -124 q 169 -149 174 -146 q 160 -153 165 -153 q 149 -154 154 -153 m 82 53 q 101 53 92 46 q 104 71 111 61 q 100 94 101 82 q 101 118 99 107 q 110 139 104 129 q 124 156 115 149 q 138 164 131 161 q 150 174 146 167 q 147 191 157 185 q 125 192 138 197 q 101 176 113 185 q 82 156 89 167 q 69 115 71 138 q 72 71 67 92 q 76 61 74 67 q 82 53 78 56 z "},"-":{"ha":703,"x_min":42,"x_max":660,"o":"m 153 332 q 139 331 149 332 q 118 330 129 331 q 97 328 107 329 q 85 328 88 328 q 65 339 71 331 q 58 354 60 346 q 54 371 56 363 q 51 404 53 381 q 47 455 49 428 q 43 506 44 482 q 42 540 42 531 q 49 575 42 563 q 72 592 56 585 q 106 603 88 599 q 143 609 125 607 q 172 613 161 611 q 359 624 265 622 q 546 614 453 625 q 592 608 569 611 q 636 596 614 604 q 650 586 644 593 q 657 565 654 581 q 660 542 660 549 q 660 499 660 526 q 659 444 660 472 q 655 390 658 415 q 643 356 651 365 q 621 343 635 346 q 571 342 608 342 q 490 344 533 343 q 408 344 446 344 q 357 343 369 344 q 255 336 306 338 q 153 332 204 335 m 106 390 q 122 383 108 379 q 136 397 136 386 q 135 411 136 401 q 135 433 135 421 q 135 454 135 444 q 136 468 135 464 q 136 481 136 471 q 135 502 136 490 q 133 524 133 514 q 133 538 133 533 q 138 540 135 540 q 143 540 140 540 q 149 541 146 540 q 156 540 153 542 q 169 538 161 536 q 182 544 176 539 q 190 556 188 550 q 190 569 193 563 q 167 580 185 582 q 135 575 149 578 q 119 565 129 572 q 107 556 110 558 q 95 526 99 549 q 92 493 92 504 q 92 481 92 490 q 94 462 93 472 q 95 442 94 451 q 96 431 96 433 q 100 410 97 419 q 106 390 103 401 z "},".":{"ha":350,"x_min":38,"x_max":313,"o":"m 226 8 q 182 1 207 1 q 133 6 157 0 q 89 22 110 11 q 57 50 68 33 q 42 85 47 64 q 38 130 38 107 q 44 174 39 153 q 61 208 50 194 q 118 256 85 242 q 186 269 151 271 q 251 251 221 268 q 299 203 282 233 q 312 147 313 178 q 303 89 311 117 q 274 39 294 61 q 226 8 253 17 m 67 93 q 83 85 71 82 q 94 100 96 89 q 95 110 93 103 q 97 121 97 118 q 103 148 99 129 q 114 174 107 167 q 135 196 121 181 q 160 213 150 211 q 176 222 171 213 q 175 239 182 231 q 163 247 172 246 q 147 244 154 247 q 113 224 126 238 q 99 209 110 221 q 86 194 89 197 q 72 168 75 183 q 65 138 68 153 q 65 115 65 131 q 67 93 64 99 z "},"/":{"ha":765,"x_min":42,"x_max":744,"o":"m 374 -44 q 349 -50 363 -50 q 324 -47 336 -50 q 278 -36 311 -44 q 208 -18 244 -28 q 138 1 171 -8 q 93 15 106 11 q 70 27 82 21 q 51 44 58 33 q 43 92 42 61 q 51 156 44 122 q 65 222 57 190 q 79 271 74 253 q 130 444 100 351 q 194 630 160 536 q 264 813 228 724 q 336 979 300 903 q 371 1052 353 1015 q 414 1121 389 1089 q 435 1139 424 1135 q 467 1140 446 1143 q 500 1133 489 1138 q 556 1113 519 1125 q 628 1085 592 1100 q 696 1052 665 1069 q 736 1015 726 1035 q 738 972 744 994 q 719 918 733 958 q 684 824 704 878 q 641 711 664 771 q 598 598 618 651 q 563 504 578 544 q 546 450 549 464 q 493 274 522 361 q 436 100 464 188 q 428 77 433 94 q 418 41 424 60 q 407 5 413 22 q 399 -18 401 -12 q 388 -34 394 -26 q 374 -44 382 -42 m 281 686 q 280 674 278 679 q 287 667 282 669 q 298 667 292 665 q 308 676 304 669 q 328 718 321 696 q 347 763 336 740 q 367 799 356 782 q 385 836 378 817 q 393 860 389 849 q 404 883 397 872 q 421 917 415 899 q 432 956 426 936 q 437 965 432 958 q 443 975 442 972 q 458 1007 451 990 q 472 1039 464 1024 q 508 1025 488 1029 q 542 1033 529 1021 q 546 1059 553 1046 q 522 1069 539 1072 q 506 1072 514 1069 q 490 1075 499 1075 q 469 1074 481 1076 q 451 1064 458 1071 q 444 1053 449 1061 q 433 1036 439 1046 q 424 1018 428 1026 q 418 1006 419 1010 q 404 984 413 994 q 390 963 396 974 q 375 928 382 946 q 357 896 368 911 q 340 861 346 879 q 328 825 335 843 q 310 783 319 803 q 297 740 300 763 q 290 713 296 733 q 281 686 283 692 z "},":":{"ha":386,"x_min":53,"x_max":333,"o":"m 242 489 q 197 482 222 482 q 149 487 172 482 q 104 503 125 492 q 72 531 83 514 q 58 566 63 544 q 53 610 53 588 q 60 654 54 633 q 76 689 65 675 q 133 738 100 722 q 201 751 167 753 q 267 733 236 750 q 314 685 297 715 q 327 628 328 660 q 318 569 326 597 q 289 520 310 543 q 242 489 268 497 m 82 574 q 99 567 86 563 q 110 582 111 571 q 110 592 108 585 q 113 603 113 600 q 118 630 114 611 q 129 654 122 649 q 139 665 133 658 q 151 677 144 671 q 164 688 157 683 q 175 693 171 693 q 192 703 186 694 q 190 721 197 711 q 178 728 188 728 q 163 725 169 728 q 128 704 142 718 q 115 690 125 701 q 101 675 104 678 q 87 649 90 664 q 81 618 83 633 q 80 597 81 613 q 82 574 79 581 m 246 8 q 202 1 226 1 q 154 6 178 0 q 110 22 131 11 q 78 50 89 33 q 63 85 68 64 q 59 130 58 107 q 65 174 60 153 q 82 208 71 194 q 139 256 106 242 q 207 269 172 271 q 272 251 242 268 q 319 203 303 233 q 333 147 333 178 q 324 89 332 117 q 294 39 315 61 q 246 8 274 17 m 88 93 q 104 85 92 82 q 114 100 117 89 q 115 110 114 103 q 118 121 117 118 q 124 148 119 129 q 135 174 128 167 q 156 196 142 181 q 181 213 171 211 q 197 222 192 213 q 196 239 203 231 q 184 247 193 246 q 168 244 175 247 q 133 224 147 238 q 128 218 132 222 q 119 209 124 214 q 112 200 115 204 q 107 194 108 196 q 92 168 96 183 q 86 138 89 153 q 85 115 85 131 q 88 93 85 99 z "},";":{"ha":400,"x_min":46,"x_max":351,"o":"m 264 489 q 220 482 244 482 q 172 487 196 482 q 128 503 149 492 q 96 531 107 514 q 81 566 86 544 q 77 610 76 588 q 83 654 78 633 q 100 689 89 675 q 157 738 124 722 q 225 751 190 753 q 290 733 260 750 q 336 685 319 715 q 351 628 351 660 q 342 569 350 597 q 313 520 333 543 q 264 489 292 497 m 106 574 q 121 567 108 563 q 132 582 133 571 q 133 592 132 585 q 136 603 135 600 q 142 630 138 611 q 153 654 146 649 q 174 677 160 661 q 199 693 189 693 q 215 703 210 694 q 214 721 219 711 q 202 728 211 728 q 186 725 193 728 q 167 717 176 722 q 150 704 157 711 q 138 690 147 701 q 125 675 128 678 q 110 649 114 664 q 104 618 107 633 q 103 597 103 613 q 106 574 103 581 m 161 -154 q 149 -147 151 -156 q 153 -132 146 -137 q 156 -126 156 -129 q 160 -119 157 -122 q 174 -90 168 -104 q 182 -58 179 -75 q 185 -44 183 -53 q 182 -31 186 -35 q 159 -22 176 -25 q 135 -15 142 -18 q 91 6 111 -8 q 60 42 71 21 q 49 106 46 71 q 68 169 53 142 q 114 213 85 197 q 173 231 142 226 q 235 229 204 236 q 268 217 251 226 q 296 194 285 208 q 315 163 307 181 q 325 126 322 146 q 325 49 331 89 q 303 -24 319 10 q 267 -76 288 -51 q 222 -121 246 -101 q 202 -135 218 -124 q 182 -149 186 -146 q 172 -153 178 -153 q 161 -154 167 -153 m 94 53 q 114 53 104 46 q 117 71 124 61 q 113 94 114 82 q 114 118 111 107 q 122 139 117 129 q 136 156 128 149 q 151 164 143 161 q 163 174 158 167 q 160 191 169 185 q 138 192 150 197 q 113 176 125 185 q 94 156 101 167 q 81 115 83 138 q 85 71 79 92 q 88 61 86 67 q 94 53 90 56 z "},"<":{"ha":708,"x_min":44,"x_max":649,"o":"m 603 721 q 561 714 586 704 q 488 740 529 726 q 401 767 446 754 q 311 792 356 781 q 229 813 267 804 q 205 825 214 817 q 194 853 196 833 q 198 880 194 861 q 206 919 201 899 q 217 957 211 939 q 225 983 222 975 q 235 1011 229 997 q 256 1032 242 1025 q 280 1033 265 1036 q 310 1026 294 1031 q 341 1015 326 1021 q 365 1004 356 1008 q 499 943 432 976 q 629 868 567 910 q 640 854 639 863 q 640 841 642 850 q 637 822 639 832 q 632 803 635 813 q 628 790 629 794 q 624 774 626 785 q 618 753 621 764 q 611 734 615 743 q 603 721 607 725 m 229 860 q 239 849 231 850 q 254 856 247 849 q 258 863 257 858 q 261 871 260 867 q 272 917 268 893 q 288 961 276 940 q 301 976 300 967 q 297 990 303 985 q 282 997 292 996 q 263 988 272 997 q 250 969 256 982 q 240 943 244 957 q 233 915 236 929 q 231 893 231 901 q 228 876 231 885 q 229 860 226 868 m 121 419 q 85 421 100 417 q 61 444 69 425 q 55 473 58 453 q 49 516 51 493 q 46 560 47 539 q 44 589 44 581 q 47 622 44 604 q 64 650 49 639 q 93 662 74 658 q 134 667 113 665 q 176 669 156 669 q 211 669 197 669 q 401 664 304 669 q 592 643 499 658 q 613 635 607 640 q 617 621 615 631 q 620 600 619 611 q 622 578 621 589 q 622 564 622 568 q 624 546 624 557 q 625 523 625 535 q 624 500 625 511 q 619 483 624 489 q 601 465 611 469 q 571 460 590 460 q 470 455 528 458 q 351 446 413 451 q 229 433 289 440 q 121 419 169 426 m 117 474 q 132 472 124 467 q 140 486 140 476 q 139 501 140 489 q 138 517 138 514 q 138 531 138 521 q 138 554 138 542 q 138 578 138 567 q 139 593 139 589 q 163 601 156 593 q 169 619 169 610 q 159 633 168 628 q 135 635 150 639 q 110 619 121 631 q 97 592 100 607 q 97 576 97 588 q 98 553 97 565 q 99 529 99 540 q 101 513 100 518 q 108 492 103 506 q 117 474 113 478 m 301 83 q 274 76 286 76 q 250 92 261 76 q 238 115 246 97 q 221 151 229 132 q 206 188 213 171 q 197 214 199 206 q 190 243 193 228 q 193 272 186 258 q 210 289 197 281 q 239 303 224 297 q 269 315 254 310 q 294 324 285 319 q 435 365 363 346 q 581 392 508 383 q 590 392 585 392 q 597 389 594 392 q 606 378 601 386 q 613 360 610 369 q 620 342 617 351 q 625 329 624 333 q 632 314 628 324 q 640 294 636 304 q 646 274 643 283 q 647 258 649 264 q 618 226 643 235 q 546 198 586 215 q 462 161 506 181 q 376 122 418 142 q 301 83 335 101 m 276 128 q 294 122 281 117 q 306 138 307 126 q 303 154 303 146 q 300 169 303 163 q 295 184 297 176 q 292 199 293 192 q 288 218 289 208 q 289 238 288 228 q 292 242 289 239 q 294 247 294 244 q 298 256 296 251 q 300 264 300 260 q 289 276 297 274 q 272 275 281 278 q 256 262 264 272 q 246 243 247 251 q 247 226 246 238 q 251 204 249 215 q 257 183 254 193 q 263 167 260 172 q 269 148 265 164 q 276 128 274 132 z "},"=":{"ha":721,"x_min":51,"x_max":671,"o":"m 163 458 q 149 458 158 458 q 128 457 139 457 q 107 456 117 457 q 94 456 97 456 q 83 458 89 457 q 75 463 78 460 q 64 486 67 471 q 60 510 63 493 q 56 547 58 528 q 53 582 54 565 q 51 606 51 599 q 58 631 51 622 q 81 643 65 639 q 116 650 97 647 q 153 654 135 653 q 182 657 171 656 q 369 665 275 664 q 556 658 463 665 q 601 654 579 656 q 646 646 624 653 q 653 643 649 644 q 660 639 657 642 q 667 624 664 635 q 669 607 669 613 q 669 577 669 596 q 669 538 669 558 q 665 501 668 518 q 653 475 661 483 q 631 467 644 467 q 581 467 618 467 q 499 467 543 467 q 417 468 456 468 q 367 467 379 468 q 265 462 315 463 q 163 458 214 461 m 97 493 q 110 484 99 482 q 124 497 121 486 q 124 513 125 500 q 122 529 122 525 q 120 556 121 536 q 121 582 119 576 q 124 591 121 585 q 128 600 126 597 q 142 603 133 600 q 147 604 144 603 q 150 603 149 606 q 172 600 160 590 q 179 625 183 610 q 165 635 176 636 q 143 632 154 635 q 128 631 136 631 q 113 625 119 631 q 98 606 103 618 q 93 581 93 593 q 93 564 93 576 q 94 537 93 551 q 97 510 96 522 q 97 493 97 497 m 164 194 q 150 194 160 194 q 129 193 140 193 q 108 192 118 193 q 94 192 99 192 q 75 199 81 194 q 65 222 68 208 q 61 247 64 229 q 56 283 58 264 q 53 318 54 301 q 53 342 53 335 q 53 356 53 349 q 60 367 54 363 q 83 380 67 375 q 117 388 99 385 q 154 392 136 390 q 183 393 172 393 q 369 401 276 400 q 557 394 463 401 q 601 390 579 392 q 646 382 624 389 q 660 375 657 379 q 667 360 664 371 q 669 343 669 349 q 670 313 669 332 q 670 274 671 294 q 666 237 669 254 q 654 211 663 219 q 644 206 650 207 q 632 203 639 204 q 581 203 619 203 q 500 203 543 203 q 419 204 457 204 q 368 203 381 204 q 266 198 317 199 q 164 194 215 197 m 94 224 q 112 223 101 217 q 118 239 122 229 q 114 261 115 244 q 113 285 113 278 q 111 303 113 294 q 110 321 110 311 q 121 331 113 331 q 138 332 131 328 q 147 342 144 336 q 147 355 150 349 q 135 363 144 361 q 113 363 124 364 q 94 354 103 361 q 87 340 92 351 q 81 324 82 329 q 80 301 78 318 q 83 279 82 285 q 85 250 83 269 q 94 224 88 231 z "},">":{"ha":708,"x_min":60,"x_max":664,"o":"m 147 714 q 106 721 122 704 q 97 734 101 725 q 90 753 93 743 q 85 774 88 764 q 81 790 82 785 q 76 803 79 794 q 72 822 74 813 q 68 841 69 832 q 68 854 67 850 q 79 868 69 863 q 209 943 142 910 q 343 1004 276 976 q 367 1015 353 1008 q 398 1026 382 1021 q 428 1033 414 1031 q 453 1032 443 1036 q 473 1011 467 1025 q 483 983 479 997 q 492 957 486 975 q 502 919 497 939 q 510 880 507 899 q 513 853 513 861 q 503 825 513 833 q 478 813 493 817 q 397 792 442 804 q 306 767 351 781 q 219 740 261 754 q 147 714 178 726 m 131 760 q 134 749 129 751 q 145 749 139 747 q 155 756 151 750 q 156 768 158 761 q 139 813 146 788 q 138 823 138 817 q 142 832 138 829 q 151 842 147 835 q 153 856 154 849 q 138 866 150 867 q 118 857 126 865 q 108 836 110 849 q 110 810 107 824 q 119 783 114 797 q 131 760 125 769 m 647 444 q 624 421 639 425 q 588 419 608 417 q 478 433 539 426 q 357 446 418 440 q 238 455 296 451 q 138 460 181 458 q 108 465 118 460 q 88 483 97 469 q 83 500 85 489 q 83 523 82 511 q 84 546 83 535 q 86 564 85 557 q 87 578 86 568 q 88 600 88 589 q 91 621 89 611 q 96 635 93 631 q 117 643 101 640 q 307 664 210 658 q 497 669 404 669 q 532 669 511 669 q 574 667 553 669 q 615 662 596 665 q 644 650 635 658 q 661 622 660 639 q 664 589 663 604 q 663 560 664 581 q 659 516 661 539 q 653 473 657 493 q 647 444 650 453 m 126 485 q 142 486 133 479 q 149 501 151 493 q 149 519 149 507 q 149 547 149 532 q 151 574 150 561 q 154 590 151 586 q 175 606 169 593 q 167 624 181 618 q 133 617 147 632 q 117 583 119 603 q 114 553 114 568 q 117 522 114 538 q 119 501 118 515 q 126 485 119 488 m 458 92 q 435 76 447 76 q 407 83 422 76 q 332 122 374 101 q 247 161 290 142 q 162 198 203 181 q 90 226 121 215 q 61 258 65 235 q 63 274 60 264 q 69 294 65 283 q 76 314 72 304 q 83 329 81 324 q 88 342 85 333 q 95 360 92 351 q 103 378 99 369 q 111 389 107 386 q 119 392 114 392 q 128 392 124 392 q 273 365 200 383 q 414 324 346 346 q 439 315 424 319 q 469 303 454 310 q 498 289 485 297 q 515 272 511 281 q 519 243 522 258 q 511 214 515 228 q 502 188 508 206 q 488 151 496 171 q 471 115 479 132 q 458 92 463 97 m 107 261 q 123 260 114 256 q 133 272 132 264 q 135 280 133 275 q 139 288 138 285 q 143 303 142 294 q 147 318 144 311 q 153 328 150 328 q 160 329 156 328 q 168 332 164 331 q 182 339 178 333 q 186 351 186 344 q 181 361 186 357 q 167 364 176 365 q 158 363 163 363 q 149 361 153 363 q 132 349 142 358 q 119 332 122 339 q 113 310 115 321 q 107 289 110 300 q 103 274 106 282 q 107 261 101 265 z "},"?":{"ha":832,"x_min":42,"x_max":782,"o":"m 596 311 q 554 284 583 293 q 491 271 525 275 q 424 267 457 267 q 368 268 390 267 q 328 272 349 269 q 289 283 307 274 q 265 307 275 292 q 251 338 256 322 q 247 382 247 356 q 249 435 246 408 q 262 485 253 463 q 286 521 271 508 q 318 538 300 531 q 346 549 331 542 q 376 565 361 556 q 403 584 392 574 q 421 606 415 594 q 410 661 436 642 q 333 669 385 681 q 238 655 286 660 q 142 653 190 650 q 115 658 128 654 q 90 671 101 663 q 76 687 82 678 q 65 707 69 696 q 53 753 57 729 q 46 800 49 776 q 42 849 43 824 q 44 897 42 874 q 51 931 47 914 q 67 961 56 947 q 99 989 79 978 q 139 1007 118 1000 q 162 1013 143 1010 q 185 1019 181 1017 q 232 1033 208 1028 q 279 1040 256 1038 q 444 1049 361 1050 q 606 1024 528 1049 q 668 998 638 1013 q 721 958 699 983 q 749 915 738 939 q 767 868 760 892 q 780 778 778 824 q 776 688 782 732 q 767 620 774 654 q 744 554 760 586 q 701 501 731 524 q 655 471 679 485 q 615 435 631 457 q 606 406 607 422 q 606 372 606 389 q 606 340 607 356 q 596 311 606 324 m 118 711 q 133 709 125 706 q 142 721 140 713 q 139 738 143 725 q 133 756 135 750 q 129 783 131 764 q 128 823 128 801 q 128 864 128 844 q 129 892 128 883 q 149 933 132 918 q 169 946 158 940 q 193 951 181 951 q 217 963 208 951 q 215 986 226 975 q 205 991 211 990 q 192 990 199 992 q 162 981 176 989 q 133 964 147 974 q 108 940 118 956 q 94 908 99 925 q 92 878 92 899 q 94 833 93 857 q 97 787 94 808 q 101 756 99 765 q 108 733 103 749 q 118 711 113 717 m 454 -24 q 417 -23 439 -24 q 372 -19 394 -22 q 328 -8 349 -15 q 299 10 308 -1 q 288 34 292 18 q 281 69 283 50 q 277 106 278 88 q 278 135 276 124 q 286 165 279 150 q 304 190 293 179 q 332 201 311 196 q 361 208 353 207 q 422 217 392 214 q 485 217 453 219 q 517 213 500 215 q 547 203 533 211 q 569 176 561 194 q 580 134 576 157 q 582 88 583 111 q 579 49 581 65 q 575 27 578 38 q 565 8 572 17 q 547 -7 558 -1 q 524 -15 535 -12 q 489 -22 507 -21 q 454 -24 471 -24 m 321 46 q 328 40 322 40 q 338 42 333 39 q 344 49 342 44 q 346 58 347 53 q 345 79 344 64 q 346 100 346 94 q 344 115 346 107 q 344 129 343 122 q 345 135 344 132 q 349 138 346 138 q 368 152 363 140 q 361 171 374 164 q 330 169 344 179 q 308 140 315 158 q 307 100 303 122 q 313 73 307 93 q 321 46 318 53 z "},"@":{"ha":1271,"x_min":54,"x_max":1217,"o":"m 776 -164 q 597 -172 689 -176 q 541 -169 569 -171 q 485 -161 513 -168 q 413 -140 449 -151 q 343 -110 376 -128 q 232 -29 285 -79 q 197 6 214 -12 q 167 46 181 24 q 94 203 121 119 q 60 373 67 286 q 70 546 54 460 q 125 711 86 632 q 226 847 164 788 q 364 947 288 907 q 526 1008 440 988 q 697 1028 611 1028 q 865 1007 783 1028 q 1013 942 946 986 q 1130 833 1081 899 q 1200 676 1179 767 q 1215 572 1213 626 q 1208 463 1217 517 q 1178 356 1199 408 q 1125 261 1158 304 q 1058 205 1099 226 q 974 179 1017 183 q 899 187 938 176 q 832 221 861 197 q 822 229 829 224 q 808 242 815 235 q 711 169 767 192 q 598 148 656 146 q 488 176 540 150 q 397 251 435 203 q 372 292 382 271 q 353 336 361 313 q 337 449 336 390 q 356 560 338 507 q 411 658 375 614 q 501 729 447 703 q 613 761 553 754 q 730 756 674 768 q 829 709 786 743 q 889 617 872 675 q 896 576 896 593 q 894 542 896 558 q 893 509 893 526 q 899 468 893 492 q 927 414 908 422 q 964 420 946 406 q 996 464 982 435 q 1010 522 1010 493 q 989 625 1010 578 q 932 708 968 672 q 849 769 896 744 q 751 801 803 793 q 633 806 694 811 q 516 780 572 800 q 412 723 460 760 q 335 633 364 686 q 306 560 315 599 q 293 481 296 521 q 294 389 290 435 q 313 300 297 343 q 390 181 336 229 q 513 108 443 133 q 659 79 582 82 q 808 96 736 76 q 825 101 813 97 q 851 108 838 104 q 878 117 865 113 q 894 121 890 121 q 916 117 906 121 q 935 107 926 114 q 956 74 946 96 q 973 26 965 51 q 984 -25 981 0 q 986 -65 988 -50 q 968 -100 983 -86 q 931 -119 957 -108 q 876 -139 906 -129 q 818 -156 846 -149 q 776 -164 790 -162 m 144 551 q 151 544 146 546 q 162 543 157 542 q 171 549 167 544 q 174 558 175 553 q 174 567 174 561 q 178 576 175 574 q 181 589 179 579 q 185 609 183 599 q 190 629 188 619 q 193 643 192 639 q 203 662 196 647 q 214 681 211 676 q 221 697 215 683 q 228 713 226 710 q 243 733 231 718 q 258 751 256 747 q 271 769 265 760 q 285 785 276 778 q 292 790 286 786 q 303 800 297 794 q 315 810 310 806 q 322 817 321 814 q 328 823 324 818 q 338 834 332 828 q 347 845 343 840 q 354 851 351 850 q 363 857 356 853 q 376 865 369 861 q 390 872 383 869 q 400 876 397 875 q 415 883 408 879 q 428 893 422 886 q 431 913 435 903 q 414 922 426 922 q 397 918 408 922 q 374 908 386 914 q 352 895 363 901 q 336 886 342 889 q 310 866 321 879 q 289 842 300 853 q 264 820 278 831 q 239 797 250 810 q 229 785 236 794 q 215 766 222 776 q 200 747 207 756 q 192 733 193 738 q 186 720 190 731 q 178 698 182 710 q 169 676 174 686 q 163 661 164 665 q 158 647 160 657 q 153 624 156 636 q 150 600 151 611 q 149 583 149 589 q 145 568 149 576 q 144 551 142 560 m 621 457 q 629 396 615 417 q 665 372 643 375 q 709 384 686 368 q 746 433 732 400 q 751 525 763 476 q 733 550 747 542 q 702 558 719 558 q 668 549 685 558 q 642 522 651 540 q 629 490 635 507 q 621 457 624 474 z "},"A":{"ha":1124,"x_min":19,"x_max":1108,"o":"m 350 -40 q 326 -43 339 -42 q 301 -42 313 -44 q 256 -35 289 -39 q 185 -27 222 -32 q 115 -17 147 -22 q 69 -7 82 -12 q 47 3 58 -3 q 29 21 36 10 q 21 72 19 38 q 29 144 22 106 q 45 217 36 182 q 60 269 54 251 q 164 578 106 426 q 294 876 222 729 q 331 947 313 913 q 375 1013 350 981 q 384 1022 379 1018 q 396 1029 389 1026 q 491 1053 439 1046 q 592 1062 543 1060 q 683 1063 642 1064 q 744 1063 724 1063 q 796 1049 783 1063 q 818 1015 808 1035 q 825 993 819 1010 q 835 958 831 976 q 845 924 840 940 q 853 901 850 907 q 906 733 879 817 q 954 563 932 649 q 969 511 957 549 q 996 424 981 474 q 1029 319 1011 375 q 1063 213 1047 263 q 1090 126 1078 164 q 1106 75 1101 89 q 1108 54 1108 65 q 1104 33 1108 43 q 1067 4 1096 14 q 1005 -11 1039 -6 q 937 -19 971 -17 q 883 -24 903 -21 q 776 35 806 -33 q 749 104 764 63 q 719 194 735 146 q 635 201 678 199 q 551 201 593 204 q 497 197 524 200 q 443 190 471 194 q 436 189 439 190 q 418 110 426 149 q 403 38 410 72 q 397 6 399 19 q 392 -17 396 -8 q 378 -32 388 -26 q 350 -40 368 -37 m 263 628 q 268 619 263 621 q 281 619 274 617 q 287 625 285 621 q 292 632 289 629 q 309 672 303 651 q 324 713 315 693 q 344 761 332 738 q 368 808 357 785 q 376 828 369 814 q 392 858 383 842 q 407 889 400 875 q 417 908 414 903 q 424 921 418 913 q 435 938 429 929 q 445 956 440 947 q 451 969 450 965 q 447 983 453 979 q 433 988 442 988 q 417 983 425 988 q 406 969 410 978 q 386 934 399 950 q 367 899 374 918 q 354 867 364 890 q 333 817 344 844 q 310 767 321 790 q 297 736 300 744 q 284 693 289 715 q 271 649 279 671 q 266 638 269 646 q 263 628 263 631 m 575 699 q 534 577 556 649 q 492 424 513 506 q 549 431 519 428 q 607 433 578 433 q 624 434 613 433 q 650 435 636 435 q 608 584 626 514 q 575 699 589 654 z "},"À":{"ha":1124,"x_min":19,"x_max":1108,"o":"m 350 -40 q 326 -43 339 -42 q 301 -42 313 -44 q 256 -35 289 -39 q 185 -27 222 -32 q 115 -17 147 -22 q 69 -7 82 -12 q 47 3 58 -3 q 29 21 36 10 q 21 72 19 38 q 29 144 22 106 q 45 217 36 182 q 60 269 54 251 q 164 578 106 426 q 294 876 222 729 q 331 947 313 913 q 375 1013 350 981 q 384 1022 379 1018 q 396 1029 389 1026 q 491 1053 439 1046 q 592 1062 543 1060 q 683 1063 642 1064 q 744 1063 724 1063 q 796 1049 783 1063 q 818 1015 808 1035 q 825 993 819 1010 q 835 958 831 976 q 845 924 840 940 q 853 901 850 907 q 906 733 879 817 q 954 563 932 649 q 969 511 957 549 q 996 424 981 474 q 1029 319 1011 375 q 1063 213 1047 263 q 1090 126 1078 164 q 1106 75 1101 89 q 1108 54 1108 65 q 1104 33 1108 43 q 1067 4 1096 14 q 1005 -11 1039 -6 q 937 -19 971 -17 q 883 -24 903 -21 q 776 35 806 -33 q 749 104 764 63 q 719 194 735 146 q 635 201 678 199 q 551 201 593 204 q 497 197 524 200 q 443 190 471 194 q 436 189 439 190 q 418 110 426 149 q 403 38 410 72 q 397 6 399 19 q 392 -17 396 -8 q 378 -32 388 -26 q 350 -40 368 -37 m 263 628 q 268 619 263 621 q 281 619 274 617 q 287 625 285 621 q 292 632 289 629 q 309 672 303 651 q 324 713 315 693 q 344 761 332 738 q 368 808 357 785 q 376 828 369 814 q 392 858 383 842 q 407 889 400 875 q 417 908 414 903 q 424 921 418 913 q 435 938 429 929 q 445 956 440 947 q 451 969 450 965 q 447 983 453 979 q 433 988 442 988 q 417 983 425 988 q 406 969 410 978 q 386 934 399 950 q 367 899 374 918 q 354 867 364 890 q 333 817 344 844 q 310 767 321 790 q 297 736 300 744 q 284 693 289 715 q 271 649 279 671 q 266 638 269 646 q 263 628 263 631 m 575 699 q 534 577 556 649 q 492 424 513 506 q 549 431 519 428 q 607 433 578 433 q 624 434 613 433 q 650 435 636 435 q 608 584 626 514 q 575 699 589 654 z "},"Á":{"ha":1124,"x_min":19,"x_max":1108,"o":"m 350 -40 q 326 -43 339 -42 q 301 -42 313 -44 q 256 -35 289 -39 q 185 -27 222 -32 q 115 -17 147 -22 q 69 -7 82 -12 q 47 3 58 -3 q 29 21 36 10 q 21 72 19 38 q 29 144 22 106 q 45 217 36 182 q 60 269 54 251 q 164 578 106 426 q 294 876 222 729 q 331 947 313 913 q 375 1013 350 981 q 384 1022 379 1018 q 396 1029 389 1026 q 491 1053 439 1046 q 592 1062 543 1060 q 683 1063 642 1064 q 744 1063 724 1063 q 796 1049 783 1063 q 818 1015 808 1035 q 825 993 819 1010 q 835 958 831 976 q 845 924 840 940 q 853 901 850 907 q 906 733 879 817 q 954 563 932 649 q 969 511 957 549 q 996 424 981 474 q 1029 319 1011 375 q 1063 213 1047 263 q 1090 126 1078 164 q 1106 75 1101 89 q 1108 54 1108 65 q 1104 33 1108 43 q 1067 4 1096 14 q 1005 -11 1039 -6 q 937 -19 971 -17 q 883 -24 903 -21 q 776 35 806 -33 q 749 104 764 63 q 719 194 735 146 q 635 201 678 199 q 551 201 593 204 q 497 197 524 200 q 443 190 471 194 q 436 189 439 190 q 418 110 426 149 q 403 38 410 72 q 397 6 399 19 q 392 -17 396 -8 q 378 -32 388 -26 q 350 -40 368 -37 m 263 628 q 268 619 263 621 q 281 619 274 617 q 287 625 285 621 q 292 632 289 629 q 309 672 303 651 q 324 713 315 693 q 344 761 332 738 q 368 808 357 785 q 376 828 369 814 q 392 858 383 842 q 407 889 400 875 q 417 908 414 903 q 424 921 418 913 q 435 938 429 929 q 445 956 440 947 q 451 969 450 965 q 447 983 453 979 q 433 988 442 988 q 417 983 425 988 q 406 969 410 978 q 386 934 399 950 q 367 899 374 918 q 354 867 364 890 q 333 817 344 844 q 310 767 321 790 q 297 736 300 744 q 284 693 289 715 q 271 649 279 671 q 266 638 269 646 q 263 628 263 631 m 575 699 q 534 577 556 649 q 492 424 513 506 q 549 431 519 428 q 607 433 578 433 q 624 434 613 433 q 650 435 636 435 q 608 584 626 514 q 575 699 589 654 z "},"Â":{"ha":1124,"x_min":19,"x_max":1108,"o":"m 350 -40 q 326 -43 339 -42 q 301 -42 313 -44 q 256 -35 289 -39 q 185 -27 222 -32 q 115 -17 147 -22 q 69 -7 82 -12 q 47 3 58 -3 q 29 21 36 10 q 21 72 19 38 q 29 144 22 106 q 45 217 36 182 q 60 269 54 251 q 164 578 106 426 q 294 876 222 729 q 331 947 313 913 q 375 1013 350 981 q 384 1022 379 1018 q 396 1029 389 1026 q 491 1053 439 1046 q 592 1062 543 1060 q 683 1063 642 1064 q 744 1063 724 1063 q 796 1049 783 1063 q 818 1015 808 1035 q 825 993 819 1010 q 835 958 831 976 q 845 924 840 940 q 853 901 850 907 q 906 733 879 817 q 954 563 932 649 q 969 511 957 549 q 996 424 981 474 q 1029 319 1011 375 q 1063 213 1047 263 q 1090 126 1078 164 q 1106 75 1101 89 q 1108 54 1108 65 q 1104 33 1108 43 q 1067 4 1096 14 q 1005 -11 1039 -6 q 937 -19 971 -17 q 883 -24 903 -21 q 776 35 806 -33 q 749 104 764 63 q 719 194 735 146 q 635 201 678 199 q 551 201 593 204 q 497 197 524 200 q 443 190 471 194 q 436 189 439 190 q 418 110 426 149 q 403 38 410 72 q 397 6 399 19 q 392 -17 396 -8 q 378 -32 388 -26 q 350 -40 368 -37 m 263 628 q 268 619 263 621 q 281 619 274 617 q 287 625 285 621 q 292 632 289 629 q 309 672 303 651 q 324 713 315 693 q 344 761 332 738 q 368 808 357 785 q 376 828 369 814 q 392 858 383 842 q 407 889 400 875 q 417 908 414 903 q 424 921 418 913 q 435 938 429 929 q 445 956 440 947 q 451 969 450 965 q 447 983 453 979 q 433 988 442 988 q 417 983 425 988 q 406 969 410 978 q 386 934 399 950 q 367 899 374 918 q 354 867 364 890 q 333 817 344 844 q 310 767 321 790 q 297 736 300 744 q 284 693 289 715 q 271 649 279 671 q 266 638 269 646 q 263 628 263 631 m 575 699 q 534 577 556 649 q 492 424 513 506 q 549 431 519 428 q 607 433 578 433 q 624 434 613 433 q 650 435 636 435 q 608 584 626 514 q 575 699 589 654 z "},"Ã":{"ha":1124,"x_min":19,"x_max":1108,"o":"m 350 -40 q 326 -43 339 -42 q 301 -42 313 -44 q 256 -35 289 -39 q 185 -27 222 -32 q 115 -17 147 -22 q 69 -7 82 -12 q 47 3 58 -3 q 29 21 36 10 q 21 72 19 38 q 29 144 22 106 q 45 217 36 182 q 60 269 54 251 q 164 578 106 426 q 294 876 222 729 q 331 947 313 913 q 375 1013 350 981 q 384 1022 379 1018 q 396 1029 389 1026 q 491 1053 439 1046 q 592 1062 543 1060 q 683 1063 642 1064 q 744 1063 724 1063 q 796 1049 783 1063 q 818 1015 808 1035 q 825 993 819 1010 q 835 958 831 976 q 845 924 840 940 q 853 901 850 907 q 906 733 879 817 q 954 563 932 649 q 969 511 957 549 q 996 424 981 474 q 1029 319 1011 375 q 1063 213 1047 263 q 1090 126 1078 164 q 1106 75 1101 89 q 1108 54 1108 65 q 1104 33 1108 43 q 1067 4 1096 14 q 1005 -11 1039 -6 q 937 -19 971 -17 q 883 -24 903 -21 q 776 35 806 -33 q 749 104 764 63 q 719 194 735 146 q 635 201 678 199 q 551 201 593 204 q 497 197 524 200 q 443 190 471 194 q 436 189 439 190 q 418 110 426 149 q 403 38 410 72 q 397 6 399 19 q 392 -17 396 -8 q 378 -32 388 -26 q 350 -40 368 -37 m 263 628 q 268 619 263 621 q 281 619 274 617 q 287 625 285 621 q 292 632 289 629 q 309 672 303 651 q 324 713 315 693 q 344 761 332 738 q 368 808 357 785 q 376 828 369 814 q 392 858 383 842 q 407 889 400 875 q 417 908 414 903 q 424 921 418 913 q 435 938 429 929 q 445 956 440 947 q 451 969 450 965 q 447 983 453 979 q 433 988 442 988 q 417 983 425 988 q 406 969 410 978 q 386 934 399 950 q 367 899 374 918 q 354 867 364 890 q 333 817 344 844 q 310 767 321 790 q 297 736 300 744 q 284 693 289 715 q 271 649 279 671 q 266 638 269 646 q 263 628 263 631 m 575 699 q 534 577 556 649 q 492 424 513 506 q 549 431 519 428 q 607 433 578 433 q 624 434 613 433 q 650 435 636 435 q 608 584 626 514 q 575 699 589 654 z "},"Ä":{"ha":1124,"x_min":19,"x_max":1108,"o":"m 350 -40 q 326 -43 339 -42 q 301 -42 313 -44 q 256 -35 289 -39 q 185 -27 222 -32 q 115 -17 147 -22 q 69 -7 82 -12 q 47 3 58 -3 q 29 21 36 10 q 21 72 19 38 q 29 144 22 106 q 45 217 36 182 q 60 269 54 251 q 164 578 106 426 q 294 876 222 729 q 331 947 313 913 q 375 1013 350 981 q 384 1022 379 1018 q 396 1029 389 1026 q 491 1053 439 1046 q 592 1062 543 1060 q 683 1063 642 1064 q 744 1063 724 1063 q 796 1049 783 1063 q 818 1015 808 1035 q 825 993 819 1010 q 835 958 831 976 q 845 924 840 940 q 853 901 850 907 q 906 733 879 817 q 954 563 932 649 q 969 511 957 549 q 996 424 981 474 q 1029 319 1011 375 q 1063 213 1047 263 q 1090 126 1078 164 q 1106 75 1101 89 q 1108 54 1108 65 q 1104 33 1108 43 q 1067 4 1096 14 q 1005 -11 1039 -6 q 937 -19 971 -17 q 883 -24 903 -21 q 776 35 806 -33 q 749 104 764 63 q 719 194 735 146 q 635 201 678 199 q 551 201 593 204 q 497 197 524 200 q 443 190 471 194 q 436 189 439 190 q 418 110 426 149 q 403 38 410 72 q 397 6 399 19 q 392 -17 396 -8 q 378 -32 388 -26 q 350 -40 368 -37 m 263 628 q 268 619 263 621 q 281 619 274 617 q 287 625 285 621 q 292 632 289 629 q 309 672 303 651 q 324 713 315 693 q 344 761 332 738 q 368 808 357 785 q 376 828 369 814 q 392 858 383 842 q 407 889 400 875 q 417 908 414 903 q 424 921 418 913 q 435 938 429 929 q 445 956 440 947 q 451 969 450 965 q 447 983 453 979 q 433 988 442 988 q 417 983 425 988 q 406 969 410 978 q 386 934 399 950 q 367 899 374 918 q 354 867 364 890 q 333 817 344 844 q 310 767 321 790 q 297 736 300 744 q 284 693 289 715 q 271 649 279 671 q 266 638 269 646 q 263 628 263 631 m 575 699 q 534 577 556 649 q 492 424 513 506 q 549 431 519 428 q 607 433 578 433 q 624 434 613 433 q 650 435 636 435 q 608 584 626 514 q 575 699 589 654 z "},"Å":{"ha":1124,"x_min":19,"x_max":1108,"o":"m 350 -40 q 326 -43 339 -42 q 301 -42 313 -44 q 256 -35 289 -39 q 185 -27 222 -32 q 115 -17 147 -22 q 69 -7 82 -12 q 47 3 58 -3 q 29 21 36 10 q 21 72 19 38 q 29 144 22 106 q 45 217 36 182 q 60 269 54 251 q 164 578 106 426 q 294 876 222 729 q 331 947 313 913 q 375 1013 350 981 q 384 1022 379 1018 q 396 1029 389 1026 q 491 1053 439 1046 q 592 1062 543 1060 q 683 1063 642 1064 q 744 1063 724 1063 q 796 1049 783 1063 q 818 1015 808 1035 q 825 993 819 1010 q 835 958 831 976 q 845 924 840 940 q 853 901 850 907 q 906 733 879 817 q 954 563 932 649 q 969 511 957 549 q 996 424 981 474 q 1029 319 1011 375 q 1063 213 1047 263 q 1090 126 1078 164 q 1106 75 1101 89 q 1108 54 1108 65 q 1104 33 1108 43 q 1067 4 1096 14 q 1005 -11 1039 -6 q 937 -19 971 -17 q 883 -24 903 -21 q 776 35 806 -33 q 749 104 764 63 q 719 194 735 146 q 635 201 678 199 q 551 201 593 204 q 497 197 524 200 q 443 190 471 194 q 436 189 439 190 q 418 110 426 149 q 403 38 410 72 q 397 6 399 19 q 392 -17 396 -8 q 378 -32 388 -26 q 350 -40 368 -37 m 263 628 q 268 619 263 621 q 281 619 274 617 q 287 625 285 621 q 292 632 289 629 q 309 672 303 651 q 324 713 315 693 q 344 761 332 738 q 368 808 357 785 q 376 828 369 814 q 392 858 383 842 q 407 889 400 875 q 417 908 414 903 q 424 921 418 913 q 435 938 429 929 q 445 956 440 947 q 451 969 450 965 q 447 983 453 979 q 433 988 442 988 q 417 983 425 988 q 406 969 410 978 q 386 934 399 950 q 367 899 374 918 q 354 867 364 890 q 333 817 344 844 q 310 767 321 790 q 297 736 300 744 q 284 693 289 715 q 271 649 279 671 q 266 638 269 646 q 263 628 263 631 m 575 699 q 534 577 556 649 q 492 424 513 506 q 549 431 519 428 q 607 433 578 433 q 624 434 613 433 q 650 435 636 435 q 608 584 626 514 q 575 699 589 654 z "},"B":{"ha":1018,"x_min":72,"x_max":964,"o":"m 833 46 q 691 -19 767 1 q 536 -44 615 -39 q 377 -42 457 -49 q 221 -25 297 -36 q 191 -26 204 -26 q 171 -26 178 -26 q 147 -23 160 -25 q 126 -12 135 -21 q 106 29 114 0 q 93 92 97 58 q 87 159 89 126 q 83 211 85 192 q 74 546 72 379 q 92 879 75 713 q 97 940 93 906 q 111 1006 101 975 q 139 1058 121 1038 q 188 1079 157 1079 q 432 1074 310 1079 q 674 1038 554 1069 q 730 1022 701 1031 q 785 1001 758 1014 q 853 961 821 985 q 908 907 885 938 q 949 824 936 871 q 960 733 963 778 q 946 672 957 701 q 917 615 935 643 q 865 558 896 583 q 800 514 835 532 q 864 483 833 503 q 918 436 894 464 q 951 371 940 410 q 963 290 961 332 q 955 206 964 247 q 929 136 946 165 q 887 86 913 108 q 833 46 861 64 m 149 656 q 164 655 156 650 q 172 668 172 660 q 172 672 171 669 q 174 676 174 675 q 175 690 175 681 q 175 710 175 699 q 175 730 175 721 q 175 743 175 739 q 176 772 175 750 q 178 817 176 793 q 180 863 179 842 q 181 892 181 885 q 184 933 182 913 q 194 972 186 953 q 199 982 196 975 q 206 992 201 989 q 238 999 222 999 q 274 997 256 997 q 311 996 292 996 q 331 994 321 989 q 346 1011 342 1000 q 344 1025 350 1021 q 328 1031 339 1029 q 306 1032 318 1032 q 282 1033 293 1032 q 248 1033 265 1035 q 214 1026 231 1032 q 190 1016 201 1024 q 171 997 178 1008 q 149 945 156 974 q 138 889 142 917 q 138 860 138 882 q 140 832 139 839 q 142 804 142 825 q 144 760 143 783 q 145 717 144 738 q 146 689 146 696 q 144 670 146 682 q 149 656 143 658 m 426 644 q 459 643 442 643 q 492 644 476 643 q 524 647 504 644 q 563 656 543 650 q 599 669 582 661 q 624 686 617 676 q 637 715 635 699 q 632 747 639 732 q 601 781 622 769 q 553 797 579 792 q 497 803 526 803 q 440 804 467 804 q 427 727 433 763 q 426 644 421 692 m 449 271 q 496 268 469 268 q 548 272 522 268 q 597 285 574 276 q 632 306 619 293 q 643 342 649 321 q 618 379 638 364 q 592 393 607 388 q 563 401 578 399 q 501 410 532 408 q 438 414 469 413 q 437 342 432 378 q 449 271 442 307 z "},"C":{"ha":964,"x_min":44,"x_max":932,"o":"m 743 -11 q 585 -40 668 -39 q 422 -25 501 -42 q 319 7 369 -14 q 225 60 269 28 q 153 128 185 89 q 103 213 122 168 q 56 378 68 292 q 49 550 44 464 q 64 678 51 615 q 104 801 76 742 q 189 922 135 868 q 310 1011 243 976 q 438 1055 368 1040 q 581 1067 508 1069 q 724 1047 654 1065 q 849 993 793 1028 q 870 980 858 988 q 894 964 882 972 q 915 947 906 956 q 928 928 924 938 q 928 901 932 917 q 916 868 924 885 q 899 836 908 851 q 885 811 890 821 q 858 766 875 794 q 822 710 842 738 q 781 663 803 683 q 740 638 760 642 q 710 641 725 635 q 682 657 694 647 q 643 687 663 672 q 600 711 624 701 q 555 723 579 719 q 507 719 531 726 q 451 685 474 711 q 417 626 429 660 q 400 553 404 592 q 400 482 396 515 q 410 432 403 457 q 429 386 417 407 q 499 335 456 344 q 539 331 518 329 q 579 336 560 332 q 707 375 646 349 q 728 385 715 379 q 753 394 740 390 q 777 400 765 399 q 796 397 789 401 q 808 385 803 393 q 818 371 814 378 q 836 333 824 361 q 862 272 849 304 q 887 210 875 239 q 903 171 899 181 q 915 131 910 151 q 913 92 919 111 q 885 60 907 75 q 838 31 864 44 q 786 6 813 17 q 743 -11 760 -6 m 164 722 q 178 711 167 711 q 193 722 190 711 q 200 740 194 726 q 207 758 206 754 q 221 783 211 767 q 243 816 231 799 q 267 848 256 833 q 286 869 279 863 q 343 907 311 889 q 392 936 368 921 q 442 963 417 951 q 476 972 458 969 q 510 976 493 974 q 526 983 519 978 q 533 996 532 989 q 531 1009 535 1003 q 518 1017 528 1015 q 498 1017 511 1018 q 471 1012 485 1015 q 444 1005 457 1008 q 425 999 431 1001 q 371 966 397 983 q 315 935 344 949 q 287 918 300 928 q 260 899 274 908 q 230 865 242 885 q 210 826 218 846 q 202 813 207 819 q 194 800 197 807 q 169 742 179 772 q 165 733 168 738 q 164 722 163 728 z "},"Ç":{"ha":964,"x_min":44,"x_max":932,"o":"m 743 -11 q 585 -40 668 -39 q 422 -25 501 -42 q 319 7 369 -14 q 225 60 269 28 q 153 128 185 89 q 103 213 122 168 q 56 378 68 292 q 49 550 44 464 q 64 678 51 615 q 104 801 76 742 q 189 922 135 868 q 310 1011 243 976 q 438 1055 368 1040 q 581 1067 508 1069 q 724 1047 654 1065 q 849 993 793 1028 q 870 980 858 988 q 894 964 882 972 q 915 947 906 956 q 928 928 924 938 q 928 901 932 917 q 916 868 924 885 q 899 836 908 851 q 885 811 890 821 q 858 766 875 794 q 822 710 842 738 q 781 663 803 683 q 740 638 760 642 q 710 641 725 635 q 682 657 694 647 q 643 687 663 672 q 600 711 624 701 q 555 723 579 719 q 507 719 531 726 q 451 685 474 711 q 417 626 429 660 q 400 553 404 592 q 400 482 396 515 q 410 432 403 457 q 429 386 417 407 q 499 335 456 344 q 539 331 518 329 q 579 336 560 332 q 707 375 646 349 q 728 385 715 379 q 753 394 740 390 q 777 400 765 399 q 796 397 789 401 q 808 385 803 393 q 818 371 814 378 q 836 333 824 361 q 862 272 849 304 q 887 210 875 239 q 903 171 899 181 q 915 131 910 151 q 913 92 919 111 q 885 60 907 75 q 838 31 864 44 q 786 6 813 17 q 743 -11 760 -6 m 164 722 q 178 711 167 711 q 193 722 190 711 q 200 740 194 726 q 207 758 206 754 q 221 783 211 767 q 243 816 231 799 q 267 848 256 833 q 286 869 279 863 q 343 907 311 889 q 392 936 368 921 q 442 963 417 951 q 476 972 458 969 q 510 976 493 974 q 526 983 519 978 q 533 996 532 989 q 531 1009 535 1003 q 518 1017 528 1015 q 498 1017 511 1018 q 471 1012 485 1015 q 444 1005 457 1008 q 425 999 431 1001 q 371 966 397 983 q 315 935 344 949 q 287 918 300 928 q 260 899 274 908 q 230 865 242 885 q 210 826 218 846 q 202 813 207 819 q 194 800 197 807 q 169 742 179 772 q 165 733 168 738 q 164 722 163 728 z "},"D":{"ha":1083,"x_min":72,"x_max":1042,"o":"m 833 46 q 691 -19 767 1 q 536 -44 615 -39 q 377 -42 457 -49 q 221 -25 297 -36 q 191 -26 204 -26 q 171 -26 178 -26 q 147 -23 160 -25 q 126 -12 135 -21 q 106 29 114 0 q 93 92 97 58 q 87 159 89 126 q 83 211 85 192 q 74 546 72 379 q 92 879 75 713 q 97 940 93 906 q 111 1006 101 975 q 139 1058 121 1038 q 188 1079 157 1079 q 432 1074 310 1079 q 674 1038 554 1069 q 730 1022 701 1031 q 785 1001 758 1014 q 853 961 821 985 q 908 907 885 938 q 985 772 954 847 q 1028 616 1015 697 q 1038 451 1042 535 q 1010 292 1033 368 q 943 153 988 217 q 833 46 899 89 m 163 657 q 183 653 171 647 q 189 671 196 660 q 190 690 189 675 q 192 721 190 704 q 194 752 193 738 q 194 771 194 767 q 197 811 196 783 q 201 870 199 839 q 206 929 203 901 q 214 968 208 957 q 220 976 215 971 q 226 983 225 981 q 236 986 229 986 q 246 988 243 986 q 281 990 264 990 q 317 986 299 989 q 340 991 332 983 q 349 1007 349 999 q 343 1022 350 1015 q 321 1028 336 1029 q 292 1025 310 1026 q 255 1022 274 1024 q 220 1015 236 1019 q 199 1001 204 1010 q 189 990 193 996 q 181 979 185 985 q 178 969 179 976 q 175 953 176 961 q 172 937 174 944 q 171 925 171 929 q 167 892 168 908 q 161 860 165 875 q 155 787 151 824 q 158 714 158 750 q 158 701 158 710 q 158 685 158 693 q 159 669 158 676 q 163 657 160 661 m 449 271 q 581 289 528 260 q 665 404 635 318 q 684 494 681 447 q 685 586 688 540 q 678 646 683 617 q 661 703 672 675 q 619 758 644 738 q 565 788 594 778 q 503 801 536 799 q 440 804 471 804 q 431 740 435 783 q 426 644 428 697 q 424 532 424 590 q 427 422 425 474 q 435 329 429 369 q 449 271 440 289 z "},"E":{"ha":896,"x_min":68,"x_max":844,"o":"m 483 -24 q 356 -24 419 -24 q 231 -10 293 -25 q 157 31 185 1 q 113 101 129 61 q 90 185 97 140 q 81 272 83 231 q 73 401 76 340 q 69 523 69 463 q 70 647 68 583 q 78 781 72 710 q 87 860 81 819 q 109 935 93 900 q 153 997 125 971 q 228 1035 182 1024 q 353 1049 289 1050 q 479 1047 417 1047 q 560 1047 519 1049 q 642 1044 601 1046 l 707 1044 q 728 1043 714 1044 q 759 1040 743 1042 q 789 1034 775 1038 q 808 1028 803 1031 q 825 1013 819 1022 q 833 994 831 1004 q 838 904 844 950 q 835 811 832 858 q 834 765 836 782 q 824 737 832 747 q 801 723 817 726 q 760 719 785 719 q 661 726 714 719 q 563 732 608 733 q 485 714 517 731 q 450 651 454 697 l 450 644 l 500 644 q 577 646 538 642 q 653 643 617 650 q 676 635 667 640 q 689 615 683 629 q 694 594 694 601 q 697 554 694 581 q 698 501 699 528 q 692 449 697 474 q 674 415 688 425 q 658 408 667 410 q 638 404 649 406 q 572 401 622 403 q 454 399 522 400 q 456 383 456 390 q 457 368 457 375 q 494 298 463 317 q 572 278 526 279 q 669 284 617 276 q 767 292 721 292 q 808 288 792 292 q 831 272 824 283 q 841 241 839 261 q 842 189 843 221 q 842 146 840 164 q 844 111 843 128 q 844 77 844 94 q 838 35 843 60 q 828 14 835 24 q 813 -1 822 4 q 792 -8 806 -6 q 763 -14 778 -11 q 733 -18 747 -17 q 711 -19 718 -19 q 699 -19 708 -19 q 678 -19 689 -19 q 658 -19 667 -19 q 646 -19 649 -19 q 565 -23 606 -21 q 483 -24 524 -25 m 147 651 q 160 643 150 642 q 174 654 169 644 q 175 669 175 658 q 175 692 175 679 q 176 715 175 704 q 176 729 176 725 q 177 755 176 735 q 179 781 178 775 q 181 792 179 783 q 183 812 182 801 q 186 832 185 822 q 188 844 188 842 q 197 891 190 868 q 218 931 203 914 q 237 942 224 936 q 265 951 250 947 q 295 956 281 954 q 318 958 310 958 q 328 956 322 954 q 339 958 333 957 q 356 972 350 961 q 354 990 363 982 q 335 997 347 996 q 309 997 322 999 q 282 991 296 994 q 260 986 268 988 q 226 974 243 982 q 196 956 210 967 q 170 923 181 942 q 153 885 160 904 q 146 850 147 868 q 140 815 144 832 q 133 733 129 775 q 147 651 138 692 z "},"È":{"ha":896,"x_min":68,"x_max":844,"o":"m 483 -24 q 356 -24 419 -24 q 231 -10 293 -25 q 157 31 185 1 q 113 101 129 61 q 90 185 97 140 q 81 272 83 231 q 73 401 76 340 q 69 523 69 463 q 70 647 68 583 q 78 781 72 710 q 87 860 81 819 q 109 935 93 900 q 153 997 125 971 q 228 1035 182 1024 q 353 1049 289 1050 q 479 1047 417 1047 q 560 1047 519 1049 q 642 1044 601 1046 l 707 1044 q 728 1043 714 1044 q 759 1040 743 1042 q 789 1034 775 1038 q 808 1028 803 1031 q 825 1013 819 1022 q 833 994 831 1004 q 838 904 844 950 q 835 811 832 858 q 834 765 836 782 q 824 737 832 747 q 801 723 817 726 q 760 719 785 719 q 661 726 714 719 q 563 732 608 733 q 485 714 517 731 q 450 651 454 697 l 450 644 l 500 644 q 577 646 538 642 q 653 643 617 650 q 676 635 667 640 q 689 615 683 629 q 694 594 694 601 q 697 554 694 581 q 698 501 699 528 q 692 449 697 474 q 674 415 688 425 q 658 408 667 410 q 638 404 649 406 q 572 401 622 403 q 454 399 522 400 q 456 383 456 390 q 457 368 457 375 q 494 298 463 317 q 572 278 526 279 q 669 284 617 276 q 767 292 721 292 q 808 288 792 292 q 831 272 824 283 q 841 241 839 261 q 842 189 843 221 q 842 146 840 164 q 844 111 843 128 q 844 77 844 94 q 838 35 843 60 q 828 14 835 24 q 813 -1 822 4 q 792 -8 806 -6 q 763 -14 778 -11 q 733 -18 747 -17 q 711 -19 718 -19 q 699 -19 708 -19 q 678 -19 689 -19 q 658 -19 667 -19 q 646 -19 649 -19 q 565 -23 606 -21 q 483 -24 524 -25 m 147 651 q 160 643 150 642 q 174 654 169 644 q 175 669 175 658 q 175 692 175 679 q 176 715 175 704 q 176 729 176 725 q 177 755 176 735 q 179 781 178 775 q 181 792 179 783 q 183 812 182 801 q 186 832 185 822 q 188 844 188 842 q 197 891 190 868 q 218 931 203 914 q 237 942 224 936 q 265 951 250 947 q 295 956 281 954 q 318 958 310 958 q 328 956 322 954 q 339 958 333 957 q 356 972 350 961 q 354 990 363 982 q 335 997 347 996 q 309 997 322 999 q 282 991 296 994 q 260 986 268 988 q 226 974 243 982 q 196 956 210 967 q 170 923 181 942 q 153 885 160 904 q 146 850 147 868 q 140 815 144 832 q 133 733 129 775 q 147 651 138 692 z "},"É":{"ha":896,"x_min":68,"x_max":844,"o":"m 483 -24 q 356 -24 419 -24 q 231 -10 293 -25 q 157 31 185 1 q 113 101 129 61 q 90 185 97 140 q 81 272 83 231 q 73 401 76 340 q 69 523 69 463 q 70 647 68 583 q 78 781 72 710 q 87 860 81 819 q 109 935 93 900 q 153 997 125 971 q 228 1035 182 1024 q 353 1049 289 1050 q 479 1047 417 1047 q 560 1047 519 1049 q 642 1044 601 1046 l 707 1044 q 728 1043 714 1044 q 759 1040 743 1042 q 789 1034 775 1038 q 808 1028 803 1031 q 825 1013 819 1022 q 833 994 831 1004 q 838 904 844 950 q 835 811 832 858 q 834 765 836 782 q 824 737 832 747 q 801 723 817 726 q 760 719 785 719 q 661 726 714 719 q 563 732 608 733 q 485 714 517 731 q 450 651 454 697 l 450 644 l 500 644 q 577 646 538 642 q 653 643 617 650 q 676 635 667 640 q 689 615 683 629 q 694 594 694 601 q 697 554 694 581 q 698 501 699 528 q 692 449 697 474 q 674 415 688 425 q 658 408 667 410 q 638 404 649 406 q 572 401 622 403 q 454 399 522 400 q 456 383 456 390 q 457 368 457 375 q 494 298 463 317 q 572 278 526 279 q 669 284 617 276 q 767 292 721 292 q 808 288 792 292 q 831 272 824 283 q 841 241 839 261 q 842 189 843 221 q 842 146 840 164 q 844 111 843 128 q 844 77 844 94 q 838 35 843 60 q 828 14 835 24 q 813 -1 822 4 q 792 -8 806 -6 q 763 -14 778 -11 q 733 -18 747 -17 q 711 -19 718 -19 q 699 -19 708 -19 q 678 -19 689 -19 q 658 -19 667 -19 q 646 -19 649 -19 q 565 -23 606 -21 q 483 -24 524 -25 m 147 651 q 160 643 150 642 q 174 654 169 644 q 175 669 175 658 q 175 692 175 679 q 176 715 175 704 q 176 729 176 725 q 177 755 176 735 q 179 781 178 775 q 181 792 179 783 q 183 812 182 801 q 186 832 185 822 q 188 844 188 842 q 197 891 190 868 q 218 931 203 914 q 237 942 224 936 q 265 951 250 947 q 295 956 281 954 q 318 958 310 958 q 328 956 322 954 q 339 958 333 957 q 356 972 350 961 q 354 990 363 982 q 335 997 347 996 q 309 997 322 999 q 282 991 296 994 q 260 986 268 988 q 226 974 243 982 q 196 956 210 967 q 170 923 181 942 q 153 885 160 904 q 146 850 147 868 q 140 815 144 832 q 133 733 129 775 q 147 651 138 692 z "},"Ê":{"ha":896,"x_min":68,"x_max":844,"o":"m 483 -24 q 356 -24 419 -24 q 231 -10 293 -25 q 157 31 185 1 q 113 101 129 61 q 90 185 97 140 q 81 272 83 231 q 73 401 76 340 q 69 523 69 463 q 70 647 68 583 q 78 781 72 710 q 87 860 81 819 q 109 935 93 900 q 153 997 125 971 q 228 1035 182 1024 q 353 1049 289 1050 q 479 1047 417 1047 q 560 1047 519 1049 q 642 1044 601 1046 l 707 1044 q 728 1043 714 1044 q 759 1040 743 1042 q 789 1034 775 1038 q 808 1028 803 1031 q 825 1013 819 1022 q 833 994 831 1004 q 838 904 844 950 q 835 811 832 858 q 834 765 836 782 q 824 737 832 747 q 801 723 817 726 q 760 719 785 719 q 661 726 714 719 q 563 732 608 733 q 485 714 517 731 q 450 651 454 697 l 450 644 l 500 644 q 577 646 538 642 q 653 643 617 650 q 676 635 667 640 q 689 615 683 629 q 694 594 694 601 q 697 554 694 581 q 698 501 699 528 q 692 449 697 474 q 674 415 688 425 q 658 408 667 410 q 638 404 649 406 q 572 401 622 403 q 454 399 522 400 q 456 383 456 390 q 457 368 457 375 q 494 298 463 317 q 572 278 526 279 q 669 284 617 276 q 767 292 721 292 q 808 288 792 292 q 831 272 824 283 q 841 241 839 261 q 842 189 843 221 q 842 146 840 164 q 844 111 843 128 q 844 77 844 94 q 838 35 843 60 q 828 14 835 24 q 813 -1 822 4 q 792 -8 806 -6 q 763 -14 778 -11 q 733 -18 747 -17 q 711 -19 718 -19 q 699 -19 708 -19 q 678 -19 689 -19 q 658 -19 667 -19 q 646 -19 649 -19 q 565 -23 606 -21 q 483 -24 524 -25 m 147 651 q 160 643 150 642 q 174 654 169 644 q 175 669 175 658 q 175 692 175 679 q 176 715 175 704 q 176 729 176 725 q 177 755 176 735 q 179 781 178 775 q 181 792 179 783 q 183 812 182 801 q 186 832 185 822 q 188 844 188 842 q 197 891 190 868 q 218 931 203 914 q 237 942 224 936 q 265 951 250 947 q 295 956 281 954 q 318 958 310 958 q 328 956 322 954 q 339 958 333 957 q 356 972 350 961 q 354 990 363 982 q 335 997 347 996 q 309 997 322 999 q 282 991 296 994 q 260 986 268 988 q 226 974 243 982 q 196 956 210 967 q 170 923 181 942 q 153 885 160 904 q 146 850 147 868 q 140 815 144 832 q 133 733 129 775 q 147 651 138 692 z "},"Ë":{"ha":896,"x_min":68,"x_max":844,"o":"m 483 -24 q 356 -24 419 -24 q 231 -10 293 -25 q 157 31 185 1 q 113 101 129 61 q 90 185 97 140 q 81 272 83 231 q 73 401 76 340 q 69 523 69 463 q 70 647 68 583 q 78 781 72 710 q 87 860 81 819 q 109 935 93 900 q 153 997 125 971 q 228 1035 182 1024 q 353 1049 289 1050 q 479 1047 417 1047 q 560 1047 519 1049 q 642 1044 601 1046 l 707 1044 q 728 1043 714 1044 q 759 1040 743 1042 q 789 1034 775 1038 q 808 1028 803 1031 q 825 1013 819 1022 q 833 994 831 1004 q 838 904 844 950 q 835 811 832 858 q 834 765 836 782 q 824 737 832 747 q 801 723 817 726 q 760 719 785 719 q 661 726 714 719 q 563 732 608 733 q 485 714 517 731 q 450 651 454 697 l 450 644 l 500 644 q 577 646 538 642 q 653 643 617 650 q 676 635 667 640 q 689 615 683 629 q 694 594 694 601 q 697 554 694 581 q 698 501 699 528 q 692 449 697 474 q 674 415 688 425 q 658 408 667 410 q 638 404 649 406 q 572 401 622 403 q 454 399 522 400 q 456 383 456 390 q 457 368 457 375 q 494 298 463 317 q 572 278 526 279 q 669 284 617 276 q 767 292 721 292 q 808 288 792 292 q 831 272 824 283 q 841 241 839 261 q 842 189 843 221 q 842 146 840 164 q 844 111 843 128 q 844 77 844 94 q 838 35 843 60 q 828 14 835 24 q 813 -1 822 4 q 792 -8 806 -6 q 763 -14 778 -11 q 733 -18 747 -17 q 711 -19 718 -19 q 699 -19 708 -19 q 678 -19 689 -19 q 658 -19 667 -19 q 646 -19 649 -19 q 565 -23 606 -21 q 483 -24 524 -25 m 147 651 q 160 643 150 642 q 174 654 169 644 q 175 669 175 658 q 175 692 175 679 q 176 715 175 704 q 176 729 176 725 q 177 755 176 735 q 179 781 178 775 q 181 792 179 783 q 183 812 182 801 q 186 832 185 822 q 188 844 188 842 q 197 891 190 868 q 218 931 203 914 q 237 942 224 936 q 265 951 250 947 q 295 956 281 954 q 318 958 310 958 q 328 956 322 954 q 339 958 333 957 q 356 972 350 961 q 354 990 363 982 q 335 997 347 996 q 309 997 322 999 q 282 991 296 994 q 260 986 268 988 q 226 974 243 982 q 196 956 210 967 q 170 923 181 942 q 153 885 160 904 q 146 850 147 868 q 140 815 144 832 q 133 733 129 775 q 147 651 138 692 z "},"F":{"ha":885,"x_min":69,"x_max":847,"o":"m 196 -25 q 163 -22 185 -26 q 132 -11 140 -18 q 123 -1 126 -7 q 117 11 119 4 q 99 85 104 47 q 90 160 94 122 q 71 470 72 315 q 81 781 69 625 q 90 869 83 824 q 113 953 97 914 q 157 1023 129 993 q 231 1064 185 1053 q 356 1078 293 1079 q 483 1078 419 1078 q 565 1076 524 1078 q 646 1074 606 1075 l 711 1074 q 733 1072 718 1074 q 763 1068 747 1071 q 792 1063 778 1065 q 813 1056 806 1060 q 838 1019 833 1042 q 842 918 847 969 q 839 815 836 867 q 838 763 840 783 q 828 732 836 743 q 804 717 819 721 q 764 713 789 713 q 698 717 733 713 q 628 724 663 721 q 560 726 593 726 q 504 718 528 726 q 467 691 481 710 q 454 638 453 672 l 454 629 q 542 630 499 631 q 629 628 585 629 q 706 629 667 625 q 782 626 746 633 q 806 618 796 624 q 818 599 813 613 q 824 578 824 585 q 826 538 824 564 q 827 485 828 513 q 822 433 826 457 q 803 399 817 408 q 787 391 796 393 q 767 388 778 389 q 726 385 756 386 q 656 383 697 385 q 565 381 615 382 q 464 381 515 381 q 467 270 465 325 q 471 169 469 215 q 472 90 472 122 q 472 46 472 57 q 467 25 471 35 q 457 8 464 15 q 407 -13 442 -7 q 333 -22 372 -19 q 255 -24 293 -24 q 196 -25 217 -24 m 154 685 q 171 676 158 672 q 186 694 183 681 q 190 730 188 704 q 194 783 192 756 q 199 836 196 811 q 207 871 203 861 q 210 883 208 874 q 215 902 213 892 q 220 922 218 913 q 224 935 222 932 q 247 962 229 944 q 275 983 264 979 q 294 987 281 985 q 324 991 308 989 q 353 994 339 993 q 374 996 368 996 q 389 1008 386 996 q 381 1026 392 1019 q 367 1030 376 1029 q 348 1030 358 1031 q 328 1028 338 1029 q 314 1026 319 1026 q 275 1021 294 1025 q 239 1006 256 1017 q 219 990 228 999 q 200 971 210 981 q 188 958 194 964 q 178 943 182 951 q 165 913 169 929 q 163 881 160 896 q 161 852 163 874 q 158 806 160 831 q 156 759 157 781 q 154 731 154 738 q 153 708 154 725 q 154 685 153 690 z "},"G":{"ha":1083,"x_min":44,"x_max":1060,"o":"m 981 347 q 915 178 968 256 q 783 49 861 100 q 610 -24 704 -3 q 422 -25 517 -46 q 319 7 369 -14 q 225 60 269 28 q 153 128 185 89 q 103 213 122 168 q 56 378 68 292 q 49 550 44 464 q 64 678 51 615 q 104 801 76 742 q 189 922 135 868 q 310 1011 243 976 q 438 1055 368 1040 q 581 1067 508 1069 q 724 1047 654 1065 q 849 993 793 1028 q 870 980 858 988 q 894 964 882 972 q 915 947 906 956 q 928 928 924 938 q 928 901 932 917 q 916 868 924 885 q 899 836 908 851 q 885 811 890 821 q 858 766 875 794 q 822 710 842 738 q 781 663 803 683 q 740 638 760 642 q 710 641 725 635 q 682 657 694 647 q 643 687 663 672 q 600 711 624 701 q 555 723 579 719 q 507 719 531 726 q 451 685 474 711 q 417 626 429 660 q 400 553 404 592 q 400 482 396 515 q 410 433 403 457 q 429 386 418 408 q 482 328 449 349 q 550 307 515 307 q 615 328 585 307 q 657 397 644 350 q 635 388 650 396 q 613 379 619 381 q 529 371 571 368 q 506 390 511 372 q 490 503 490 447 q 491 525 490 514 q 494 547 492 536 q 501 560 497 554 q 513 568 506 565 q 541 574 521 571 q 584 579 561 576 q 628 584 607 582 q 657 588 649 586 q 772 597 715 593 q 885 599 828 601 q 940 597 913 599 q 996 589 968 596 q 1021 583 1008 586 q 1044 572 1033 579 q 1053 562 1050 568 q 1058 549 1056 556 q 1059 524 1060 542 q 1058 487 1058 507 q 1056 449 1057 467 q 1056 425 1056 432 q 1056 394 1056 410 q 1046 368 1056 379 q 1023 355 1038 357 q 994 353 1008 353 q 986 351 992 353 q 981 347 981 350 m 146 697 q 158 678 143 681 q 175 692 174 676 q 178 710 175 697 q 187 738 182 724 q 197 764 192 751 q 204 782 201 776 q 224 813 214 797 q 242 844 233 829 q 252 857 244 849 q 268 874 260 865 q 285 891 276 883 q 297 901 293 899 q 328 918 311 913 q 360 931 344 924 q 373 937 364 932 q 392 947 382 942 q 410 956 401 951 q 424 961 419 960 q 438 965 431 964 q 453 969 446 965 q 463 987 463 976 q 453 1001 464 997 q 423 1000 443 1006 q 394 990 403 994 q 369 977 389 988 q 343 964 349 967 q 307 948 325 956 q 274 928 289 940 q 260 916 269 925 q 242 897 251 907 q 225 878 233 888 q 214 865 217 869 q 204 849 211 861 q 190 824 197 838 q 177 799 183 811 q 169 782 171 786 q 155 740 160 761 q 146 697 150 718 z "},"H":{"ha":1151,"x_min":72,"x_max":1075,"o":"m 1014 -17 q 967 -22 1001 -19 q 895 -28 933 -25 q 823 -32 857 -31 q 775 -33 789 -33 q 749 -30 763 -32 q 726 -19 736 -28 q 703 22 711 -7 q 689 85 694 51 q 681 152 683 119 q 678 204 679 185 q 674 276 675 240 q 671 347 672 311 q 603 349 632 349 q 561 347 574 349 q 518 345 539 346 q 475 343 497 344 q 476 253 475 299 q 476 164 476 208 q 478 140 476 157 q 480 102 479 122 q 481 64 481 82 q 479 40 481 46 q 475 23 478 32 q 465 7 472 14 q 443 -5 456 -1 q 419 -11 431 -8 q 372 -17 406 -14 q 299 -22 338 -19 q 227 -25 261 -24 q 181 -26 193 -26 q 155 -23 168 -25 q 132 -12 142 -21 q 108 29 117 0 q 94 92 100 58 q 87 159 89 126 q 83 211 85 192 q 74 545 72 379 q 93 879 75 711 q 102 960 97 919 q 119 1039 107 1000 q 126 1052 122 1046 q 135 1063 129 1058 q 165 1074 143 1069 q 199 1078 188 1079 q 258 1076 219 1076 q 335 1074 296 1076 q 410 1065 375 1072 q 460 1043 444 1058 q 470 1024 467 1035 q 475 1003 474 1014 q 476 949 476 988 q 474 862 475 911 q 471 758 472 813 q 468 656 469 703 q 570 657 519 657 q 672 654 621 657 q 678 763 675 708 q 688 872 682 818 q 697 953 692 913 q 715 1032 703 993 q 729 1056 719 1049 q 760 1067 738 1063 q 793 1072 782 1072 q 852 1071 814 1071 q 931 1068 890 1071 q 1005 1058 971 1065 q 1054 1036 1039 1051 q 1065 1018 1061 1029 q 1069 996 1069 1007 q 1070 945 1071 982 q 1069 860 1069 908 q 1066 760 1068 813 q 1063 659 1064 707 q 1062 574 1063 611 q 1063 524 1061 538 q 1069 341 1069 432 q 1072 158 1069 250 q 1073 134 1072 151 q 1074 97 1074 117 q 1075 58 1075 76 q 1075 35 1075 40 q 1070 16 1074 25 q 1060 1 1067 7 q 1038 -10 1050 -7 q 1014 -17 1026 -14 m 144 664 q 153 652 142 654 q 171 657 164 650 q 174 664 174 660 q 175 672 174 668 q 181 721 182 696 q 182 771 179 746 q 185 804 182 779 q 191 857 188 829 q 197 910 194 885 q 200 943 200 935 q 205 970 200 954 q 221 989 210 986 q 245 990 228 992 q 269 986 263 988 q 287 981 276 978 q 300 994 297 983 q 302 1006 301 1000 q 300 1015 303 1011 q 285 1022 296 1019 q 268 1024 274 1024 q 221 1022 240 1026 q 191 1007 204 1019 q 171 979 178 994 q 160 938 165 967 q 151 875 156 908 q 145 811 147 842 q 143 767 143 781 q 144 747 143 761 q 145 715 144 732 q 146 684 146 699 q 144 664 146 669 z "},"I":{"ha":557,"x_min":72,"x_max":481,"o":"m 419 -10 q 372 -15 406 -12 q 299 -21 338 -18 q 227 -25 261 -24 q 181 -26 193 -26 q 155 -23 168 -25 q 132 -12 142 -21 q 108 29 117 0 q 94 92 100 58 q 87 159 89 126 q 83 211 85 192 q 74 546 72 379 q 93 879 75 713 q 102 960 97 919 q 119 1039 107 1000 q 135 1063 126 1056 q 165 1074 143 1069 q 199 1079 188 1079 q 258 1078 219 1078 q 335 1075 296 1078 q 410 1065 375 1072 q 460 1043 444 1058 q 470 1025 467 1036 q 475 1003 474 1014 q 475 952 475 989 q 474 867 475 915 q 470 767 472 819 q 467 666 468 714 q 466 581 467 618 q 467 531 465 544 q 474 348 474 439 q 476 165 475 257 q 478 141 476 158 q 480 103 479 124 q 481 65 481 83 q 479 42 481 47 q 475 23 478 32 q 465 8 472 14 q 443 -3 456 0 q 419 -10 431 -7 m 138 610 q 144 596 135 599 q 163 600 154 593 q 169 610 167 604 q 174 622 171 617 q 176 646 175 629 q 178 681 178 663 q 179 717 179 700 q 179 740 179 733 q 181 760 179 744 q 185 779 183 775 q 185 793 185 783 q 186 815 186 803 q 186 837 186 826 q 186 851 186 847 q 188 873 186 856 q 192 894 190 890 l 192 917 q 197 954 193 936 q 211 988 200 972 q 227 994 215 993 q 246 994 239 994 q 263 999 256 994 q 272 1010 269 1004 q 270 1022 274 1017 q 257 1029 267 1028 q 215 1024 238 1032 q 182 1000 193 1017 q 162 954 168 979 q 153 904 156 929 q 148 876 151 889 q 142 849 144 863 q 141 834 142 844 q 139 813 140 824 q 137 791 138 801 q 136 776 136 781 q 135 758 136 767 q 132 739 133 749 q 133 724 132 735 q 134 700 133 713 q 135 676 135 688 q 136 660 136 664 q 138 634 136 653 q 138 610 140 615 z "},"Ì":{"ha":557,"x_min":72,"x_max":481,"o":"m 419 -10 q 372 -15 406 -12 q 299 -21 338 -18 q 227 -25 261 -24 q 181 -26 193 -26 q 155 -23 168 -25 q 132 -12 142 -21 q 108 29 117 0 q 94 92 100 58 q 87 159 89 126 q 83 211 85 192 q 74 546 72 379 q 93 879 75 713 q 102 960 97 919 q 119 1039 107 1000 q 135 1063 126 1056 q 165 1074 143 1069 q 199 1079 188 1079 q 258 1078 219 1078 q 335 1075 296 1078 q 410 1065 375 1072 q 460 1043 444 1058 q 470 1025 467 1036 q 475 1003 474 1014 q 475 952 475 989 q 474 867 475 915 q 470 767 472 819 q 467 666 468 714 q 466 581 467 618 q 467 531 465 544 q 474 348 474 439 q 476 165 475 257 q 478 141 476 158 q 480 103 479 124 q 481 65 481 83 q 479 42 481 47 q 475 23 478 32 q 465 8 472 14 q 443 -3 456 0 q 419 -10 431 -7 m 138 610 q 144 596 135 599 q 163 600 154 593 q 169 610 167 604 q 174 622 171 617 q 176 646 175 629 q 178 681 178 663 q 179 717 179 700 q 179 740 179 733 q 181 760 179 744 q 185 779 183 775 q 185 793 185 783 q 186 815 186 803 q 186 837 186 826 q 186 851 186 847 q 188 873 186 856 q 192 894 190 890 l 192 917 q 197 954 193 936 q 211 988 200 972 q 227 994 215 993 q 246 994 239 994 q 263 999 256 994 q 272 1010 269 1004 q 270 1022 274 1017 q 257 1029 267 1028 q 215 1024 238 1032 q 182 1000 193 1017 q 162 954 168 979 q 153 904 156 929 q 148 876 151 889 q 142 849 144 863 q 141 834 142 844 q 139 813 140 824 q 137 791 138 801 q 136 776 136 781 q 135 758 136 767 q 132 739 133 749 q 133 724 132 735 q 134 700 133 713 q 135 676 135 688 q 136 660 136 664 q 138 634 136 653 q 138 610 140 615 z "},"Í":{"ha":557,"x_min":72,"x_max":481,"o":"m 419 -10 q 372 -15 406 -12 q 299 -21 338 -18 q 227 -25 261 -24 q 181 -26 193 -26 q 155 -23 168 -25 q 132 -12 142 -21 q 108 29 117 0 q 94 92 100 58 q 87 159 89 126 q 83 211 85 192 q 74 546 72 379 q 93 879 75 713 q 102 960 97 919 q 119 1039 107 1000 q 135 1063 126 1056 q 165 1074 143 1069 q 199 1079 188 1079 q 258 1078 219 1078 q 335 1075 296 1078 q 410 1065 375 1072 q 460 1043 444 1058 q 470 1025 467 1036 q 475 1003 474 1014 q 475 952 475 989 q 474 867 475 915 q 470 767 472 819 q 467 666 468 714 q 466 581 467 618 q 467 531 465 544 q 474 348 474 439 q 476 165 475 257 q 478 141 476 158 q 480 103 479 124 q 481 65 481 83 q 479 42 481 47 q 475 23 478 32 q 465 8 472 14 q 443 -3 456 0 q 419 -10 431 -7 m 138 610 q 144 596 135 599 q 163 600 154 593 q 169 610 167 604 q 174 622 171 617 q 176 646 175 629 q 178 681 178 663 q 179 717 179 700 q 179 740 179 733 q 181 760 179 744 q 185 779 183 775 q 185 793 185 783 q 186 815 186 803 q 186 837 186 826 q 186 851 186 847 q 188 873 186 856 q 192 894 190 890 l 192 917 q 197 954 193 936 q 211 988 200 972 q 227 994 215 993 q 246 994 239 994 q 263 999 256 994 q 272 1010 269 1004 q 270 1022 274 1017 q 257 1029 267 1028 q 215 1024 238 1032 q 182 1000 193 1017 q 162 954 168 979 q 153 904 156 929 q 148 876 151 889 q 142 849 144 863 q 141 834 142 844 q 139 813 140 824 q 137 791 138 801 q 136 776 136 781 q 135 758 136 767 q 132 739 133 749 q 133 724 132 735 q 134 700 133 713 q 135 676 135 688 q 136 660 136 664 q 138 634 136 653 q 138 610 140 615 z "},"Î":{"ha":557,"x_min":72,"x_max":481,"o":"m 419 -10 q 372 -15 406 -12 q 299 -21 338 -18 q 227 -25 261 -24 q 181 -26 193 -26 q 155 -23 168 -25 q 132 -12 142 -21 q 108 29 117 0 q 94 92 100 58 q 87 159 89 126 q 83 211 85 192 q 74 546 72 379 q 93 879 75 713 q 102 960 97 919 q 119 1039 107 1000 q 135 1063 126 1056 q 165 1074 143 1069 q 199 1079 188 1079 q 258 1078 219 1078 q 335 1075 296 1078 q 410 1065 375 1072 q 460 1043 444 1058 q 470 1025 467 1036 q 475 1003 474 1014 q 475 952 475 989 q 474 867 475 915 q 470 767 472 819 q 467 666 468 714 q 466 581 467 618 q 467 531 465 544 q 474 348 474 439 q 476 165 475 257 q 478 141 476 158 q 480 103 479 124 q 481 65 481 83 q 479 42 481 47 q 475 23 478 32 q 465 8 472 14 q 443 -3 456 0 q 419 -10 431 -7 m 138 610 q 144 596 135 599 q 163 600 154 593 q 169 610 167 604 q 174 622 171 617 q 176 646 175 629 q 178 681 178 663 q 179 717 179 700 q 179 740 179 733 q 181 760 179 744 q 185 779 183 775 q 185 793 185 783 q 186 815 186 803 q 186 837 186 826 q 186 851 186 847 q 188 873 186 856 q 192 894 190 890 l 192 917 q 197 954 193 936 q 211 988 200 972 q 227 994 215 993 q 246 994 239 994 q 263 999 256 994 q 272 1010 269 1004 q 270 1022 274 1017 q 257 1029 267 1028 q 215 1024 238 1032 q 182 1000 193 1017 q 162 954 168 979 q 153 904 156 929 q 148 876 151 889 q 142 849 144 863 q 141 834 142 844 q 139 813 140 824 q 137 791 138 801 q 136 776 136 781 q 135 758 136 767 q 132 739 133 749 q 133 724 132 735 q 134 700 133 713 q 135 676 135 688 q 136 660 136 664 q 138 634 136 653 q 138 610 140 615 z "},"Ï":{"ha":557,"x_min":72,"x_max":481,"o":"m 419 -10 q 372 -15 406 -12 q 299 -21 338 -18 q 227 -25 261 -24 q 181 -26 193 -26 q 155 -23 168 -25 q 132 -12 142 -21 q 108 29 117 0 q 94 92 100 58 q 87 159 89 126 q 83 211 85 192 q 74 546 72 379 q 93 879 75 713 q 102 960 97 919 q 119 1039 107 1000 q 135 1063 126 1056 q 165 1074 143 1069 q 199 1079 188 1079 q 258 1078 219 1078 q 335 1075 296 1078 q 410 1065 375 1072 q 460 1043 444 1058 q 470 1025 467 1036 q 475 1003 474 1014 q 475 952 475 989 q 474 867 475 915 q 470 767 472 819 q 467 666 468 714 q 466 581 467 618 q 467 531 465 544 q 474 348 474 439 q 476 165 475 257 q 478 141 476 158 q 480 103 479 124 q 481 65 481 83 q 479 42 481 47 q 475 23 478 32 q 465 8 472 14 q 443 -3 456 0 q 419 -10 431 -7 m 138 610 q 144 596 135 599 q 163 600 154 593 q 169 610 167 604 q 174 622 171 617 q 176 646 175 629 q 178 681 178 663 q 179 717 179 700 q 179 740 179 733 q 181 760 179 744 q 185 779 183 775 q 185 793 185 783 q 186 815 186 803 q 186 837 186 826 q 186 851 186 847 q 188 873 186 856 q 192 894 190 890 l 192 917 q 197 954 193 936 q 211 988 200 972 q 227 994 215 993 q 246 994 239 994 q 263 999 256 994 q 272 1010 269 1004 q 270 1022 274 1017 q 257 1029 267 1028 q 215 1024 238 1032 q 182 1000 193 1017 q 162 954 168 979 q 153 904 156 929 q 148 876 151 889 q 142 849 144 863 q 141 834 142 844 q 139 813 140 824 q 137 791 138 801 q 136 776 136 781 q 135 758 136 767 q 132 739 133 749 q 133 724 132 735 q 134 700 133 713 q 135 676 135 688 q 136 660 136 664 q 138 634 136 653 q 138 610 140 615 z "},"J":{"ha":985,"x_min":25,"x_max":928,"o":"m 657 4 q 533 -35 597 -24 q 404 -40 468 -46 q 300 -21 351 -36 q 204 25 249 -6 q 123 100 160 57 q 65 194 86 143 q 28 401 25 293 q 28 438 28 419 q 31 472 28 456 q 42 500 35 488 q 67 518 50 513 q 129 533 93 526 q 202 543 165 539 q 273 549 239 547 q 332 551 307 551 q 366 535 363 551 q 369 472 369 518 q 393 383 369 414 q 447 349 417 351 q 505 376 478 347 q 540 465 532 404 q 545 569 544 504 q 543 709 546 635 q 535 856 540 783 q 524 983 531 929 q 526 1006 521 994 q 539 1024 532 1017 q 588 1046 553 1039 q 663 1056 622 1053 q 741 1058 703 1058 q 800 1060 779 1058 q 833 1056 811 1060 q 864 1044 856 1051 q 878 1019 874 1035 q 898 928 888 989 q 916 790 908 867 q 926 625 924 713 q 920 453 928 538 q 893 292 913 368 q 839 164 874 217 q 759 71 806 113 q 657 4 713 29 m 621 646 q 634 639 624 636 q 649 650 644 642 q 653 674 651 656 q 657 697 656 692 q 658 713 658 701 q 655 735 657 724 q 651 757 653 746 q 649 772 649 768 q 648 804 647 788 q 644 836 649 821 q 640 857 642 847 q 636 878 638 867 q 635 895 636 882 q 631 924 633 908 q 628 953 629 940 q 626 971 626 967 l 626 974 q 628 975 626 975 q 649 975 639 976 q 668 974 658 974 q 681 969 674 968 q 694 974 689 969 q 703 984 697 976 q 710 996 708 992 q 703 1007 710 1003 q 690 1011 697 1011 q 677 1010 686 1011 q 658 1009 668 1010 q 638 1007 647 1008 q 625 1006 629 1006 q 603 992 614 1003 q 592 971 592 982 q 597 912 590 942 q 600 853 604 882 q 599 831 599 849 q 600 807 600 813 q 599 784 600 796 q 600 761 599 772 q 602 747 600 757 q 607 725 604 736 q 612 703 610 714 q 614 689 614 693 q 616 667 617 678 q 621 646 615 657 z "},"K":{"ha":1089,"x_min":72,"x_max":1064,"o":"m 419 -12 q 372 -18 406 -15 q 299 -24 338 -21 q 227 -28 261 -26 q 181 -28 193 -29 q 155 -24 168 -26 q 132 -14 142 -22 q 108 28 117 -1 q 94 91 100 57 q 87 157 89 125 q 83 208 85 189 q 74 543 72 376 q 93 878 75 710 q 102 958 97 918 q 119 1038 107 999 q 126 1051 122 1044 q 135 1061 129 1057 q 165 1073 143 1068 q 199 1076 188 1078 q 258 1075 219 1075 q 335 1073 296 1075 q 410 1064 375 1071 q 460 1042 444 1057 q 470 1023 467 1033 q 475 1001 474 1013 q 475 953 475 988 q 474 874 475 918 q 471 778 472 829 q 468 681 469 728 q 490 713 479 697 q 503 735 500 729 q 594 854 546 797 q 697 963 642 911 q 713 976 701 967 q 738 995 725 985 q 763 1014 751 1006 q 781 1025 775 1022 q 819 1032 801 1033 q 858 1014 836 1029 q 903 978 881 999 q 944 938 925 958 q 974 903 964 917 q 983 889 976 899 q 996 868 989 879 q 1008 847 1003 857 q 1015 832 1014 836 q 1019 794 1021 814 q 1007 760 1018 774 q 948 700 979 728 q 885 646 917 672 q 824 594 854 619 q 764 544 794 569 q 817 464 790 504 q 874 386 844 424 q 933 315 903 350 q 996 246 964 281 q 1013 227 1001 239 q 1036 202 1025 215 q 1056 176 1047 189 q 1064 153 1064 163 q 1052 122 1064 138 q 1024 90 1040 106 q 990 63 1008 75 q 960 42 972 50 q 922 19 940 31 q 883 -3 903 7 q 842 -18 864 -11 q 801 -18 821 -25 q 740 31 772 -10 q 678 120 708 71 q 623 217 649 169 q 581 290 597 265 q 567 311 574 301 q 554 332 561 321 q 515 285 533 308 q 476 238 496 261 l 476 163 q 478 138 476 156 q 480 101 479 121 q 481 63 481 81 q 479 39 481 44 q 475 22 478 31 q 465 6 472 13 q 443 -6 456 -3 q 419 -12 431 -10 m 131 646 q 133 629 132 639 q 134 611 133 619 q 138 598 135 603 q 149 593 142 593 q 161 601 157 594 q 167 615 165 607 q 168 633 168 624 q 169 651 168 643 l 169 710 q 172 741 169 718 q 178 790 175 764 q 183 840 181 817 q 186 869 186 863 q 189 893 188 876 q 192 928 190 910 q 197 963 194 947 q 201 986 199 979 q 206 993 204 993 q 231 992 218 993 q 254 992 243 992 q 279 992 264 986 q 296 1013 297 997 q 276 1028 294 1029 q 256 1028 269 1028 q 229 1028 243 1028 q 203 1026 215 1028 q 186 1021 192 1025 q 167 986 171 1007 q 160 946 163 965 q 155 928 158 943 q 151 910 151 914 q 148 881 149 894 q 143 851 147 867 q 135 809 139 838 q 130 749 132 781 q 128 689 128 718 q 131 646 128 660 z "},"L":{"ha":863,"x_min":68,"x_max":846,"o":"m 482 -24 q 355 -24 418 -24 q 229 -10 292 -25 q 156 31 183 1 q 112 101 128 61 q 89 185 96 140 q 79 272 82 231 q 69 583 68 428 q 89 893 71 738 q 98 968 93 931 q 115 1042 103 1006 q 122 1054 118 1049 q 131 1064 125 1060 q 161 1075 139 1071 q 194 1079 183 1079 q 253 1078 215 1078 q 331 1075 292 1078 q 406 1066 371 1072 q 456 1046 440 1060 q 466 1029 463 1039 q 471 1008 469 1019 q 470 949 471 994 q 468 843 469 904 q 464 713 467 782 q 459 582 461 643 q 455 476 457 521 q 453 417 453 431 q 481 346 450 364 q 560 326 513 328 q 662 333 607 325 q 763 340 717 340 q 803 336 788 340 q 826 321 818 332 q 837 290 835 310 q 838 239 839 271 q 840 135 835 186 q 836 35 846 85 q 827 14 833 24 q 811 -1 821 4 q 790 -8 804 -6 q 761 -14 776 -11 q 731 -18 746 -17 q 710 -19 717 -19 q 697 -19 707 -19 q 676 -19 688 -19 q 656 -19 665 -19 q 644 -19 647 -19 q 563 -23 604 -21 q 482 -24 522 -25 m 150 586 q 174 588 163 579 q 175 604 186 597 q 183 721 182 663 q 182 838 183 779 q 185 892 182 865 q 192 947 189 919 q 193 969 193 958 q 197 990 193 979 q 216 990 201 992 q 235 988 231 988 q 247 988 238 988 q 258 986 256 988 q 279 991 269 981 q 283 1013 289 1001 q 264 1021 279 1021 q 240 1021 249 1021 q 211 1023 225 1024 q 185 1018 197 1022 q 166 999 172 1013 q 158 972 160 986 q 149 906 154 939 q 142 839 144 872 q 141 807 142 831 q 140 756 140 783 q 140 704 140 728 q 140 672 140 681 q 140 658 140 668 q 141 635 140 647 q 142 613 142 624 q 143 599 143 603 q 146 592 144 596 q 150 586 147 589 z "},"M":{"ha":1331,"x_min":72,"x_max":1254,"o":"m 419 -10 q 372 -15 406 -12 q 299 -21 338 -18 q 227 -25 261 -24 q 181 -26 193 -26 q 155 -23 168 -25 q 132 -12 142 -21 q 108 29 117 0 q 94 92 100 58 q 87 159 89 126 q 83 211 85 192 q 74 546 72 379 q 93 879 75 713 q 102 960 97 919 q 119 1039 107 1000 q 135 1063 126 1056 q 165 1074 143 1069 q 199 1079 188 1079 q 260 1079 219 1078 q 341 1079 300 1081 q 416 1070 382 1078 q 460 1043 450 1063 q 561 820 508 940 q 663 583 614 700 q 766 836 717 721 q 878 1061 815 951 q 917 1092 893 1089 q 972 1092 942 1094 q 1031 1090 993 1090 q 1110 1088 1069 1090 q 1184 1079 1150 1086 q 1233 1057 1218 1072 q 1245 1038 1242 1049 q 1250 1017 1249 1028 q 1251 965 1251 1001 q 1249 881 1250 929 q 1245 781 1247 833 q 1242 680 1243 728 q 1241 595 1242 632 q 1242 544 1240 558 q 1249 361 1249 453 q 1251 178 1249 269 q 1252 153 1251 171 q 1253 116 1253 136 q 1254 78 1254 96 q 1254 54 1254 60 q 1249 37 1253 46 q 1239 21 1246 28 q 1218 9 1231 13 q 1193 3 1206 6 q 1147 -3 1181 0 q 1074 -8 1113 -6 q 1002 -12 1036 -11 q 956 -12 968 -14 q 929 -9 942 -11 q 906 1 917 -7 q 882 43 890 14 q 869 106 874 72 q 862 172 864 140 q 858 224 860 204 q 851 349 854 286 q 849 475 849 413 q 822 394 835 435 q 797 314 810 354 q 781 261 790 288 q 751 215 772 235 q 723 201 740 204 q 690 196 706 199 q 650 192 671 193 q 613 201 629 192 q 596 215 603 207 q 583 232 589 224 q 563 268 576 242 q 534 328 550 294 q 501 397 518 361 q 471 460 483 432 q 474 313 474 385 q 476 165 475 240 q 478 141 476 158 q 480 103 479 124 q 481 65 481 83 q 479 42 481 47 q 475 23 478 32 q 465 8 472 14 q 443 -3 456 0 q 419 -10 431 -7 m 161 624 q 174 615 164 613 q 188 628 185 617 q 191 640 192 633 q 193 653 190 646 q 195 685 194 661 q 196 735 196 708 q 197 785 196 761 q 197 817 197 808 q 198 829 197 819 q 199 850 199 839 q 201 870 200 861 q 203 882 203 879 q 203 899 203 888 q 203 924 203 911 q 205 949 204 938 q 208 965 206 961 q 212 973 208 967 q 217 982 215 979 q 222 982 217 982 q 233 982 225 982 q 250 983 240 982 q 268 983 260 983 q 279 983 276 983 q 296 980 288 976 q 308 991 304 983 q 309 1007 311 999 q 294 1017 307 1015 q 256 1017 275 1019 q 218 1014 238 1015 q 203 1008 213 1013 q 190 999 193 1004 q 180 980 188 994 q 169 960 172 965 q 166 948 168 957 q 162 929 164 939 q 158 910 160 919 q 157 899 157 901 q 151 827 153 863 q 153 756 150 792 q 153 737 153 751 q 156 706 154 722 q 158 674 157 689 q 158 654 158 660 q 158 638 158 649 q 161 624 158 628 z "},"N":{"ha":1204,"x_min":72,"x_max":1128,"o":"m 419 -22 q 372 -28 406 -25 q 299 -33 338 -31 q 227 -37 261 -36 q 181 -39 193 -39 q 155 -35 168 -37 q 132 -25 142 -33 q 108 17 117 -12 q 94 80 100 46 q 87 147 89 114 q 83 199 85 179 q 74 533 72 367 q 93 867 75 700 q 102 947 97 907 q 119 1026 107 988 q 135 1051 126 1043 q 165 1063 143 1058 q 199 1067 188 1067 q 258 1065 219 1065 q 335 1063 296 1065 q 410 1053 375 1060 q 460 1031 444 1046 q 469 1015 464 1026 q 491 981 476 1006 q 524 924 506 956 q 563 856 543 892 q 602 788 583 819 q 635 731 621 756 q 657 697 650 707 q 679 662 665 685 q 708 613 693 639 q 735 563 722 586 q 757 526 749 539 q 747 665 751 589 q 743 812 743 740 q 749 942 743 883 q 768 1028 754 1000 q 802 1060 781 1051 q 846 1067 824 1069 q 905 1065 867 1065 q 983 1063 943 1065 q 1058 1054 1024 1061 q 1107 1032 1092 1047 q 1119 1014 1115 1025 q 1124 992 1122 1003 q 1124 941 1124 978 q 1122 856 1124 904 q 1119 756 1121 808 q 1117 655 1118 703 q 1115 570 1115 607 q 1115 519 1114 533 q 1122 337 1122 428 q 1125 154 1122 246 q 1126 130 1125 147 q 1127 92 1126 113 q 1128 54 1128 72 q 1128 31 1128 36 q 1123 12 1126 21 q 1113 -4 1119 3 q 1092 -15 1104 -11 q 1067 -21 1079 -19 q 1021 -26 1054 -24 q 951 -31 988 -29 q 881 -34 914 -33 q 835 -35 847 -35 q 794 -24 811 -33 q 760 10 778 -14 q 724 49 744 22 q 679 109 703 76 q 632 177 656 142 q 588 244 608 213 q 552 298 567 275 q 532 328 538 321 q 502 372 517 350 q 472 415 488 393 q 475 284 475 349 q 476 153 475 219 q 478 128 476 146 q 480 91 479 111 q 481 53 481 71 q 479 29 481 35 q 465 -4 476 7 q 443 -16 456 -12 q 419 -22 431 -19 m 169 574 q 183 565 172 565 q 197 574 193 565 q 203 594 201 581 q 204 624 204 608 q 203 653 204 639 q 200 674 201 667 q 199 708 199 683 q 199 760 199 733 q 201 812 200 788 q 203 846 201 836 q 204 869 203 851 q 207 906 206 886 q 210 942 208 925 q 211 965 211 960 q 236 965 224 965 q 260 964 249 965 q 281 956 267 953 q 297 974 294 960 q 299 992 304 983 q 283 1004 294 1001 q 217 1004 249 1008 q 190 993 204 1003 q 174 972 176 983 q 171 952 172 967 q 168 920 169 938 q 165 888 167 903 q 164 867 164 872 q 158 805 158 836 q 157 742 157 774 l 157 672 q 158 653 157 667 q 162 623 160 639 q 166 593 164 607 q 169 574 168 579 z "},"Ñ":{"ha":1204,"x_min":72,"x_max":1128,"o":"m 419 -22 q 372 -28 406 -25 q 299 -33 338 -31 q 227 -37 261 -36 q 181 -39 193 -39 q 155 -35 168 -37 q 132 -25 142 -33 q 108 17 117 -12 q 94 80 100 46 q 87 147 89 114 q 83 199 85 179 q 74 533 72 367 q 93 867 75 700 q 102 947 97 907 q 119 1026 107 988 q 135 1051 126 1043 q 165 1063 143 1058 q 199 1067 188 1067 q 258 1065 219 1065 q 335 1063 296 1065 q 410 1053 375 1060 q 460 1031 444 1046 q 469 1015 464 1026 q 491 981 476 1006 q 524 924 506 956 q 563 856 543 892 q 602 788 583 819 q 635 731 621 756 q 657 697 650 707 q 679 662 665 685 q 708 613 693 639 q 735 563 722 586 q 757 526 749 539 q 747 665 751 589 q 743 812 743 740 q 749 942 743 883 q 768 1028 754 1000 q 802 1060 781 1051 q 846 1067 824 1069 q 905 1065 867 1065 q 983 1063 943 1065 q 1058 1054 1024 1061 q 1107 1032 1092 1047 q 1119 1014 1115 1025 q 1124 992 1122 1003 q 1124 941 1124 978 q 1122 856 1124 904 q 1119 756 1121 808 q 1117 655 1118 703 q 1115 570 1115 607 q 1115 519 1114 533 q 1122 337 1122 428 q 1125 154 1122 246 q 1126 130 1125 147 q 1127 92 1126 113 q 1128 54 1128 72 q 1128 31 1128 36 q 1123 12 1126 21 q 1113 -4 1119 3 q 1092 -15 1104 -11 q 1067 -21 1079 -19 q 1021 -26 1054 -24 q 951 -31 988 -29 q 881 -34 914 -33 q 835 -35 847 -35 q 794 -24 811 -33 q 760 10 778 -14 q 724 49 744 22 q 679 109 703 76 q 632 177 656 142 q 588 244 608 213 q 552 298 567 275 q 532 328 538 321 q 502 372 517 350 q 472 415 488 393 q 475 284 475 349 q 476 153 475 219 q 478 128 476 146 q 480 91 479 111 q 481 53 481 71 q 479 29 481 35 q 465 -4 476 7 q 443 -16 456 -12 q 419 -22 431 -19 m 169 574 q 183 565 172 565 q 197 574 193 565 q 203 594 201 581 q 204 624 204 608 q 203 653 204 639 q 200 674 201 667 q 199 708 199 683 q 199 760 199 733 q 201 812 200 788 q 203 846 201 836 q 204 869 203 851 q 207 906 206 886 q 210 942 208 925 q 211 965 211 960 q 236 965 224 965 q 260 964 249 965 q 281 956 267 953 q 297 974 294 960 q 299 992 304 983 q 283 1004 294 1001 q 217 1004 249 1008 q 190 993 204 1003 q 174 972 176 983 q 171 952 172 967 q 168 920 169 938 q 165 888 167 903 q 164 867 164 872 q 158 805 158 836 q 157 742 157 774 l 157 672 q 158 653 157 667 q 162 623 160 639 q 166 593 164 607 q 169 574 168 579 z "},"O":{"ha":1197,"x_min":40,"x_max":1153,"o":"m 1063 203 q 930 53 1011 113 q 754 -33 849 -6 q 560 -58 660 -61 q 369 -22 460 -56 q 206 76 279 13 q 93 233 133 139 q 46 439 51 329 q 64 651 40 549 q 137 829 86 747 q 264 974 188 911 q 419 1063 335 1032 q 590 1097 503 1093 q 763 1078 678 1100 q 921 1012 849 1057 q 1047 899 993 967 q 1128 742 1101 831 q 1145 651 1140 697 q 1151 558 1150 606 q 1131 374 1153 467 q 1063 203 1108 282 m 136 613 q 149 608 142 607 q 163 617 157 610 q 168 631 165 619 q 172 644 171 642 q 182 674 178 660 q 196 701 186 689 q 217 742 208 721 q 235 783 225 763 q 253 813 243 800 q 275 840 264 825 q 282 851 276 843 q 289 861 288 858 q 307 876 293 865 q 336 897 321 886 q 365 917 351 908 q 383 931 378 926 q 404 942 393 938 q 426 949 415 946 q 453 960 440 953 q 463 982 465 968 q 449 995 460 993 q 428 993 439 997 q 401 982 415 986 q 374 971 386 978 q 353 958 369 968 q 335 944 338 947 q 317 932 329 940 q 292 915 306 924 q 267 897 279 906 q 251 883 256 888 q 243 871 247 876 q 235 860 239 865 q 223 845 232 857 q 211 831 214 833 q 185 786 196 811 q 164 738 175 761 q 156 722 163 735 q 147 706 149 708 q 140 681 142 694 q 135 654 138 667 q 131 632 132 646 q 136 613 131 618 m 517 319 q 566 295 539 303 q 622 289 593 288 q 676 301 650 290 q 721 331 701 311 q 765 400 747 358 q 788 487 782 442 q 788 576 794 532 q 763 654 782 621 q 706 708 740 692 q 635 723 672 725 q 564 703 599 721 q 506 653 529 685 q 453 540 468 600 q 453 418 438 481 q 476 365 460 390 q 517 319 493 339 z "},"Ò":{"ha":1197,"x_min":40,"x_max":1153,"o":"m 1063 203 q 930 53 1011 113 q 754 -33 849 -6 q 560 -58 660 -61 q 369 -22 460 -56 q 206 76 279 13 q 93 233 133 139 q 46 439 51 329 q 64 651 40 549 q 137 829 86 747 q 264 974 188 911 q 419 1063 335 1032 q 590 1097 503 1093 q 763 1078 678 1100 q 921 1012 849 1057 q 1047 899 993 967 q 1128 742 1101 831 q 1145 651 1140 697 q 1151 558 1150 606 q 1131 374 1153 467 q 1063 203 1108 282 m 136 613 q 149 608 142 607 q 163 617 157 610 q 168 631 165 619 q 172 644 171 642 q 182 674 178 660 q 196 701 186 689 q 217 742 208 721 q 235 783 225 763 q 253 813 243 800 q 275 840 264 825 q 282 851 276 843 q 289 861 288 858 q 307 876 293 865 q 336 897 321 886 q 365 917 351 908 q 383 931 378 926 q 404 942 393 938 q 426 949 415 946 q 453 960 440 953 q 463 982 465 968 q 449 995 460 993 q 428 993 439 997 q 401 982 415 986 q 374 971 386 978 q 353 958 369 968 q 335 944 338 947 q 317 932 329 940 q 292 915 306 924 q 267 897 279 906 q 251 883 256 888 q 243 871 247 876 q 235 860 239 865 q 223 845 232 857 q 211 831 214 833 q 185 786 196 811 q 164 738 175 761 q 156 722 163 735 q 147 706 149 708 q 140 681 142 694 q 135 654 138 667 q 131 632 132 646 q 136 613 131 618 m 517 319 q 566 295 539 303 q 622 289 593 288 q 676 301 650 290 q 721 331 701 311 q 765 400 747 358 q 788 487 782 442 q 788 576 794 532 q 763 654 782 621 q 706 708 740 692 q 635 723 672 725 q 564 703 599 721 q 506 653 529 685 q 453 540 468 600 q 453 418 438 481 q 476 365 460 390 q 517 319 493 339 z "},"Ó":{"ha":1197,"x_min":40,"x_max":1153,"o":"m 1063 203 q 930 53 1011 113 q 754 -33 849 -6 q 560 -58 660 -61 q 369 -22 460 -56 q 206 76 279 13 q 93 233 133 139 q 46 439 51 329 q 64 651 40 549 q 137 829 86 747 q 264 974 188 911 q 419 1063 335 1032 q 590 1097 503 1093 q 763 1078 678 1100 q 921 1012 849 1057 q 1047 899 993 967 q 1128 742 1101 831 q 1145 651 1140 697 q 1151 558 1150 606 q 1131 374 1153 467 q 1063 203 1108 282 m 136 613 q 149 608 142 607 q 163 617 157 610 q 168 631 165 619 q 172 644 171 642 q 182 674 178 660 q 196 701 186 689 q 217 742 208 721 q 235 783 225 763 q 253 813 243 800 q 275 840 264 825 q 282 851 276 843 q 289 861 288 858 q 307 876 293 865 q 336 897 321 886 q 365 917 351 908 q 383 931 378 926 q 404 942 393 938 q 426 949 415 946 q 453 960 440 953 q 463 982 465 968 q 449 995 460 993 q 428 993 439 997 q 401 982 415 986 q 374 971 386 978 q 353 958 369 968 q 335 944 338 947 q 317 932 329 940 q 292 915 306 924 q 267 897 279 906 q 251 883 256 888 q 243 871 247 876 q 235 860 239 865 q 223 845 232 857 q 211 831 214 833 q 185 786 196 811 q 164 738 175 761 q 156 722 163 735 q 147 706 149 708 q 140 681 142 694 q 135 654 138 667 q 131 632 132 646 q 136 613 131 618 m 517 319 q 566 295 539 303 q 622 289 593 288 q 676 301 650 290 q 721 331 701 311 q 765 400 747 358 q 788 487 782 442 q 788 576 794 532 q 763 654 782 621 q 706 708 740 692 q 635 723 672 725 q 564 703 599 721 q 506 653 529 685 q 453 540 468 600 q 453 418 438 481 q 476 365 460 390 q 517 319 493 339 z "},"Ô":{"ha":1197,"x_min":40,"x_max":1153,"o":"m 1063 203 q 930 53 1011 113 q 754 -33 849 -6 q 560 -58 660 -61 q 369 -22 460 -56 q 206 76 279 13 q 93 233 133 139 q 46 439 51 329 q 64 651 40 549 q 137 829 86 747 q 264 974 188 911 q 419 1063 335 1032 q 590 1097 503 1093 q 763 1078 678 1100 q 921 1012 849 1057 q 1047 899 993 967 q 1128 742 1101 831 q 1145 651 1140 697 q 1151 558 1150 606 q 1131 374 1153 467 q 1063 203 1108 282 m 136 613 q 149 608 142 607 q 163 617 157 610 q 168 631 165 619 q 172 644 171 642 q 182 674 178 660 q 196 701 186 689 q 217 742 208 721 q 235 783 225 763 q 253 813 243 800 q 275 840 264 825 q 282 851 276 843 q 289 861 288 858 q 307 876 293 865 q 336 897 321 886 q 365 917 351 908 q 383 931 378 926 q 404 942 393 938 q 426 949 415 946 q 453 960 440 953 q 463 982 465 968 q 449 995 460 993 q 428 993 439 997 q 401 982 415 986 q 374 971 386 978 q 353 958 369 968 q 335 944 338 947 q 317 932 329 940 q 292 915 306 924 q 267 897 279 906 q 251 883 256 888 q 243 871 247 876 q 235 860 239 865 q 223 845 232 857 q 211 831 214 833 q 185 786 196 811 q 164 738 175 761 q 156 722 163 735 q 147 706 149 708 q 140 681 142 694 q 135 654 138 667 q 131 632 132 646 q 136 613 131 618 m 517 319 q 566 295 539 303 q 622 289 593 288 q 676 301 650 290 q 721 331 701 311 q 765 400 747 358 q 788 487 782 442 q 788 576 794 532 q 763 654 782 621 q 706 708 740 692 q 635 723 672 725 q 564 703 599 721 q 506 653 529 685 q 453 540 468 600 q 453 418 438 481 q 476 365 460 390 q 517 319 493 339 z "},"Õ":{"ha":1197,"x_min":40,"x_max":1153,"o":"m 1063 203 q 930 53 1011 113 q 754 -33 849 -6 q 560 -58 660 -61 q 369 -22 460 -56 q 206 76 279 13 q 93 233 133 139 q 46 439 51 329 q 64 651 40 549 q 137 829 86 747 q 264 974 188 911 q 419 1063 335 1032 q 590 1097 503 1093 q 763 1078 678 1100 q 921 1012 849 1057 q 1047 899 993 967 q 1128 742 1101 831 q 1145 651 1140 697 q 1151 558 1150 606 q 1131 374 1153 467 q 1063 203 1108 282 m 136 613 q 149 608 142 607 q 163 617 157 610 q 168 631 165 619 q 172 644 171 642 q 182 674 178 660 q 196 701 186 689 q 217 742 208 721 q 235 783 225 763 q 253 813 243 800 q 275 840 264 825 q 282 851 276 843 q 289 861 288 858 q 307 876 293 865 q 336 897 321 886 q 365 917 351 908 q 383 931 378 926 q 404 942 393 938 q 426 949 415 946 q 453 960 440 953 q 463 982 465 968 q 449 995 460 993 q 428 993 439 997 q 401 982 415 986 q 374 971 386 978 q 353 958 369 968 q 335 944 338 947 q 317 932 329 940 q 292 915 306 924 q 267 897 279 906 q 251 883 256 888 q 243 871 247 876 q 235 860 239 865 q 223 845 232 857 q 211 831 214 833 q 185 786 196 811 q 164 738 175 761 q 156 722 163 735 q 147 706 149 708 q 140 681 142 694 q 135 654 138 667 q 131 632 132 646 q 136 613 131 618 m 517 319 q 566 295 539 303 q 622 289 593 288 q 676 301 650 290 q 721 331 701 311 q 765 400 747 358 q 788 487 782 442 q 788 576 794 532 q 763 654 782 621 q 706 708 740 692 q 635 723 672 725 q 564 703 599 721 q 506 653 529 685 q 453 540 468 600 q 453 418 438 481 q 476 365 460 390 q 517 319 493 339 z "},"Ö":{"ha":1197,"x_min":40,"x_max":1153,"o":"m 1063 203 q 930 53 1011 113 q 754 -33 849 -6 q 560 -58 660 -61 q 369 -22 460 -56 q 206 76 279 13 q 93 233 133 139 q 46 439 51 329 q 64 651 40 549 q 137 829 86 747 q 264 974 188 911 q 419 1063 335 1032 q 590 1097 503 1093 q 763 1078 678 1100 q 921 1012 849 1057 q 1047 899 993 967 q 1128 742 1101 831 q 1145 651 1140 697 q 1151 558 1150 606 q 1131 374 1153 467 q 1063 203 1108 282 m 136 613 q 149 608 142 607 q 163 617 157 610 q 168 631 165 619 q 172 644 171 642 q 182 674 178 660 q 196 701 186 689 q 217 742 208 721 q 235 783 225 763 q 253 813 243 800 q 275 840 264 825 q 282 851 276 843 q 289 861 288 858 q 307 876 293 865 q 336 897 321 886 q 365 917 351 908 q 383 931 378 926 q 404 942 393 938 q 426 949 415 946 q 453 960 440 953 q 463 982 465 968 q 449 995 460 993 q 428 993 439 997 q 401 982 415 986 q 374 971 386 978 q 353 958 369 968 q 335 944 338 947 q 317 932 329 940 q 292 915 306 924 q 267 897 279 906 q 251 883 256 888 q 243 871 247 876 q 235 860 239 865 q 223 845 232 857 q 211 831 214 833 q 185 786 196 811 q 164 738 175 761 q 156 722 163 735 q 147 706 149 708 q 140 681 142 694 q 135 654 138 667 q 131 632 132 646 q 136 613 131 618 m 517 319 q 566 295 539 303 q 622 289 593 288 q 676 301 650 290 q 721 331 701 311 q 765 400 747 358 q 788 487 782 442 q 788 576 794 532 q 763 654 782 621 q 706 708 740 692 q 635 723 672 725 q 564 703 599 721 q 506 653 529 685 q 453 540 468 600 q 453 418 438 481 q 476 365 460 390 q 517 319 493 339 z "},"Ø":{"ha":1197,"x_min":40,"x_max":1153,"o":"m 1063 203 q 930 53 1011 113 q 754 -33 849 -6 q 560 -58 660 -61 q 369 -22 460 -56 q 206 76 279 13 q 93 233 133 139 q 46 439 51 329 q 64 651 40 549 q 137 829 86 747 q 264 974 188 911 q 419 1063 335 1032 q 590 1097 503 1093 q 763 1078 678 1100 q 921 1012 849 1057 q 1047 899 993 967 q 1128 742 1101 831 q 1145 651 1140 697 q 1151 558 1150 606 q 1131 374 1153 467 q 1063 203 1108 282 m 136 613 q 149 608 142 607 q 163 617 157 610 q 168 631 165 619 q 172 644 171 642 q 182 674 178 660 q 196 701 186 689 q 217 742 208 721 q 235 783 225 763 q 253 813 243 800 q 275 840 264 825 q 282 851 276 843 q 289 861 288 858 q 307 876 293 865 q 336 897 321 886 q 365 917 351 908 q 383 931 378 926 q 404 942 393 938 q 426 949 415 946 q 453 960 440 953 q 463 982 465 968 q 449 995 460 993 q 428 993 439 997 q 401 982 415 986 q 374 971 386 978 q 353 958 369 968 q 335 944 338 947 q 317 932 329 940 q 292 915 306 924 q 267 897 279 906 q 251 883 256 888 q 243 871 247 876 q 235 860 239 865 q 223 845 232 857 q 211 831 214 833 q 185 786 196 811 q 164 738 175 761 q 156 722 163 735 q 147 706 149 708 q 140 681 142 694 q 135 654 138 667 q 131 632 132 646 q 136 613 131 618 m 517 319 q 566 295 539 303 q 622 289 593 288 q 676 301 650 290 q 721 331 701 311 q 765 400 747 358 q 788 487 782 442 q 788 576 794 532 q 763 654 782 621 q 706 708 740 692 q 635 723 672 725 q 564 703 599 721 q 506 653 529 685 q 453 540 468 600 q 453 418 438 481 q 476 365 460 390 q 517 319 493 339 z "},"P":{"ha":975,"x_min":72,"x_max":953,"o":"m 392 -10 q 348 -15 379 -12 q 282 -21 317 -18 q 216 -25 247 -24 q 172 -26 185 -26 q 149 -23 161 -25 q 126 -12 136 -21 q 106 29 114 0 q 93 92 97 58 q 87 159 89 126 q 83 211 85 192 q 74 546 72 379 q 92 879 75 713 q 100 960 94 919 q 117 1039 106 1000 q 129 1063 121 1054 q 158 1074 138 1069 q 189 1079 178 1079 l 190 1079 q 435 1074 313 1079 q 678 1036 557 1068 q 733 1019 706 1028 q 789 996 761 1010 q 880 923 843 968 q 935 822 917 878 q 949 706 953 767 q 919 586 946 644 q 826 443 879 496 q 710 363 772 390 q 580 328 647 336 q 444 322 513 321 q 446 276 446 294 q 445 242 446 258 q 444 209 444 226 q 444 165 444 192 q 445 141 444 158 q 447 103 446 124 q 447 65 447 83 q 447 42 447 47 q 443 23 446 32 q 433 8 440 14 q 414 -3 425 0 q 392 -10 403 -7 m 144 610 q 160 598 146 596 q 178 614 175 600 q 180 636 179 619 q 181 672 181 653 q 183 707 182 690 q 183 729 183 724 q 185 788 186 758 q 186 847 183 818 q 188 870 186 853 q 190 906 189 888 q 194 942 192 925 q 197 965 196 958 q 201 981 199 972 q 210 990 204 989 q 269 999 238 996 q 280 999 272 999 q 290 999 288 1000 q 308 997 296 994 q 328 1001 321 999 q 344 1019 343 1006 q 331 1035 346 1032 q 297 1038 314 1038 q 264 1036 281 1038 q 249 1034 258 1036 q 228 1029 239 1032 q 208 1023 218 1026 q 194 1017 199 1019 q 169 988 175 1004 q 154 897 156 943 q 142 806 153 850 q 140 787 140 800 q 140 759 140 774 q 141 732 140 744 q 142 714 142 719 q 142 703 142 711 q 141 685 142 694 q 140 667 140 675 q 140 656 140 658 q 142 633 140 651 q 144 610 144 615 m 436 615 q 466 615 450 615 q 496 617 482 615 q 527 620 508 617 q 566 628 546 624 q 603 641 586 633 q 628 660 619 649 q 635 725 649 692 q 604 761 625 749 q 556 779 583 774 q 499 785 529 785 q 443 786 469 786 l 439 761 q 437 685 438 722 q 436 615 436 647 z "},"Q":{"ha":1200,"x_min":40,"x_max":1153,"o":"m 940 -228 q 926 -235 933 -232 q 911 -235 918 -237 q 894 -225 904 -233 q 873 -207 883 -217 q 853 -187 863 -197 q 839 -172 843 -178 q 784 -106 810 -140 q 731 -39 758 -72 q 541 -57 638 -62 q 358 -17 444 -51 q 202 81 272 18 q 93 233 132 143 q 46 439 51 329 q 64 651 40 549 q 137 829 86 747 q 264 974 188 911 q 419 1063 335 1032 q 590 1097 503 1093 q 763 1078 678 1100 q 921 1012 849 1057 q 1047 899 993 967 q 1128 742 1101 831 q 1145 651 1140 697 q 1151 558 1150 606 q 1131 374 1153 467 q 1063 203 1108 282 q 1028 151 1047 175 q 989 106 1010 128 q 1027 67 1008 86 q 1065 28 1046 47 q 1078 15 1069 24 q 1097 -4 1088 6 q 1113 -24 1106 -14 q 1119 -40 1119 -33 q 1112 -62 1119 -50 q 1094 -87 1104 -75 q 1072 -111 1083 -100 q 1054 -129 1061 -122 q 1033 -149 1049 -135 q 999 -178 1017 -162 q 964 -209 981 -194 q 940 -228 947 -224 m 131 617 q 133 606 129 610 q 143 603 138 603 q 153 606 149 603 q 161 615 158 608 q 165 626 163 618 q 170 644 167 635 q 176 661 174 653 q 179 672 178 669 q 190 697 182 679 q 209 735 199 715 q 228 772 219 754 q 242 796 238 789 q 249 805 243 799 q 263 817 256 811 q 276 829 269 824 q 285 838 282 835 q 299 852 289 842 q 319 875 308 863 q 340 898 331 888 q 354 911 350 908 q 388 928 369 922 q 422 944 406 935 q 429 949 425 946 q 436 953 433 953 q 453 956 446 951 q 465 969 461 961 q 467 985 468 976 q 458 997 467 993 q 429 994 447 1004 q 400 978 411 985 q 364 959 383 967 q 328 940 344 951 q 313 925 324 936 q 290 901 301 914 q 267 876 278 888 q 253 860 257 864 q 227 837 240 847 q 204 811 214 826 q 194 791 201 806 q 180 759 188 776 q 165 726 172 742 q 157 706 158 711 q 150 689 154 701 q 142 662 146 676 q 134 635 138 647 q 131 617 131 622 m 517 319 q 566 295 539 303 q 622 289 593 288 q 676 301 650 290 q 721 331 701 311 q 765 400 747 358 q 788 487 782 442 q 788 576 794 532 q 763 654 782 621 q 706 708 740 692 q 635 723 672 725 q 564 703 599 721 q 506 653 529 685 q 453 540 468 600 q 453 418 438 481 q 476 365 460 390 q 517 319 493 339 z "},"R":{"ha":1008,"x_min":72,"x_max":968,"o":"m 392 -10 q 348 -15 379 -12 q 282 -21 317 -18 q 216 -25 247 -24 q 172 -26 185 -26 q 149 -23 161 -25 q 126 -12 136 -21 q 106 29 114 0 q 93 92 97 58 q 87 159 89 126 q 83 211 85 192 q 74 546 72 379 q 92 879 75 713 q 100 960 94 919 q 117 1039 106 1000 q 129 1063 121 1054 q 158 1074 138 1069 q 189 1079 178 1079 l 190 1079 q 435 1074 313 1079 q 678 1036 557 1068 q 733 1019 706 1028 q 789 996 761 1010 q 880 923 843 968 q 935 822 917 878 q 949 706 953 767 q 919 586 946 644 q 842 461 886 510 q 747 383 799 413 q 853 261 800 319 q 877 238 860 254 q 913 202 894 221 q 945 166 931 183 q 964 139 960 149 q 965 110 968 125 q 954 83 961 94 q 922 51 940 64 q 883 26 903 38 q 783 -15 835 -1 q 735 -21 760 -22 q 689 -8 710 -19 q 646 24 665 6 q 608 63 626 43 q 569 111 589 86 q 531 163 550 136 q 517 181 526 168 q 497 212 508 194 q 472 249 485 229 q 446 286 458 268 q 445 257 446 269 q 444 231 444 244 q 444 203 444 218 q 444 165 444 188 q 445 141 444 158 q 447 103 446 124 q 447 65 447 83 q 447 42 447 47 q 443 23 446 32 q 433 8 440 14 q 414 -3 425 0 q 392 -10 403 -7 m 150 607 q 169 608 158 601 q 175 624 179 615 q 177 688 179 656 q 182 751 175 719 q 189 819 189 785 q 194 886 189 853 q 199 942 197 914 q 214 996 201 971 q 233 994 224 994 q 254 993 243 993 q 265 994 260 993 q 275 994 269 994 q 281 995 278 994 q 283 993 283 996 q 303 985 289 981 q 317 1003 318 990 q 315 1019 317 1010 q 307 1031 314 1028 q 284 1033 296 1036 q 261 1029 272 1031 q 228 1028 244 1028 q 197 1019 211 1028 q 184 1006 189 1015 q 176 989 179 997 q 167 957 169 974 q 161 924 165 940 q 153 885 157 904 q 147 846 150 865 q 144 791 144 818 q 139 738 143 764 q 138 719 138 732 q 140 690 139 706 q 142 662 140 675 q 143 643 143 649 q 144 623 144 636 q 150 607 144 610 m 436 615 q 466 615 450 615 q 496 617 482 615 q 527 620 508 617 q 566 628 546 624 q 603 641 586 633 q 628 660 619 649 q 635 725 649 692 q 604 761 625 749 q 556 779 583 774 q 499 785 529 785 q 443 786 469 786 l 439 761 q 437 685 438 722 q 436 615 436 647 z "},"S":{"ha":967,"x_min":46,"x_max":936,"o":"m 836 99 q 711 3 785 38 q 556 -44 638 -32 q 388 -49 474 -57 q 228 -17 303 -40 q 192 -3 217 -14 q 140 19 167 7 q 91 45 114 32 q 63 67 68 58 q 56 83 57 74 q 53 100 54 92 q 58 144 50 117 q 80 201 67 172 q 107 258 93 231 q 131 299 121 285 q 149 326 140 313 q 172 350 158 340 q 206 360 189 361 q 239 353 222 360 q 272 335 256 346 q 301 318 288 325 q 386 278 354 290 q 453 257 418 267 q 501 253 479 249 q 532 269 524 257 q 532 300 540 282 q 490 336 524 318 q 359 402 425 372 q 226 464 293 432 q 119 547 160 497 q 62 656 78 597 q 54 776 46 715 q 95 892 63 838 q 183 991 128 947 q 318 1058 239 1035 q 444 1077 374 1075 q 590 1066 515 1079 q 740 1023 665 1053 q 879 943 814 993 q 913 918 900 928 q 931 901 926 908 q 933 885 936 893 q 917 864 929 876 q 879 822 901 849 q 832 765 857 794 q 783 708 807 735 q 743 668 760 682 q 701 656 721 649 q 667 675 682 663 q 578 742 626 711 q 476 790 529 772 q 446 798 461 794 q 415 797 431 801 q 385 772 392 792 q 393 736 379 753 q 424 712 406 721 q 463 694 443 703 q 593 639 528 665 q 719 576 658 613 q 830 480 785 538 q 893 357 875 422 q 899 224 911 292 q 836 99 886 157 m 129 649 q 147 648 138 643 q 157 663 157 653 q 151 690 157 669 q 143 718 144 711 q 144 746 143 728 q 147 784 144 764 q 152 823 149 804 q 160 850 156 842 q 171 867 163 856 q 188 890 179 878 q 207 913 197 903 q 222 928 217 924 q 237 935 225 929 q 251 944 249 942 q 272 958 257 947 q 293 971 286 969 q 311 986 308 974 q 299 1001 314 999 q 277 997 288 1004 q 256 985 267 990 q 244 977 253 983 q 233 969 236 971 q 216 960 225 964 q 200 950 207 957 q 184 933 194 946 q 162 906 174 921 q 140 878 150 892 q 126 860 131 865 q 120 847 124 856 q 113 828 117 839 q 107 809 110 818 q 104 796 104 800 q 100 767 101 785 q 99 730 99 749 q 103 694 100 711 q 114 668 107 676 q 122 658 117 665 q 129 649 126 650 z "},"T":{"ha":1000,"x_min":19,"x_max":982,"o":"m 618 -10 q 572 -15 606 -12 q 499 -21 538 -18 q 427 -25 461 -24 q 381 -26 393 -26 q 355 -23 368 -25 q 332 -12 342 -21 q 308 29 317 0 q 294 92 300 58 q 287 157 289 125 q 283 208 285 189 q 274 438 276 324 q 278 669 272 553 q 231 668 254 668 q 185 668 208 668 q 164 667 179 668 q 131 666 149 667 q 97 665 113 665 q 76 665 82 665 q 47 681 58 668 q 38 702 40 690 q 32 726 35 714 q 28 773 31 739 q 23 844 25 807 q 20 916 21 882 q 19 963 19 950 q 23 988 21 975 q 32 1010 25 1000 q 69 1033 43 1024 q 124 1047 94 1042 q 181 1053 153 1051 q 226 1057 210 1056 q 517 1065 372 1068 q 808 1044 663 1063 q 878 1035 843 1040 q 947 1017 914 1029 q 968 1001 960 1011 q 978 972 975 993 q 981 939 982 950 q 979 881 979 918 q 977 803 979 843 q 969 729 975 764 q 949 681 963 694 q 933 670 942 674 q 914 665 924 667 q 878 666 903 665 q 819 667 853 667 q 746 669 785 668 q 668 672 707 671 q 666 581 667 621 q 667 525 665 540 q 674 344 674 433 q 676 163 675 254 q 678 138 676 156 q 680 101 679 121 q 681 64 681 82 q 679 40 681 46 q 675 23 678 32 q 665 7 672 14 q 643 -5 656 -1 q 618 -10 631 -8 m 99 749 q 113 738 101 738 q 129 749 124 739 q 129 782 133 758 q 125 815 125 806 q 122 845 124 824 q 120 890 121 867 q 119 934 119 913 q 122 964 119 956 q 129 969 124 967 q 158 974 143 976 q 189 972 174 972 q 226 981 210 969 q 235 998 235 988 q 224 1011 235 1008 q 212 1013 218 1014 q 200 1011 206 1011 q 175 1009 194 1010 q 151 1007 156 1008 q 103 988 124 1003 q 91 964 94 981 q 87 927 88 947 q 86 888 86 907 q 85 858 86 869 q 87 803 81 831 q 99 749 93 776 z "},"U":{"ha":1053,"x_min":57,"x_max":996,"o":"m 899 153 q 806 45 863 89 q 681 -22 749 1 q 539 -46 613 -44 q 397 -28 465 -47 q 268 30 328 -10 q 168 131 208 69 q 156 146 161 138 q 146 161 151 154 q 92 290 111 214 q 65 450 72 365 q 59 623 57 535 q 69 788 61 711 q 87 926 76 865 q 107 1018 97 988 q 113 1031 110 1025 q 121 1042 115 1038 q 151 1053 129 1049 q 185 1057 174 1058 q 244 1056 206 1056 q 322 1053 282 1056 q 396 1044 361 1051 q 446 1022 431 1038 q 461 982 463 1003 q 449 855 454 928 q 441 708 443 782 q 440 567 439 633 q 444 464 440 501 q 474 385 450 411 q 526 360 499 360 q 576 388 553 361 q 607 465 600 414 q 613 569 613 504 q 611 709 614 635 q 603 856 608 783 q 590 983 597 929 q 594 1006 589 994 q 606 1024 599 1017 q 656 1046 621 1039 q 730 1056 690 1053 q 808 1058 769 1058 q 867 1060 846 1058 q 900 1056 878 1060 q 931 1044 922 1051 q 946 1019 942 1033 q 966 928 956 989 q 984 790 976 867 q 994 625 992 713 q 988 453 996 538 q 961 292 981 368 q 907 164 942 217 q 899 153 901 156 m 115 625 q 131 615 117 611 q 147 631 144 618 q 149 647 149 635 q 151 672 150 658 q 151 697 151 685 q 151 713 151 708 q 153 735 151 724 q 157 758 156 747 q 158 782 157 764 q 160 820 160 800 q 163 858 161 840 q 165 882 164 875 q 169 899 167 886 q 176 926 172 911 q 182 953 179 940 q 186 969 185 965 q 188 971 186 971 q 192 972 190 971 q 212 974 201 976 q 233 972 222 972 q 249 967 240 964 q 263 979 258 969 q 267 991 267 985 q 263 1001 268 997 q 243 1006 257 1008 q 219 1007 232 1006 q 196 1006 207 1008 q 172 994 186 1003 q 153 978 157 986 q 149 966 151 975 q 145 947 147 957 q 141 927 143 936 q 138 915 139 918 q 131 892 136 910 q 125 871 126 875 q 118 813 119 842 q 117 756 117 783 q 114 735 117 751 q 111 715 111 718 q 111 697 111 710 q 112 670 111 685 q 113 642 113 656 q 115 625 114 629 z "},"Ù":{"ha":1053,"x_min":57,"x_max":996,"o":"m 899 153 q 806 45 863 89 q 681 -22 749 1 q 539 -46 613 -44 q 397 -28 465 -47 q 268 30 328 -10 q 168 131 208 69 q 156 146 161 138 q 146 161 151 154 q 92 290 111 214 q 65 450 72 365 q 59 623 57 535 q 69 788 61 711 q 87 926 76 865 q 107 1018 97 988 q 113 1031 110 1025 q 121 1042 115 1038 q 151 1053 129 1049 q 185 1057 174 1058 q 244 1056 206 1056 q 322 1053 282 1056 q 396 1044 361 1051 q 446 1022 431 1038 q 461 982 463 1003 q 449 855 454 928 q 441 708 443 782 q 440 567 439 633 q 444 464 440 501 q 474 385 450 411 q 526 360 499 360 q 576 388 553 361 q 607 465 600 414 q 613 569 613 504 q 611 709 614 635 q 603 856 608 783 q 590 983 597 929 q 594 1006 589 994 q 606 1024 599 1017 q 656 1046 621 1039 q 730 1056 690 1053 q 808 1058 769 1058 q 867 1060 846 1058 q 900 1056 878 1060 q 931 1044 922 1051 q 946 1019 942 1033 q 966 928 956 989 q 984 790 976 867 q 994 625 992 713 q 988 453 996 538 q 961 292 981 368 q 907 164 942 217 q 899 153 901 156 m 115 625 q 131 615 117 611 q 147 631 144 618 q 149 647 149 635 q 151 672 150 658 q 151 697 151 685 q 151 713 151 708 q 153 735 151 724 q 157 758 156 747 q 158 782 157 764 q 160 820 160 800 q 163 858 161 840 q 165 882 164 875 q 169 899 167 886 q 176 926 172 911 q 182 953 179 940 q 186 969 185 965 q 188 971 186 971 q 192 972 190 971 q 212 974 201 976 q 233 972 222 972 q 249 967 240 964 q 263 979 258 969 q 267 991 267 985 q 263 1001 268 997 q 243 1006 257 1008 q 219 1007 232 1006 q 196 1006 207 1008 q 172 994 186 1003 q 153 978 157 986 q 149 966 151 975 q 145 947 147 957 q 141 927 143 936 q 138 915 139 918 q 131 892 136 910 q 125 871 126 875 q 118 813 119 842 q 117 756 117 783 q 114 735 117 751 q 111 715 111 718 q 111 697 111 710 q 112 670 111 685 q 113 642 113 656 q 115 625 114 629 z "},"Ú":{"ha":1053,"x_min":57,"x_max":996,"o":"m 899 153 q 806 45 863 89 q 681 -22 749 1 q 539 -46 613 -44 q 397 -28 465 -47 q 268 30 328 -10 q 168 131 208 69 q 156 146 161 138 q 146 161 151 154 q 92 290 111 214 q 65 450 72 365 q 59 623 57 535 q 69 788 61 711 q 87 926 76 865 q 107 1018 97 988 q 113 1031 110 1025 q 121 1042 115 1038 q 151 1053 129 1049 q 185 1057 174 1058 q 244 1056 206 1056 q 322 1053 282 1056 q 396 1044 361 1051 q 446 1022 431 1038 q 461 982 463 1003 q 449 855 454 928 q 441 708 443 782 q 440 567 439 633 q 444 464 440 501 q 474 385 450 411 q 526 360 499 360 q 576 388 553 361 q 607 465 600 414 q 613 569 613 504 q 611 709 614 635 q 603 856 608 783 q 590 983 597 929 q 594 1006 589 994 q 606 1024 599 1017 q 656 1046 621 1039 q 730 1056 690 1053 q 808 1058 769 1058 q 867 1060 846 1058 q 900 1056 878 1060 q 931 1044 922 1051 q 946 1019 942 1033 q 966 928 956 989 q 984 790 976 867 q 994 625 992 713 q 988 453 996 538 q 961 292 981 368 q 907 164 942 217 q 899 153 901 156 m 115 625 q 131 615 117 611 q 147 631 144 618 q 149 647 149 635 q 151 672 150 658 q 151 697 151 685 q 151 713 151 708 q 153 735 151 724 q 157 758 156 747 q 158 782 157 764 q 160 820 160 800 q 163 858 161 840 q 165 882 164 875 q 169 899 167 886 q 176 926 172 911 q 182 953 179 940 q 186 969 185 965 q 188 971 186 971 q 192 972 190 971 q 212 974 201 976 q 233 972 222 972 q 249 967 240 964 q 263 979 258 969 q 267 991 267 985 q 263 1001 268 997 q 243 1006 257 1008 q 219 1007 232 1006 q 196 1006 207 1008 q 172 994 186 1003 q 153 978 157 986 q 149 966 151 975 q 145 947 147 957 q 141 927 143 936 q 138 915 139 918 q 131 892 136 910 q 125 871 126 875 q 118 813 119 842 q 117 756 117 783 q 114 735 117 751 q 111 715 111 718 q 111 697 111 710 q 112 670 111 685 q 113 642 113 656 q 115 625 114 629 z "},"Û":{"ha":1053,"x_min":57,"x_max":996,"o":"m 899 153 q 806 45 863 89 q 681 -22 749 1 q 539 -46 613 -44 q 397 -28 465 -47 q 268 30 328 -10 q 168 131 208 69 q 156 146 161 138 q 146 161 151 154 q 92 290 111 214 q 65 450 72 365 q 59 623 57 535 q 69 788 61 711 q 87 926 76 865 q 107 1018 97 988 q 113 1031 110 1025 q 121 1042 115 1038 q 151 1053 129 1049 q 185 1057 174 1058 q 244 1056 206 1056 q 322 1053 282 1056 q 396 1044 361 1051 q 446 1022 431 1038 q 461 982 463 1003 q 449 855 454 928 q 441 708 443 782 q 440 567 439 633 q 444 464 440 501 q 474 385 450 411 q 526 360 499 360 q 576 388 553 361 q 607 465 600 414 q 613 569 613 504 q 611 709 614 635 q 603 856 608 783 q 590 983 597 929 q 594 1006 589 994 q 606 1024 599 1017 q 656 1046 621 1039 q 730 1056 690 1053 q 808 1058 769 1058 q 867 1060 846 1058 q 900 1056 878 1060 q 931 1044 922 1051 q 946 1019 942 1033 q 966 928 956 989 q 984 790 976 867 q 994 625 992 713 q 988 453 996 538 q 961 292 981 368 q 907 164 942 217 q 899 153 901 156 m 115 625 q 131 615 117 611 q 147 631 144 618 q 149 647 149 635 q 151 672 150 658 q 151 697 151 685 q 151 713 151 708 q 153 735 151 724 q 157 758 156 747 q 158 782 157 764 q 160 820 160 800 q 163 858 161 840 q 165 882 164 875 q 169 899 167 886 q 176 926 172 911 q 182 953 179 940 q 186 969 185 965 q 188 971 186 971 q 192 972 190 971 q 212 974 201 976 q 233 972 222 972 q 249 967 240 964 q 263 979 258 969 q 267 991 267 985 q 263 1001 268 997 q 243 1006 257 1008 q 219 1007 232 1006 q 196 1006 207 1008 q 172 994 186 1003 q 153 978 157 986 q 149 966 151 975 q 145 947 147 957 q 141 927 143 936 q 138 915 139 918 q 131 892 136 910 q 125 871 126 875 q 118 813 119 842 q 117 756 117 783 q 114 735 117 751 q 111 715 111 718 q 111 697 111 710 q 112 670 111 685 q 113 642 113 656 q 115 625 114 629 z "},"Ü":{"ha":1053,"x_min":57,"x_max":996,"o":"m 899 153 q 806 45 863 89 q 681 -22 749 1 q 539 -46 613 -44 q 397 -28 465 -47 q 268 30 328 -10 q 168 131 208 69 q 156 146 161 138 q 146 161 151 154 q 92 290 111 214 q 65 450 72 365 q 59 623 57 535 q 69 788 61 711 q 87 926 76 865 q 107 1018 97 988 q 113 1031 110 1025 q 121 1042 115 1038 q 151 1053 129 1049 q 185 1057 174 1058 q 244 1056 206 1056 q 322 1053 282 1056 q 396 1044 361 1051 q 446 1022 431 1038 q 461 982 463 1003 q 449 855 454 928 q 441 708 443 782 q 440 567 439 633 q 444 464 440 501 q 474 385 450 411 q 526 360 499 360 q 576 388 553 361 q 607 465 600 414 q 613 569 613 504 q 611 709 614 635 q 603 856 608 783 q 590 983 597 929 q 594 1006 589 994 q 606 1024 599 1017 q 656 1046 621 1039 q 730 1056 690 1053 q 808 1058 769 1058 q 867 1060 846 1058 q 900 1056 878 1060 q 931 1044 922 1051 q 946 1019 942 1033 q 966 928 956 989 q 984 790 976 867 q 994 625 992 713 q 988 453 996 538 q 961 292 981 368 q 907 164 942 217 q 899 153 901 156 m 115 625 q 131 615 117 611 q 147 631 144 618 q 149 647 149 635 q 151 672 150 658 q 151 697 151 685 q 151 713 151 708 q 153 735 151 724 q 157 758 156 747 q 158 782 157 764 q 160 820 160 800 q 163 858 161 840 q 165 882 164 875 q 169 899 167 886 q 176 926 172 911 q 182 953 179 940 q 186 969 185 965 q 188 971 186 971 q 192 972 190 971 q 212 974 201 976 q 233 972 222 972 q 249 967 240 964 q 263 979 258 969 q 267 991 267 985 q 263 1001 268 997 q 243 1006 257 1008 q 219 1007 232 1006 q 196 1006 207 1008 q 172 994 186 1003 q 153 978 157 986 q 149 966 151 975 q 145 947 147 957 q 141 927 143 936 q 138 915 139 918 q 131 892 136 910 q 125 871 126 875 q 118 813 119 842 q 117 756 117 783 q 114 735 117 751 q 111 715 111 718 q 111 697 111 710 q 112 670 111 685 q 113 642 113 656 q 115 625 114 629 z "},"V":{"ha":1135,"x_min":15,"x_max":1126,"o":"m 747 -22 q 692 -32 729 -26 q 608 -40 654 -37 q 510 -39 561 -43 q 417 -19 460 -35 q 394 -3 403 -14 q 369 34 382 13 q 342 78 356 56 q 317 122 329 100 q 297 161 306 144 q 166 453 224 304 q 63 756 108 601 q 47 805 57 774 q 29 870 38 836 q 18 935 21 904 q 25 982 15 965 q 44 999 32 993 q 67 1010 56 1006 q 114 1019 79 1014 q 188 1029 149 1025 q 263 1037 228 1033 q 311 1043 299 1040 q 353 1039 332 1047 q 386 1008 375 1031 q 393 991 389 1003 q 402 966 397 979 q 411 940 407 953 q 417 922 415 928 q 476 758 446 839 q 532 593 507 676 q 547 551 535 581 q 575 482 558 521 q 647 692 607 588 q 732 896 686 796 q 760 958 747 932 q 797 1015 774 983 q 825 1042 813 1035 q 865 1046 838 1050 q 924 1039 885 1043 q 1003 1027 963 1035 q 1076 1008 1043 1019 q 1118 978 1110 996 q 1119 936 1126 960 q 1103 886 1115 922 q 1074 803 1092 850 q 1038 702 1057 756 q 1002 601 1019 649 q 972 517 985 554 q 957 468 960 481 q 908 301 935 383 q 856 136 882 219 q 848 115 853 131 q 838 81 843 99 q 827 47 832 63 q 819 25 822 31 q 798 -6 811 4 q 747 -22 785 -15 m 215 526 q 226 521 219 521 q 237 524 232 521 q 243 533 242 528 q 240 542 244 538 q 239 546 239 543 q 239 550 239 549 q 226 582 233 567 q 211 613 219 597 q 205 628 208 615 q 201 644 201 640 q 192 672 200 651 q 182 697 185 692 q 173 728 178 713 q 158 760 168 744 q 138 807 143 781 q 126 857 133 833 q 123 871 125 861 q 119 892 121 881 q 117 913 118 903 q 115 926 115 922 q 123 933 118 929 q 131 938 128 936 q 138 939 133 939 q 144 939 142 939 q 173 942 158 939 q 188 958 188 944 q 182 973 189 968 q 165 976 175 978 q 144 975 154 974 q 122 972 133 976 q 94 955 110 968 q 76 929 79 942 q 77 908 75 922 q 83 879 79 894 q 90 850 86 864 q 96 831 93 836 q 100 815 97 826 q 106 792 103 804 q 110 768 108 779 q 115 753 113 757 q 130 701 126 728 q 149 651 133 674 q 161 627 156 640 q 172 601 167 614 q 183 584 176 592 q 193 565 190 576 q 203 545 196 560 q 215 526 211 531 z "},"W":{"ha":1636,"x_min":13,"x_max":1625,"o":"m 651 -6 q 599 -15 635 -10 q 520 -24 564 -21 q 429 -22 476 -26 q 340 -3 382 -18 q 321 14 326 4 q 270 112 296 50 q 218 251 244 174 q 166 417 192 329 q 115 594 140 504 q 67 769 90 683 q 24 928 44 856 q 21 988 13 967 q 72 1018 29 1008 q 117 1026 85 1021 q 187 1035 150 1031 q 257 1044 224 1040 q 303 1051 290 1049 q 344 1053 329 1057 q 369 1041 360 1050 q 383 1017 378 1032 q 392 983 388 1001 q 416 857 404 929 q 442 706 428 785 q 476 549 457 628 q 519 404 494 471 q 560 544 542 482 q 596 663 578 606 q 634 779 614 719 q 683 914 654 839 q 707 939 693 936 q 749 946 721 942 q 823 953 786 951 q 897 963 860 956 q 939 956 925 967 q 963 922 953 946 q 1010 788 992 847 q 1045 673 1029 729 q 1077 556 1061 617 q 1117 417 1093 494 q 1160 562 1142 483 q 1194 719 1179 640 q 1221 869 1208 797 q 1246 996 1233 942 q 1254 1029 1250 1014 q 1267 1054 1258 1044 q 1292 1067 1276 1064 q 1335 1065 1308 1069 q 1380 1058 1347 1063 q 1449 1048 1413 1053 q 1519 1038 1486 1043 q 1564 1031 1551 1033 q 1617 1000 1608 1021 q 1614 940 1625 979 q 1570 782 1593 868 q 1522 607 1547 696 q 1471 430 1497 518 q 1419 265 1444 342 q 1367 126 1393 188 q 1317 28 1340 64 q 1296 11 1308 15 q 1208 -9 1256 -6 q 1116 -10 1160 -12 q 1037 -3 1072 -8 q 985 7 1001 3 q 937 25 949 15 q 917 54 925 35 q 910 76 914 60 q 900 110 906 92 q 890 144 894 128 q 883 165 885 160 q 852 272 868 218 q 821 378 836 325 q 787 265 804 321 q 753 153 769 210 q 747 131 751 147 q 738 97 743 115 q 727 63 732 79 q 721 42 722 47 q 699 11 711 21 q 651 -6 688 1 m 179 560 q 188 554 182 556 q 199 555 193 553 q 208 562 204 557 q 210 572 211 567 q 200 611 206 592 q 192 650 194 631 q 165 769 183 711 q 131 886 146 826 q 122 915 126 901 q 117 943 117 928 q 141 952 124 946 q 165 957 158 958 q 185 962 178 956 q 196 976 193 968 q 194 990 199 983 q 178 996 190 996 q 153 991 167 994 q 124 983 139 988 q 98 970 110 978 q 82 954 86 963 q 81 936 79 947 q 86 913 82 925 q 94 888 90 900 q 99 871 97 876 q 108 840 103 856 q 115 807 113 824 q 117 790 115 803 q 122 762 119 776 q 125 734 124 747 q 128 717 126 721 q 140 674 131 694 q 154 632 150 654 q 158 617 156 628 q 165 595 161 607 q 173 574 169 583 q 179 560 176 564 z "},"X":{"ha":1082,"x_min":38,"x_max":1047,"o":"m 865 -4 q 843 -21 854 -14 q 819 -29 832 -28 q 772 -12 800 -29 q 716 27 744 4 q 663 74 688 50 q 622 114 638 99 q 572 162 597 138 q 524 211 547 186 q 471 151 497 181 q 418 92 444 121 q 401 72 414 86 q 374 40 389 57 q 347 9 360 24 q 331 -10 335 -6 q 315 -21 324 -17 q 296 -25 306 -25 q 272 -19 283 -25 q 249 -7 260 -14 q 211 23 238 1 q 155 70 185 44 q 99 119 125 96 q 64 151 74 142 q 48 172 56 161 q 39 197 40 183 q 52 247 38 218 q 88 308 67 276 q 131 366 108 339 q 165 410 153 393 q 251 513 206 461 q 143 650 194 579 q 92 721 117 686 q 47 796 67 756 q 40 825 39 811 q 53 857 40 838 q 75 883 67 876 q 119 924 92 897 q 176 978 146 951 q 237 1025 207 1006 q 289 1043 267 1044 q 329 1022 310 1042 q 358 992 339 1014 q 404 940 378 969 q 460 875 431 910 q 521 806 490 840 q 588 871 554 839 q 657 935 622 903 q 722 992 689 964 q 792 1042 756 1019 q 819 1050 806 1050 q 851 1038 831 1050 q 878 1017 871 1025 q 919 973 892 1000 q 974 916 947 946 q 1022 856 1001 886 q 1042 803 1042 825 q 1036 779 1042 790 q 1024 760 1031 768 q 990 722 1014 749 q 933 662 965 696 q 865 590 901 628 q 793 515 828 551 q 867 438 831 476 q 940 360 904 399 q 958 341 944 354 q 987 312 972 328 q 1015 283 1001 296 q 1032 264 1028 269 q 1043 246 1039 256 q 1046 226 1047 236 q 1040 201 1046 213 q 1025 179 1033 190 q 994 142 1017 168 q 947 85 972 115 q 899 30 922 56 q 865 -4 875 4 m 282 596 q 294 595 288 593 q 304 602 300 597 q 308 612 308 607 q 301 619 307 617 q 292 631 297 622 q 285 642 288 639 q 276 653 282 644 q 264 671 271 661 q 251 690 257 681 q 244 701 246 699 q 233 713 239 708 q 221 725 226 718 q 210 740 214 732 q 200 754 207 747 q 177 781 188 767 q 160 811 167 794 q 153 824 157 818 q 147 836 149 829 q 154 863 144 851 q 174 877 163 872 q 193 893 186 882 q 190 917 204 908 q 161 915 176 926 q 140 899 150 907 q 122 879 129 890 q 111 833 107 858 q 118 815 113 822 q 128 797 124 807 q 138 777 131 792 q 154 747 146 763 q 171 718 163 732 q 183 700 179 704 q 197 688 186 697 q 210 676 207 679 q 219 660 215 668 q 231 646 224 653 q 240 635 233 643 q 255 619 247 628 q 270 604 263 611 q 282 596 278 597 z "},"Y":{"ha":1040,"x_min":7,"x_max":1046,"o":"m 628 -19 q 583 -22 615 -21 q 515 -25 551 -24 q 447 -27 479 -26 q 403 -28 415 -28 q 379 -26 392 -28 q 357 -19 367 -25 q 335 6 343 -12 q 322 44 326 24 q 315 84 317 64 q 311 115 313 104 q 302 261 304 189 q 307 407 300 333 q 287 430 296 418 q 268 453 278 442 q 151 619 203 532 q 57 800 99 707 q 42 834 53 811 q 23 883 32 857 q 10 934 14 910 q 15 972 7 958 q 31 988 21 981 q 51 1003 40 996 q 94 1018 61 1010 q 166 1035 128 1026 q 238 1049 204 1043 q 283 1058 271 1056 q 323 1063 310 1064 q 343 1056 336 1063 q 353 1038 350 1050 q 364 1010 357 1026 q 423 882 392 944 q 490 758 454 819 q 588 901 535 831 q 688 1025 642 972 q 716 1056 703 1043 q 744 1076 729 1069 q 778 1079 758 1082 q 826 1063 797 1076 q 865 1045 838 1057 q 924 1021 893 1033 q 982 996 956 1008 q 1018 976 1008 983 q 1039 931 1046 954 q 1008 881 1032 908 q 919 769 965 833 q 827 634 872 704 q 742 494 782 564 q 674 369 703 425 q 674 310 671 325 q 681 199 681 254 q 682 88 681 144 q 683 73 682 83 q 684 50 683 63 q 685 27 685 38 q 685 13 685 17 q 671 -8 682 -1 q 651 -15 663 -14 q 628 -19 639 -17 m 206 631 q 215 626 210 626 q 226 628 221 625 q 233 635 231 631 q 233 644 236 639 q 226 657 232 649 q 215 675 221 665 q 203 693 208 685 q 196 704 197 701 q 190 717 193 711 q 185 729 188 722 q 145 801 164 765 q 111 876 126 838 q 103 903 107 889 q 99 931 99 917 q 106 939 99 936 q 122 943 113 942 q 141 946 132 944 q 154 951 150 947 q 159 970 164 958 q 142 982 154 982 q 119 977 136 982 q 97 969 103 972 q 77 956 88 967 q 64 935 67 944 q 63 917 61 928 q 67 893 64 906 q 73 869 69 881 q 79 851 76 857 q 85 838 81 847 q 97 817 90 828 q 108 796 103 806 q 115 782 113 786 q 142 718 131 751 q 176 660 153 685 q 192 646 183 653 q 206 631 200 639 z "},"Ý":{"ha":1040,"x_min":7,"x_max":1046,"o":"m 628 -19 q 583 -22 615 -21 q 515 -25 551 -24 q 447 -27 479 -26 q 403 -28 415 -28 q 379 -26 392 -28 q 357 -19 367 -25 q 335 6 343 -12 q 322 44 326 24 q 315 84 317 64 q 311 115 313 104 q 302 261 304 189 q 307 407 300 333 q 287 430 296 418 q 268 453 278 442 q 151 619 203 532 q 57 800 99 707 q 42 834 53 811 q 23 883 32 857 q 10 934 14 910 q 15 972 7 958 q 31 988 21 981 q 51 1003 40 996 q 94 1018 61 1010 q 166 1035 128 1026 q 238 1049 204 1043 q 283 1058 271 1056 q 323 1063 310 1064 q 343 1056 336 1063 q 353 1038 350 1050 q 364 1010 357 1026 q 423 882 392 944 q 490 758 454 819 q 588 901 535 831 q 688 1025 642 972 q 716 1056 703 1043 q 744 1076 729 1069 q 778 1079 758 1082 q 826 1063 797 1076 q 865 1045 838 1057 q 924 1021 893 1033 q 982 996 956 1008 q 1018 976 1008 983 q 1039 931 1046 954 q 1008 881 1032 908 q 919 769 965 833 q 827 634 872 704 q 742 494 782 564 q 674 369 703 425 q 674 310 671 325 q 681 199 681 254 q 682 88 681 144 q 683 73 682 83 q 684 50 683 63 q 685 27 685 38 q 685 13 685 17 q 671 -8 682 -1 q 651 -15 663 -14 q 628 -19 639 -17 m 206 631 q 215 626 210 626 q 226 628 221 625 q 233 635 231 631 q 233 644 236 639 q 226 657 232 649 q 215 675 221 665 q 203 693 208 685 q 196 704 197 701 q 190 717 193 711 q 185 729 188 722 q 145 801 164 765 q 111 876 126 838 q 103 903 107 889 q 99 931 99 917 q 106 939 99 936 q 122 943 113 942 q 141 946 132 944 q 154 951 150 947 q 159 970 164 958 q 142 982 154 982 q 119 977 136 982 q 97 969 103 972 q 77 956 88 967 q 64 935 67 944 q 63 917 61 928 q 67 893 64 906 q 73 869 69 881 q 79 851 76 857 q 85 838 81 847 q 97 817 90 828 q 108 796 103 806 q 115 782 113 786 q 142 718 131 751 q 176 660 153 685 q 192 646 183 653 q 206 631 200 639 z "},"Ÿ":{"ha":1040,"x_min":7,"x_max":1046,"o":"m 628 -19 q 583 -22 615 -21 q 515 -25 551 -24 q 447 -27 479 -26 q 403 -28 415 -28 q 379 -26 392 -28 q 357 -19 367 -25 q 335 6 343 -12 q 322 44 326 24 q 315 84 317 64 q 311 115 313 104 q 302 261 304 189 q 307 407 300 333 q 287 430 296 418 q 268 453 278 442 q 151 619 203 532 q 57 800 99 707 q 42 834 53 811 q 23 883 32 857 q 10 934 14 910 q 15 972 7 958 q 31 988 21 981 q 51 1003 40 996 q 94 1018 61 1010 q 166 1035 128 1026 q 238 1049 204 1043 q 283 1058 271 1056 q 323 1063 310 1064 q 343 1056 336 1063 q 353 1038 350 1050 q 364 1010 357 1026 q 423 882 392 944 q 490 758 454 819 q 588 901 535 831 q 688 1025 642 972 q 716 1056 703 1043 q 744 1076 729 1069 q 778 1079 758 1082 q 826 1063 797 1076 q 865 1045 838 1057 q 924 1021 893 1033 q 982 996 956 1008 q 1018 976 1008 983 q 1039 931 1046 954 q 1008 881 1032 908 q 919 769 965 833 q 827 634 872 704 q 742 494 782 564 q 674 369 703 425 q 674 310 671 325 q 681 199 681 254 q 682 88 681 144 q 683 73 682 83 q 684 50 683 63 q 685 27 685 38 q 685 13 685 17 q 671 -8 682 -1 q 651 -15 663 -14 q 628 -19 639 -17 m 206 631 q 215 626 210 626 q 226 628 221 625 q 233 635 231 631 q 233 644 236 639 q 226 657 232 649 q 215 675 221 665 q 203 693 208 685 q 196 704 197 701 q 190 717 193 711 q 185 729 188 722 q 145 801 164 765 q 111 876 126 838 q 103 903 107 889 q 99 931 99 917 q 106 939 99 936 q 122 943 113 942 q 141 946 132 944 q 154 951 150 947 q 159 970 164 958 q 142 982 154 982 q 119 977 136 982 q 97 969 103 972 q 77 956 88 967 q 64 935 67 944 q 63 917 61 928 q 67 893 64 906 q 73 869 69 881 q 79 851 76 857 q 85 838 81 847 q 97 817 90 828 q 108 796 103 806 q 115 782 113 786 q 142 718 131 751 q 176 660 153 685 q 192 646 183 653 q 206 631 200 639 z "},"Z":{"ha":960,"x_min":53,"x_max":904,"o":"m 722 -21 q 465 -26 593 -29 q 210 -7 338 -24 q 149 3 179 -3 q 89 19 118 8 q 63 48 68 26 q 58 89 57 69 q 60 152 60 118 q 63 219 61 186 q 69 279 64 251 q 88 326 75 307 q 151 415 114 368 q 231 512 188 463 q 319 610 274 561 q 407 707 364 660 q 305 704 356 704 q 206 711 254 704 q 144 721 175 715 q 83 738 114 726 q 65 750 74 742 q 56 777 60 757 q 54 807 53 797 q 56 860 56 826 q 58 930 56 894 q 65 997 60 965 q 83 1040 71 1028 q 114 1054 96 1054 q 183 1053 131 1056 q 294 1049 235 1051 q 406 1044 354 1046 q 475 1043 458 1042 q 615 1048 546 1049 q 756 1049 685 1047 q 774 1049 760 1049 q 803 1050 788 1050 q 832 1050 818 1050 q 850 1050 846 1050 q 875 1036 868 1047 q 885 1017 882 1028 q 889 996 888 1007 q 892 953 890 983 q 897 889 894 924 q 899 824 899 854 q 899 782 900 794 l 899 776 q 896 754 899 765 q 886 732 893 743 q 859 696 881 722 q 807 634 838 669 q 740 556 776 599 q 668 473 704 514 q 599 394 632 432 q 544 328 567 356 q 652 330 599 331 q 760 331 706 329 q 778 331 764 331 q 807 332 792 332 q 836 332 822 332 q 854 332 850 332 q 881 318 871 329 q 890 299 888 310 q 893 276 892 288 q 897 235 894 265 q 901 170 899 204 q 903 106 903 136 q 904 64 904 76 q 901 41 903 53 q 893 19 900 29 q 861 -1 883 7 q 813 -12 839 -8 q 761 -18 786 -17 q 722 -21 736 -19 m 124 811 q 136 806 128 804 q 149 815 144 808 q 150 828 150 818 q 150 843 150 839 q 150 868 150 856 q 153 893 150 881 q 152 916 154 904 q 151 940 150 928 q 153 961 151 944 q 157 982 156 978 q 199 981 178 985 q 242 982 221 978 q 259 996 253 985 q 256 1015 265 1007 q 231 1020 249 1021 q 206 1019 214 1019 q 181 1018 194 1019 q 156 1013 168 1017 q 136 1003 144 1010 q 126 985 128 996 q 120 947 124 965 q 111 910 117 929 q 111 878 107 893 q 116 844 115 861 q 124 811 117 826 z "},"[":{"ha":711,"x_min":75,"x_max":661,"o":"m 226 -87 q 185 -90 206 -89 q 142 -87 164 -90 q 121 -86 131 -87 q 101 -81 111 -85 q 76 -51 81 -72 q 76 -27 75 -44 q 78 10 76 -10 q 83 47 81 29 q 85 72 85 65 q 87 131 86 89 q 89 225 88 172 q 91 337 90 278 q 92 449 92 396 q 94 542 93 501 q 94 601 94 583 q 94 654 94 617 q 92 741 93 692 q 88 845 90 790 q 85 949 86 900 q 83 1037 83 999 q 82 1090 82 1075 q 83 1109 82 1096 q 84 1137 83 1122 q 85 1164 85 1151 q 89 1182 86 1176 q 97 1192 92 1189 q 110 1197 103 1196 q 130 1199 115 1199 q 162 1199 144 1199 q 194 1198 179 1199 q 215 1197 210 1197 q 315 1199 265 1196 q 415 1204 365 1201 q 482 1210 446 1210 q 535 1213 518 1211 q 553 1214 540 1213 q 580 1216 567 1215 q 606 1217 593 1217 q 624 1214 618 1217 q 633 1201 629 1210 q 638 1183 636 1193 q 639 1161 639 1172 q 639 1143 639 1150 q 640 1065 640 1103 q 642 986 639 1026 q 644 959 642 976 q 646 924 646 942 q 644 890 646 906 q 636 865 642 874 q 619 856 631 858 q 592 853 607 853 q 563 853 578 853 q 540 854 549 854 q 490 853 515 854 q 439 851 464 851 q 425 852 435 851 q 404 854 415 853 q 407 706 404 779 q 413 557 410 632 q 415 419 415 488 q 408 283 414 351 q 436 285 421 285 q 467 287 451 286 q 494 288 482 288 q 511 289 506 289 q 524 290 514 289 q 544 290 533 290 q 564 291 554 290 q 576 292 574 292 q 592 294 583 293 q 608 296 600 296 q 626 288 618 294 q 633 276 631 282 q 638 264 635 271 q 641 226 639 253 q 645 169 643 199 q 648 111 647 139 q 649 74 649 83 q 654 19 650 46 q 661 -36 658 -8 q 661 -52 661 -43 q 657 -68 661 -61 q 632 -83 650 -81 q 603 -85 624 -86 q 560 -84 583 -85 q 515 -82 536 -83 q 486 -81 494 -81 q 437 -82 474 -81 q 357 -84 400 -83 q 276 -86 314 -85 q 226 -87 239 -87 m 168 771 q 178 757 165 758 q 196 767 190 756 q 200 782 199 771 q 201 804 201 793 q 202 826 201 815 q 203 842 203 838 q 199 885 204 864 q 194 926 194 906 q 195 960 194 935 q 197 1012 196 985 q 198 1064 197 1039 q 200 1097 199 1089 q 212 1097 203 1097 q 230 1097 221 1097 q 247 1097 239 1097 q 258 1097 256 1097 q 277 1103 269 1097 q 286 1117 285 1110 q 283 1132 288 1125 q 267 1139 279 1139 q 244 1139 258 1139 q 214 1138 229 1139 q 185 1134 199 1138 q 165 1124 171 1131 q 156 1098 158 1115 q 153 1061 153 1081 q 154 1023 153 1042 q 156 993 156 1004 l 156 918 q 158 899 156 914 q 162 868 160 885 q 167 837 164 851 q 169 818 169 822 q 170 794 171 806 q 168 771 169 782 z "},"\\":{"ha":765,"x_min":21,"x_max":724,"o":"m 442 -47 q 416 -50 429 -50 q 392 -44 403 -50 q 377 -34 383 -42 q 367 -18 371 -26 q 358 5 364 -12 q 347 41 353 22 q 336 77 342 60 q 329 100 331 94 q 272 274 301 188 q 219 450 243 361 q 201 504 215 464 q 167 598 188 544 q 124 711 147 651 q 81 824 101 771 q 47 918 61 878 q 28 972 32 958 q 29 1015 21 994 q 69 1052 39 1035 q 137 1085 100 1069 q 210 1113 174 1100 q 265 1133 246 1125 q 298 1140 276 1138 q 331 1139 319 1143 q 351 1121 342 1135 q 394 1052 376 1089 q 429 979 413 1015 q 501 813 464 903 q 572 630 538 724 q 635 444 606 536 q 686 271 665 351 q 700 222 692 253 q 715 156 708 190 q 722 92 721 122 q 714 44 724 61 q 695 27 707 33 q 672 15 683 21 q 627 1 660 11 q 558 -18 594 -8 q 488 -36 521 -28 q 442 -47 454 -44 m 218 624 q 236 617 225 613 q 247 635 247 621 q 242 658 247 640 q 229 696 236 676 q 217 733 222 715 q 210 758 211 751 q 203 783 207 771 q 196 807 199 794 q 180 866 186 836 q 158 924 174 896 q 146 955 151 939 q 142 988 140 971 q 153 997 142 994 q 171 1001 164 999 q 189 1020 185 1007 q 181 1040 193 1033 q 166 1042 174 1043 q 151 1038 158 1040 q 119 1019 135 1033 q 101 989 104 1006 q 105 954 99 971 q 114 921 111 938 q 117 899 114 915 q 122 878 121 883 q 133 851 125 869 q 149 810 140 832 q 164 768 157 788 q 171 740 171 749 q 176 720 171 733 q 188 692 182 707 q 201 663 194 676 q 211 644 208 650 q 215 634 213 642 q 218 624 217 626 z "},"]":{"ha":701,"x_min":43,"x_max":629,"o":"m 169 -85 q 150 -86 163 -85 q 124 -88 138 -87 q 99 -89 111 -89 q 82 -86 88 -89 q 72 -74 75 -82 q 67 -55 68 -65 q 65 -33 65 -44 q 65 -15 65 -22 q 65 63 64 25 q 63 142 65 101 q 61 169 63 151 q 59 204 60 186 q 60 238 58 222 q 68 263 61 254 q 85 272 74 269 q 112 275 97 275 q 141 274 126 275 q 164 274 156 274 q 215 275 189 274 q 265 276 240 276 q 279 276 269 276 q 301 275 289 275 q 298 424 301 350 q 292 572 294 497 q 290 708 289 640 q 296 844 290 776 q 268 842 283 843 q 238 841 253 842 q 211 840 224 840 q 193 840 199 840 q 181 840 190 840 q 160 838 171 839 q 141 837 150 838 q 129 836 132 836 q 113 833 121 835 q 96 832 104 832 q 78 840 85 835 q 72 851 74 846 q 67 864 69 857 q 63 901 64 874 q 59 959 61 929 q 56 1016 57 989 q 56 1054 56 1043 q 51 1109 54 1082 q 44 1164 47 1136 q 43 1181 43 1172 q 47 1196 43 1189 q 72 1213 56 1207 q 101 1214 81 1214 q 144 1213 121 1214 q 189 1210 168 1211 q 218 1208 210 1208 q 267 1210 231 1208 q 347 1212 304 1211 q 428 1214 390 1213 q 478 1215 465 1215 q 520 1217 499 1217 q 563 1217 542 1218 q 583 1214 574 1215 q 603 1208 593 1213 q 628 1181 624 1203 q 628 1156 629 1174 q 626 1118 628 1138 q 623 1081 625 1099 q 621 1056 621 1063 q 618 998 619 1039 q 615 903 617 957 q 613 792 614 850 q 612 680 613 733 q 610 585 611 626 q 610 528 610 544 q 611 474 610 513 q 614 387 613 436 q 617 283 615 338 q 619 178 618 228 q 622 91 621 129 q 622 38 622 53 q 622 19 622 32 q 621 -9 622 6 q 618 -36 619 -24 q 615 -54 617 -49 q 607 -65 613 -61 q 594 -69 601 -68 q 574 -69 589 -69 q 542 -69 560 -69 q 510 -69 525 -69 q 489 -68 494 -68 q 389 -71 439 -68 q 289 -76 339 -74 q 222 -83 258 -82 q 169 -85 186 -83 m 143 899 q 162 892 150 888 q 174 910 174 897 q 174 922 174 913 q 173 940 174 931 q 172 959 172 950 q 171 971 171 968 q 169 985 171 974 q 167 999 167 996 q 165 1025 167 1004 q 163 1069 164 1046 q 160 1112 161 1092 q 160 1139 160 1132 q 166 1140 160 1140 q 174 1138 172 1140 q 184 1129 176 1131 q 199 1131 192 1128 q 226 1144 213 1136 q 233 1165 240 1151 q 219 1174 228 1174 q 196 1175 210 1175 q 168 1173 182 1175 q 142 1166 154 1171 q 125 1153 131 1161 q 120 1135 121 1147 q 119 1110 119 1124 q 121 1085 119 1097 q 122 1065 122 1072 q 122 1049 122 1061 q 123 1025 122 1038 q 125 1001 124 1013 q 128 986 126 990 q 135 958 133 972 q 139 929 138 943 q 140 913 139 924 q 143 899 140 901 z "},"^":{"ha":665,"x_min":33,"x_max":626,"o":"m 514 604 q 490 600 506 603 q 455 594 474 597 q 420 591 436 592 q 396 593 404 590 q 378 611 385 597 q 344 697 358 653 q 315 785 329 740 q 309 757 313 771 q 303 729 306 743 q 299 709 301 724 q 293 677 296 694 q 287 644 290 660 q 282 621 283 628 q 276 599 282 601 q 260 596 269 596 q 222 594 249 594 q 167 593 196 593 q 112 593 138 593 q 75 596 86 593 q 43 608 53 599 q 40 633 33 618 q 54 667 44 642 q 74 723 64 693 q 94 779 85 753 q 107 814 104 806 q 126 866 114 832 q 154 937 139 900 q 186 1004 169 974 q 218 1046 203 1035 q 251 1059 233 1057 q 288 1063 269 1061 q 366 1072 328 1067 q 444 1078 404 1078 q 475 1067 464 1078 q 483 1052 479 1063 q 489 1030 486 1042 q 493 1007 492 1018 q 496 990 494 996 q 536 852 511 919 q 594 722 561 785 q 608 698 600 711 q 622 672 617 685 q 626 649 626 660 q 617 631 626 638 q 597 622 611 626 q 566 615 582 618 q 535 608 550 611 q 514 604 521 606 m 153 778 q 168 777 160 771 q 182 792 176 783 q 188 801 186 796 q 194 813 190 807 q 203 835 199 818 q 214 871 208 851 q 223 908 219 890 q 229 932 226 925 q 235 947 232 939 q 239 961 238 954 q 244 977 240 969 q 250 993 247 985 l 279 993 q 297 997 290 990 q 304 1010 303 1003 q 300 1024 306 1018 q 283 1028 294 1029 q 267 1027 275 1026 q 251 1025 260 1028 q 238 1019 244 1022 q 228 1011 232 1017 q 215 989 222 1006 q 204 965 207 972 q 194 943 201 954 q 182 921 186 932 q 166 869 171 896 q 158 817 161 843 q 152 797 157 810 q 153 778 147 783 z "},"_":{"ha":893,"x_min":26,"x_max":868,"o":"m 178 -221 q 160 -222 174 -221 q 131 -224 146 -222 q 103 -225 117 -225 q 85 -225 89 -225 q 58 -212 67 -222 q 49 -196 51 -206 q 43 -175 46 -186 q 39 -136 42 -164 q 33 -77 36 -108 q 28 -18 29 -46 q 26 21 26 10 q 28 43 26 32 q 36 63 29 54 q 67 83 46 75 q 115 94 89 90 q 165 101 140 99 q 204 106 189 104 q 459 118 332 117 q 713 107 586 119 q 775 101 744 104 q 835 88 806 97 q 854 75 846 83 q 863 50 860 68 q 867 22 867 32 q 867 -26 867 6 q 867 -90 868 -57 q 862 -152 867 -124 q 846 -193 857 -181 q 815 -207 835 -204 q 747 -208 799 -208 q 635 -206 694 -207 q 524 -206 576 -206 q 456 -207 472 -206 q 317 -216 386 -214 q 178 -221 249 -218 m 118 -160 q 128 -169 119 -168 q 140 -162 136 -169 q 143 -144 146 -156 q 138 -96 139 -121 q 138 -47 138 -71 q 139 -22 138 -40 q 143 1 140 -4 q 153 0 147 -1 q 164 3 158 1 q 181 10 174 4 q 189 24 188 17 q 187 39 190 32 q 174 49 183 46 q 138 46 158 51 q 108 28 117 40 q 95 -10 97 11 q 96 -51 93 -32 q 97 -65 96 -56 q 100 -85 99 -75 q 103 -106 101 -96 q 106 -119 104 -115 q 112 -139 107 -122 q 118 -160 117 -156 z "},"a":{"ha":1132,"x_min":24,"x_max":1113,"o":"m 354 -40 q 330 -43 343 -42 q 306 -42 317 -44 q 260 -35 293 -39 q 189 -27 226 -32 q 119 -17 151 -22 q 74 -7 86 -12 q 51 3 63 -3 q 33 21 40 10 q 25 72 24 38 q 33 144 26 106 q 49 217 40 182 q 64 269 58 251 q 168 578 110 426 q 299 876 226 729 q 335 947 317 913 q 379 1013 354 981 q 388 1022 383 1018 q 400 1029 393 1026 q 495 1053 443 1046 q 597 1062 547 1060 q 687 1063 646 1064 q 749 1063 728 1063 q 800 1049 788 1063 q 822 1015 813 1035 q 829 993 824 1010 q 840 958 835 976 q 849 924 844 940 q 857 901 854 907 q 910 733 883 817 q 958 563 936 649 q 973 511 961 549 q 1000 424 985 474 q 1033 319 1015 375 q 1067 213 1051 263 q 1094 126 1082 164 q 1110 75 1106 89 q 1113 54 1113 65 q 1108 33 1113 43 q 1072 4 1100 14 q 1009 -11 1043 -6 q 941 -19 975 -17 q 888 -24 907 -21 q 781 35 810 -33 q 753 104 768 63 q 724 194 739 146 q 640 201 682 199 q 556 201 597 204 q 501 197 528 200 q 447 190 475 194 q 440 189 443 190 q 422 110 431 149 q 407 38 414 72 q 401 6 403 19 q 396 -17 400 -8 q 382 -32 392 -26 q 354 -40 372 -37 m 267 628 q 272 619 267 621 q 285 619 278 617 q 291 625 289 621 q 296 632 293 629 q 313 672 307 651 q 328 713 319 693 q 349 761 336 738 q 372 808 361 785 q 381 828 374 814 q 396 858 388 842 q 411 889 404 875 q 421 908 418 903 q 428 921 422 913 q 439 938 433 929 q 449 956 444 947 q 456 969 454 965 q 451 983 457 979 q 438 988 446 988 q 422 983 429 988 q 410 969 414 978 q 390 934 403 950 q 371 899 378 918 q 358 867 368 890 q 337 817 349 844 q 315 767 325 790 q 301 736 304 744 q 288 693 293 715 q 275 649 283 671 q 270 638 274 646 q 267 628 267 631 m 579 699 q 538 577 560 649 q 496 424 517 506 q 553 431 524 428 q 611 433 582 433 q 628 434 617 433 q 654 435 640 435 q 612 584 631 514 q 579 699 593 654 z "},"à":{"ha":1132,"x_min":24,"x_max":1113,"o":"m 354 -40 q 330 -43 343 -42 q 306 -42 317 -44 q 260 -35 293 -39 q 189 -27 226 -32 q 119 -17 151 -22 q 74 -7 86 -12 q 51 3 63 -3 q 33 21 40 10 q 25 72 24 38 q 33 144 26 106 q 49 217 40 182 q 64 269 58 251 q 168 578 110 426 q 299 876 226 729 q 335 947 317 913 q 379 1013 354 981 q 388 1022 383 1018 q 400 1029 393 1026 q 495 1053 443 1046 q 597 1062 547 1060 q 687 1063 646 1064 q 749 1063 728 1063 q 800 1049 788 1063 q 822 1015 813 1035 q 829 993 824 1010 q 840 958 835 976 q 849 924 844 940 q 857 901 854 907 q 910 733 883 817 q 958 563 936 649 q 973 511 961 549 q 1000 424 985 474 q 1033 319 1015 375 q 1067 213 1051 263 q 1094 126 1082 164 q 1110 75 1106 89 q 1113 54 1113 65 q 1108 33 1113 43 q 1072 4 1100 14 q 1009 -11 1043 -6 q 941 -19 975 -17 q 888 -24 907 -21 q 781 35 810 -33 q 753 104 768 63 q 724 194 739 146 q 640 201 682 199 q 556 201 597 204 q 501 197 528 200 q 447 190 475 194 q 440 189 443 190 q 422 110 431 149 q 407 38 414 72 q 401 6 403 19 q 396 -17 400 -8 q 382 -32 392 -26 q 354 -40 372 -37 m 267 628 q 272 619 267 621 q 285 619 278 617 q 291 625 289 621 q 296 632 293 629 q 313 672 307 651 q 328 713 319 693 q 349 761 336 738 q 372 808 361 785 q 381 828 374 814 q 396 858 388 842 q 411 889 404 875 q 421 908 418 903 q 428 921 422 913 q 439 938 433 929 q 449 956 444 947 q 456 969 454 965 q 451 983 457 979 q 438 988 446 988 q 422 983 429 988 q 410 969 414 978 q 390 934 403 950 q 371 899 378 918 q 358 867 368 890 q 337 817 349 844 q 315 767 325 790 q 301 736 304 744 q 288 693 293 715 q 275 649 283 671 q 270 638 274 646 q 267 628 267 631 m 579 699 q 538 577 560 649 q 496 424 517 506 q 553 431 524 428 q 611 433 582 433 q 628 434 617 433 q 654 435 640 435 q 612 584 631 514 q 579 699 593 654 z "},"á":{"ha":1132,"x_min":24,"x_max":1113,"o":"m 354 -40 q 330 -43 343 -42 q 306 -42 317 -44 q 260 -35 293 -39 q 189 -27 226 -32 q 119 -17 151 -22 q 74 -7 86 -12 q 51 3 63 -3 q 33 21 40 10 q 25 72 24 38 q 33 144 26 106 q 49 217 40 182 q 64 269 58 251 q 168 578 110 426 q 299 876 226 729 q 335 947 317 913 q 379 1013 354 981 q 388 1022 383 1018 q 400 1029 393 1026 q 495 1053 443 1046 q 597 1062 547 1060 q 687 1063 646 1064 q 749 1063 728 1063 q 800 1049 788 1063 q 822 1015 813 1035 q 829 993 824 1010 q 840 958 835 976 q 849 924 844 940 q 857 901 854 907 q 910 733 883 817 q 958 563 936 649 q 973 511 961 549 q 1000 424 985 474 q 1033 319 1015 375 q 1067 213 1051 263 q 1094 126 1082 164 q 1110 75 1106 89 q 1113 54 1113 65 q 1108 33 1113 43 q 1072 4 1100 14 q 1009 -11 1043 -6 q 941 -19 975 -17 q 888 -24 907 -21 q 781 35 810 -33 q 753 104 768 63 q 724 194 739 146 q 640 201 682 199 q 556 201 597 204 q 501 197 528 200 q 447 190 475 194 q 440 189 443 190 q 422 110 431 149 q 407 38 414 72 q 401 6 403 19 q 396 -17 400 -8 q 382 -32 392 -26 q 354 -40 372 -37 m 267 628 q 272 619 267 621 q 285 619 278 617 q 291 625 289 621 q 296 632 293 629 q 313 672 307 651 q 328 713 319 693 q 349 761 336 738 q 372 808 361 785 q 381 828 374 814 q 396 858 388 842 q 411 889 404 875 q 421 908 418 903 q 428 921 422 913 q 439 938 433 929 q 449 956 444 947 q 456 969 454 965 q 451 983 457 979 q 438 988 446 988 q 422 983 429 988 q 410 969 414 978 q 390 934 403 950 q 371 899 378 918 q 358 867 368 890 q 337 817 349 844 q 315 767 325 790 q 301 736 304 744 q 288 693 293 715 q 275 649 283 671 q 270 638 274 646 q 267 628 267 631 m 579 699 q 538 577 560 649 q 496 424 517 506 q 553 431 524 428 q 611 433 582 433 q 628 434 617 433 q 654 435 640 435 q 612 584 631 514 q 579 699 593 654 z "},"â":{"ha":1132,"x_min":24,"x_max":1113,"o":"m 354 -40 q 330 -43 343 -42 q 306 -42 317 -44 q 260 -35 293 -39 q 189 -27 226 -32 q 119 -17 151 -22 q 74 -7 86 -12 q 51 3 63 -3 q 33 21 40 10 q 25 72 24 38 q 33 144 26 106 q 49 217 40 182 q 64 269 58 251 q 168 578 110 426 q 299 876 226 729 q 335 947 317 913 q 379 1013 354 981 q 388 1022 383 1018 q 400 1029 393 1026 q 495 1053 443 1046 q 597 1062 547 1060 q 687 1063 646 1064 q 749 1063 728 1063 q 800 1049 788 1063 q 822 1015 813 1035 q 829 993 824 1010 q 840 958 835 976 q 849 924 844 940 q 857 901 854 907 q 910 733 883 817 q 958 563 936 649 q 973 511 961 549 q 1000 424 985 474 q 1033 319 1015 375 q 1067 213 1051 263 q 1094 126 1082 164 q 1110 75 1106 89 q 1113 54 1113 65 q 1108 33 1113 43 q 1072 4 1100 14 q 1009 -11 1043 -6 q 941 -19 975 -17 q 888 -24 907 -21 q 781 35 810 -33 q 753 104 768 63 q 724 194 739 146 q 640 201 682 199 q 556 201 597 204 q 501 197 528 200 q 447 190 475 194 q 440 189 443 190 q 422 110 431 149 q 407 38 414 72 q 401 6 403 19 q 396 -17 400 -8 q 382 -32 392 -26 q 354 -40 372 -37 m 267 628 q 272 619 267 621 q 285 619 278 617 q 291 625 289 621 q 296 632 293 629 q 313 672 307 651 q 328 713 319 693 q 349 761 336 738 q 372 808 361 785 q 381 828 374 814 q 396 858 388 842 q 411 889 404 875 q 421 908 418 903 q 428 921 422 913 q 439 938 433 929 q 449 956 444 947 q 456 969 454 965 q 451 983 457 979 q 438 988 446 988 q 422 983 429 988 q 410 969 414 978 q 390 934 403 950 q 371 899 378 918 q 358 867 368 890 q 337 817 349 844 q 315 767 325 790 q 301 736 304 744 q 288 693 293 715 q 275 649 283 671 q 270 638 274 646 q 267 628 267 631 m 579 699 q 538 577 560 649 q 496 424 517 506 q 553 431 524 428 q 611 433 582 433 q 628 434 617 433 q 654 435 640 435 q 612 584 631 514 q 579 699 593 654 z "},"ã":{"ha":1132,"x_min":24,"x_max":1113,"o":"m 354 -40 q 330 -43 343 -42 q 306 -42 317 -44 q 260 -35 293 -39 q 189 -27 226 -32 q 119 -17 151 -22 q 74 -7 86 -12 q 51 3 63 -3 q 33 21 40 10 q 25 72 24 38 q 33 144 26 106 q 49 217 40 182 q 64 269 58 251 q 168 578 110 426 q 299 876 226 729 q 335 947 317 913 q 379 1013 354 981 q 388 1022 383 1018 q 400 1029 393 1026 q 495 1053 443 1046 q 597 1062 547 1060 q 687 1063 646 1064 q 749 1063 728 1063 q 800 1049 788 1063 q 822 1015 813 1035 q 829 993 824 1010 q 840 958 835 976 q 849 924 844 940 q 857 901 854 907 q 910 733 883 817 q 958 563 936 649 q 973 511 961 549 q 1000 424 985 474 q 1033 319 1015 375 q 1067 213 1051 263 q 1094 126 1082 164 q 1110 75 1106 89 q 1113 54 1113 65 q 1108 33 1113 43 q 1072 4 1100 14 q 1009 -11 1043 -6 q 941 -19 975 -17 q 888 -24 907 -21 q 781 35 810 -33 q 753 104 768 63 q 724 194 739 146 q 640 201 682 199 q 556 201 597 204 q 501 197 528 200 q 447 190 475 194 q 440 189 443 190 q 422 110 431 149 q 407 38 414 72 q 401 6 403 19 q 396 -17 400 -8 q 382 -32 392 -26 q 354 -40 372 -37 m 267 628 q 272 619 267 621 q 285 619 278 617 q 291 625 289 621 q 296 632 293 629 q 313 672 307 651 q 328 713 319 693 q 349 761 336 738 q 372 808 361 785 q 381 828 374 814 q 396 858 388 842 q 411 889 404 875 q 421 908 418 903 q 428 921 422 913 q 439 938 433 929 q 449 956 444 947 q 456 969 454 965 q 451 983 457 979 q 438 988 446 988 q 422 983 429 988 q 410 969 414 978 q 390 934 403 950 q 371 899 378 918 q 358 867 368 890 q 337 817 349 844 q 315 767 325 790 q 301 736 304 744 q 288 693 293 715 q 275 649 283 671 q 270 638 274 646 q 267 628 267 631 m 579 699 q 538 577 560 649 q 496 424 517 506 q 553 431 524 428 q 611 433 582 433 q 628 434 617 433 q 654 435 640 435 q 612 584 631 514 q 579 699 593 654 z "},"ä":{"ha":1132,"x_min":24,"x_max":1113,"o":"m 354 -40 q 330 -43 343 -42 q 306 -42 317 -44 q 260 -35 293 -39 q 189 -27 226 -32 q 119 -17 151 -22 q 74 -7 86 -12 q 51 3 63 -3 q 33 21 40 10 q 25 72 24 38 q 33 144 26 106 q 49 217 40 182 q 64 269 58 251 q 168 578 110 426 q 299 876 226 729 q 335 947 317 913 q 379 1013 354 981 q 388 1022 383 1018 q 400 1029 393 1026 q 495 1053 443 1046 q 597 1062 547 1060 q 687 1063 646 1064 q 749 1063 728 1063 q 800 1049 788 1063 q 822 1015 813 1035 q 829 993 824 1010 q 840 958 835 976 q 849 924 844 940 q 857 901 854 907 q 910 733 883 817 q 958 563 936 649 q 973 511 961 549 q 1000 424 985 474 q 1033 319 1015 375 q 1067 213 1051 263 q 1094 126 1082 164 q 1110 75 1106 89 q 1113 54 1113 65 q 1108 33 1113 43 q 1072 4 1100 14 q 1009 -11 1043 -6 q 941 -19 975 -17 q 888 -24 907 -21 q 781 35 810 -33 q 753 104 768 63 q 724 194 739 146 q 640 201 682 199 q 556 201 597 204 q 501 197 528 200 q 447 190 475 194 q 440 189 443 190 q 422 110 431 149 q 407 38 414 72 q 401 6 403 19 q 396 -17 400 -8 q 382 -32 392 -26 q 354 -40 372 -37 m 267 628 q 272 619 267 621 q 285 619 278 617 q 291 625 289 621 q 296 632 293 629 q 313 672 307 651 q 328 713 319 693 q 349 761 336 738 q 372 808 361 785 q 381 828 374 814 q 396 858 388 842 q 411 889 404 875 q 421 908 418 903 q 428 921 422 913 q 439 938 433 929 q 449 956 444 947 q 456 969 454 965 q 451 983 457 979 q 438 988 446 988 q 422 983 429 988 q 410 969 414 978 q 390 934 403 950 q 371 899 378 918 q 358 867 368 890 q 337 817 349 844 q 315 767 325 790 q 301 736 304 744 q 288 693 293 715 q 275 649 283 671 q 270 638 274 646 q 267 628 267 631 m 579 699 q 538 577 560 649 q 496 424 517 506 q 553 431 524 428 q 611 433 582 433 q 628 434 617 433 q 654 435 640 435 q 612 584 631 514 q 579 699 593 654 z "},"å":{"ha":1132,"x_min":24,"x_max":1113,"o":"m 354 -40 q 330 -43 343 -42 q 306 -42 317 -44 q 260 -35 293 -39 q 189 -27 226 -32 q 119 -17 151 -22 q 74 -7 86 -12 q 51 3 63 -3 q 33 21 40 10 q 25 72 24 38 q 33 144 26 106 q 49 217 40 182 q 64 269 58 251 q 168 578 110 426 q 299 876 226 729 q 335 947 317 913 q 379 1013 354 981 q 388 1022 383 1018 q 400 1029 393 1026 q 495 1053 443 1046 q 597 1062 547 1060 q 687 1063 646 1064 q 749 1063 728 1063 q 800 1049 788 1063 q 822 1015 813 1035 q 829 993 824 1010 q 840 958 835 976 q 849 924 844 940 q 857 901 854 907 q 910 733 883 817 q 958 563 936 649 q 973 511 961 549 q 1000 424 985 474 q 1033 319 1015 375 q 1067 213 1051 263 q 1094 126 1082 164 q 1110 75 1106 89 q 1113 54 1113 65 q 1108 33 1113 43 q 1072 4 1100 14 q 1009 -11 1043 -6 q 941 -19 975 -17 q 888 -24 907 -21 q 781 35 810 -33 q 753 104 768 63 q 724 194 739 146 q 640 201 682 199 q 556 201 597 204 q 501 197 528 200 q 447 190 475 194 q 440 189 443 190 q 422 110 431 149 q 407 38 414 72 q 401 6 403 19 q 396 -17 400 -8 q 382 -32 392 -26 q 354 -40 372 -37 m 267 628 q 272 619 267 621 q 285 619 278 617 q 291 625 289 621 q 296 632 293 629 q 313 672 307 651 q 328 713 319 693 q 349 761 336 738 q 372 808 361 785 q 381 828 374 814 q 396 858 388 842 q 411 889 404 875 q 421 908 418 903 q 428 921 422 913 q 439 938 433 929 q 449 956 444 947 q 456 969 454 965 q 451 983 457 979 q 438 988 446 988 q 422 983 429 988 q 410 969 414 978 q 390 934 403 950 q 371 899 378 918 q 358 867 368 890 q 337 817 349 844 q 315 767 325 790 q 301 736 304 744 q 288 693 293 715 q 275 649 283 671 q 270 638 274 646 q 267 628 267 631 m 579 699 q 538 577 560 649 q 496 424 517 506 q 553 431 524 428 q 611 433 582 433 q 628 434 617 433 q 654 435 640 435 q 612 584 631 514 q 579 699 593 654 z "},"b":{"ha":1006,"x_min":65,"x_max":957,"o":"m 826 46 q 684 -19 760 1 q 529 -44 608 -39 q 370 -42 450 -49 q 214 -25 290 -36 q 184 -26 197 -26 q 164 -26 171 -26 q 140 -23 153 -25 q 119 -12 128 -21 q 99 29 107 0 q 86 92 90 58 q 80 159 82 126 q 76 211 78 192 q 67 546 65 379 q 85 879 68 713 q 90 940 86 906 q 104 1006 94 975 q 132 1058 114 1038 q 181 1079 150 1079 q 425 1074 303 1079 q 667 1038 547 1069 q 723 1022 694 1031 q 778 1001 751 1014 q 846 961 814 985 q 901 907 878 938 q 942 824 929 871 q 953 733 956 778 q 939 672 950 701 q 910 615 928 643 q 858 558 889 583 q 793 514 828 532 q 857 483 826 503 q 911 436 888 464 q 944 371 933 410 q 956 290 954 332 q 948 206 957 247 q 922 136 939 165 q 880 86 906 108 q 826 46 854 64 m 142 656 q 157 655 149 650 q 165 668 165 660 q 165 672 164 669 q 167 676 167 675 q 168 690 168 681 q 168 710 168 699 q 168 730 168 721 q 168 743 168 739 q 169 772 168 750 q 171 817 169 793 q 173 863 172 842 q 174 892 174 885 q 177 933 175 913 q 188 972 179 953 q 192 982 189 975 q 199 992 194 989 q 231 999 215 999 q 267 997 249 997 q 304 996 285 996 q 324 994 314 989 q 339 1011 335 1000 q 338 1025 343 1021 q 322 1031 332 1029 q 299 1032 311 1032 q 275 1033 286 1032 q 241 1033 258 1035 q 207 1026 224 1032 q 183 1016 194 1024 q 164 997 171 1008 q 142 945 149 974 q 131 889 135 917 q 131 860 131 882 q 133 832 132 839 q 135 804 135 825 q 137 760 136 783 q 138 717 138 738 q 139 689 139 696 q 138 670 139 682 q 142 656 136 658 m 419 644 q 452 643 435 643 q 485 644 469 643 q 517 647 497 644 q 556 656 536 650 q 592 669 575 661 q 617 686 610 676 q 630 715 628 699 q 625 747 632 732 q 594 781 615 769 q 546 797 572 792 q 490 803 519 803 q 433 804 460 804 q 420 727 426 763 q 419 644 414 692 m 442 271 q 489 268 463 268 q 541 272 515 268 q 590 285 567 276 q 625 306 613 293 q 636 342 642 321 q 611 379 631 364 q 585 393 600 388 q 556 401 571 399 q 494 410 525 408 q 431 414 463 413 q 430 342 425 378 q 442 271 435 307 z "},"c":{"ha":957,"x_min":40,"x_max":928,"o":"m 739 -11 q 581 -40 664 -39 q 418 -25 497 -42 q 315 7 365 -14 q 221 60 265 28 q 149 128 181 89 q 99 213 118 168 q 52 378 64 292 q 44 550 40 464 q 60 678 47 615 q 100 801 72 742 q 185 922 131 868 q 306 1011 239 976 q 434 1055 364 1040 q 577 1067 504 1069 q 719 1047 650 1065 q 844 993 789 1028 q 866 980 854 988 q 890 964 878 972 q 910 947 901 956 q 924 928 919 938 q 924 901 928 917 q 912 868 919 885 q 895 836 904 851 q 881 811 886 821 q 854 766 871 794 q 818 710 838 738 q 777 663 799 683 q 736 638 756 642 q 706 641 721 635 q 678 657 690 647 q 639 687 658 672 q 596 711 619 701 q 551 723 575 719 q 503 719 526 726 q 447 685 469 711 q 413 626 425 660 q 396 553 400 592 q 396 482 392 515 q 406 432 399 457 q 425 386 413 407 q 494 335 451 344 q 535 331 514 329 q 575 336 556 332 q 703 375 642 349 q 724 385 711 379 q 749 394 736 390 q 773 400 761 399 q 792 397 785 401 q 804 385 799 393 q 814 371 810 378 q 832 333 819 361 q 858 272 844 304 q 883 210 871 239 q 899 171 894 181 q 910 131 906 151 q 908 92 915 111 q 881 60 903 75 q 834 31 860 44 q 782 6 808 17 q 739 -11 756 -6 m 160 722 q 174 711 163 711 q 189 722 186 711 q 196 740 190 726 q 203 758 201 754 q 217 783 207 767 q 239 816 226 799 q 263 848 251 833 q 282 869 275 863 q 339 907 307 889 q 388 936 364 921 q 438 963 413 951 q 472 972 454 969 q 506 976 489 974 q 522 983 515 978 q 529 996 528 989 q 527 1009 531 1003 q 514 1017 524 1015 q 494 1017 507 1018 q 467 1012 481 1015 q 440 1005 453 1008 q 421 999 426 1001 q 367 966 393 983 q 311 935 340 949 q 283 918 296 928 q 256 899 269 908 q 226 865 238 885 q 206 826 214 846 q 198 813 203 819 q 190 800 193 807 q 165 742 175 772 q 161 733 164 738 q 160 722 158 728 z "},"ç":{"ha":957,"x_min":40,"x_max":928,"o":"m 739 -11 q 581 -40 664 -39 q 418 -25 497 -42 q 315 7 365 -14 q 221 60 265 28 q 149 128 181 89 q 99 213 118 168 q 52 378 64 292 q 44 550 40 464 q 60 678 47 615 q 100 801 72 742 q 185 922 131 868 q 306 1011 239 976 q 434 1055 364 1040 q 577 1067 504 1069 q 719 1047 650 1065 q 844 993 789 1028 q 866 980 854 988 q 890 964 878 972 q 910 947 901 956 q 924 928 919 938 q 924 901 928 917 q 912 868 919 885 q 895 836 904 851 q 881 811 886 821 q 854 766 871 794 q 818 710 838 738 q 777 663 799 683 q 736 638 756 642 q 706 641 721 635 q 678 657 690 647 q 639 687 658 672 q 596 711 619 701 q 551 723 575 719 q 503 719 526 726 q 447 685 469 711 q 413 626 425 660 q 396 553 400 592 q 396 482 392 515 q 406 432 399 457 q 425 386 413 407 q 494 335 451 344 q 535 331 514 329 q 575 336 556 332 q 703 375 642 349 q 724 385 711 379 q 749 394 736 390 q 773 400 761 399 q 792 397 785 401 q 804 385 799 393 q 814 371 810 378 q 832 333 819 361 q 858 272 844 304 q 883 210 871 239 q 899 171 894 181 q 910 131 906 151 q 908 92 915 111 q 881 60 903 75 q 834 31 860 44 q 782 6 808 17 q 739 -11 756 -6 m 160 722 q 174 711 163 711 q 189 722 186 711 q 196 740 190 726 q 203 758 201 754 q 217 783 207 767 q 239 816 226 799 q 263 848 251 833 q 282 869 275 863 q 339 907 307 889 q 388 936 364 921 q 438 963 413 951 q 472 972 454 969 q 506 976 489 974 q 522 983 515 978 q 529 996 528 989 q 527 1009 531 1003 q 514 1017 524 1015 q 494 1017 507 1018 q 467 1012 481 1015 q 440 1005 453 1008 q 421 999 426 1001 q 367 966 393 983 q 311 935 340 949 q 283 918 296 928 q 256 899 269 908 q 226 865 238 885 q 206 826 214 846 q 198 813 203 819 q 190 800 193 807 q 165 742 175 772 q 161 733 164 738 q 160 722 158 728 z "},"d":{"ha":1072,"x_min":65,"x_max":1035,"o":"m 826 46 q 684 -19 760 1 q 529 -44 608 -39 q 370 -42 450 -49 q 214 -25 290 -36 q 184 -26 197 -26 q 164 -26 171 -26 q 140 -23 153 -25 q 119 -12 128 -21 q 99 29 107 0 q 86 92 90 58 q 80 159 82 126 q 76 211 78 192 q 67 546 65 379 q 85 879 68 713 q 90 940 86 906 q 104 1006 94 975 q 132 1058 114 1038 q 181 1079 150 1079 q 425 1074 303 1079 q 667 1038 547 1069 q 723 1022 694 1031 q 778 1001 751 1014 q 846 961 814 985 q 901 907 878 938 q 978 772 947 847 q 1022 616 1008 697 q 1031 451 1035 535 q 1003 292 1026 368 q 936 153 981 217 q 826 46 892 89 m 156 657 q 176 653 164 647 q 182 671 189 660 q 183 690 182 675 q 185 721 183 704 q 187 752 186 738 q 188 771 188 767 q 190 811 189 783 q 194 870 192 839 q 199 929 196 901 q 207 968 201 957 q 213 976 208 971 q 219 983 218 981 q 229 986 222 986 q 239 988 236 986 q 274 990 257 990 q 310 986 292 989 q 333 991 325 983 q 342 1007 342 999 q 336 1022 343 1015 q 314 1028 329 1029 q 285 1025 303 1026 q 248 1022 267 1024 q 213 1015 229 1019 q 192 1001 197 1010 q 182 990 186 996 q 174 979 178 985 q 171 969 172 976 q 168 953 169 961 q 165 937 167 944 q 164 925 164 929 q 160 892 161 908 q 154 860 158 875 q 148 787 144 824 q 151 714 151 750 q 151 701 151 710 q 151 685 151 693 q 152 669 151 676 q 156 657 153 661 m 442 271 q 574 289 521 260 q 658 404 628 318 q 677 494 674 447 q 678 586 681 540 q 671 646 676 617 q 654 703 665 675 q 613 758 638 738 q 558 788 588 778 q 497 801 529 799 q 433 804 464 804 q 424 740 428 783 q 419 644 421 697 q 417 532 417 590 q 420 422 418 474 q 428 329 422 369 q 442 271 433 289 z "},"e":{"ha":885,"x_min":61,"x_max":838,"o":"m 476 -24 q 349 -24 413 -24 q 224 -10 286 -25 q 150 31 178 1 q 106 101 122 61 q 83 185 90 140 q 74 272 76 231 q 66 401 69 340 q 62 523 63 463 q 63 647 61 583 q 71 781 65 710 q 80 860 74 819 q 102 935 86 900 q 147 997 118 971 q 221 1035 175 1024 q 346 1049 282 1050 q 472 1047 410 1047 q 553 1047 513 1049 q 635 1044 594 1046 l 700 1044 q 722 1043 707 1044 q 752 1040 736 1042 q 782 1034 768 1038 q 801 1028 796 1031 q 818 1013 813 1022 q 826 994 824 1004 q 831 904 838 950 q 828 811 825 858 q 827 765 829 782 q 817 737 825 747 q 794 723 810 726 q 753 719 778 719 q 654 726 707 719 q 556 732 601 733 q 478 714 510 731 q 443 651 447 697 l 443 644 l 493 644 q 570 646 531 642 q 646 643 610 650 q 669 635 660 640 q 682 615 676 629 q 688 594 688 601 q 690 554 688 581 q 691 501 692 528 q 685 449 690 474 q 667 415 681 425 q 651 408 660 410 q 631 404 642 406 q 565 401 615 403 q 447 399 515 400 q 449 383 449 390 q 450 368 450 375 q 488 298 456 317 q 565 278 519 279 q 662 284 610 276 q 760 292 714 292 q 801 288 785 292 q 824 272 817 283 q 834 241 832 261 q 835 189 836 221 q 835 146 833 164 q 837 111 836 128 q 837 77 838 94 q 831 35 836 60 q 822 14 828 24 q 806 -1 815 4 q 785 -8 799 -6 q 756 -14 771 -11 q 726 -18 740 -17 q 704 -19 711 -19 q 692 -19 701 -19 q 671 -19 682 -19 q 651 -19 660 -19 q 639 -19 642 -19 q 558 -23 599 -21 q 476 -24 517 -25 m 140 651 q 153 643 143 642 q 167 654 163 644 q 168 669 168 658 q 168 692 168 679 q 169 715 168 704 q 169 729 169 725 q 170 755 169 735 q 172 781 171 775 q 174 792 172 783 q 176 812 175 801 q 179 832 178 822 q 181 844 181 842 q 190 891 183 868 q 211 931 196 914 q 230 942 217 936 q 258 951 243 947 q 288 956 274 954 q 311 958 303 958 q 321 956 315 954 q 332 958 326 957 q 349 972 343 961 q 347 990 356 982 q 328 997 340 996 q 302 997 315 999 q 275 991 289 994 q 253 986 261 988 q 219 974 236 982 q 189 956 203 967 q 163 923 174 942 q 146 885 153 904 q 139 850 140 868 q 133 815 138 832 q 126 733 122 775 q 140 651 131 692 z "},"è":{"ha":885,"x_min":61,"x_max":838,"o":"m 476 -24 q 349 -24 413 -24 q 224 -10 286 -25 q 150 31 178 1 q 106 101 122 61 q 83 185 90 140 q 74 272 76 231 q 66 401 69 340 q 62 523 63 463 q 63 647 61 583 q 71 781 65 710 q 80 860 74 819 q 102 935 86 900 q 147 997 118 971 q 221 1035 175 1024 q 346 1049 282 1050 q 472 1047 410 1047 q 553 1047 513 1049 q 635 1044 594 1046 l 700 1044 q 722 1043 707 1044 q 752 1040 736 1042 q 782 1034 768 1038 q 801 1028 796 1031 q 818 1013 813 1022 q 826 994 824 1004 q 831 904 838 950 q 828 811 825 858 q 827 765 829 782 q 817 737 825 747 q 794 723 810 726 q 753 719 778 719 q 654 726 707 719 q 556 732 601 733 q 478 714 510 731 q 443 651 447 697 l 443 644 l 493 644 q 570 646 531 642 q 646 643 610 650 q 669 635 660 640 q 682 615 676 629 q 688 594 688 601 q 690 554 688 581 q 691 501 692 528 q 685 449 690 474 q 667 415 681 425 q 651 408 660 410 q 631 404 642 406 q 565 401 615 403 q 447 399 515 400 q 449 383 449 390 q 450 368 450 375 q 488 298 456 317 q 565 278 519 279 q 662 284 610 276 q 760 292 714 292 q 801 288 785 292 q 824 272 817 283 q 834 241 832 261 q 835 189 836 221 q 835 146 833 164 q 837 111 836 128 q 837 77 838 94 q 831 35 836 60 q 822 14 828 24 q 806 -1 815 4 q 785 -8 799 -6 q 756 -14 771 -11 q 726 -18 740 -17 q 704 -19 711 -19 q 692 -19 701 -19 q 671 -19 682 -19 q 651 -19 660 -19 q 639 -19 642 -19 q 558 -23 599 -21 q 476 -24 517 -25 m 140 651 q 153 643 143 642 q 167 654 163 644 q 168 669 168 658 q 168 692 168 679 q 169 715 168 704 q 169 729 169 725 q 170 755 169 735 q 172 781 171 775 q 174 792 172 783 q 176 812 175 801 q 179 832 178 822 q 181 844 181 842 q 190 891 183 868 q 211 931 196 914 q 230 942 217 936 q 258 951 243 947 q 288 956 274 954 q 311 958 303 958 q 321 956 315 954 q 332 958 326 957 q 349 972 343 961 q 347 990 356 982 q 328 997 340 996 q 302 997 315 999 q 275 991 289 994 q 253 986 261 988 q 219 974 236 982 q 189 956 203 967 q 163 923 174 942 q 146 885 153 904 q 139 850 140 868 q 133 815 138 832 q 126 733 122 775 q 140 651 131 692 z "}}}
